<svg id="people_black_24dp_2_" data-name="people_black_24dp (2)" xmlns="http://www.w3.org/2000/svg" width="27.43" height="27.43" viewBox="0 0 27.43 27.43">
  <path id="Path_107645" data-name="Path 107645" d="M0,0H27.43V27.43H0Z" fill="none"/>
  <g id="Group_59646" data-name="Group 59646" transform="translate(1.995 1.85)">
    <path id="asset-management" d="M39.386,40.7l-.286-1.31c1.227.229,3.2,2.728,3.832,3.863a10.8,10.8,0,0,1,.841,1.94c.464,1.728.017,3.346-1.858,3.722a23.608,23.608,0,0,1-4.6.191c-1.335-.069-3.384-.067-3.92-1.431-.866-2.211.721-4.832,2.169-6.436a8.215,8.215,0,0,1,.589-.591,5.679,5.679,0,0,1,1.772-1.24l-.654,1.219.954-1.261h.5l.662,1.335Zm-1.858-3.184c-.216-.639-.412-1.286-.572-1.942.614-.673,2.985-.584,3.668,0l-.635,1.492c.34-.446.454-.629.656-.877a2.239,2.239,0,0,1,.24.191.994.994,0,0,1,.382.593.616.616,0,0,1-.17.5l-1.45,1.688a3.115,3.115,0,0,1-.544-.139c.082-.191.191-.4.263-.6l-.528.572a1.961,1.961,0,0,0-1.4.172l-1.48-1.772a.5.5,0,0,1-.126-.315c0-.427.637-.8.969-.935Z" transform="translate(-23.72 -35.106)" fill="#fff" fill-rule="evenodd"/>
    <path id="payment-dollar" d="M0,48.12H4.736v8.427H0Zm5.69,7.72V48.8H8.859a11.95,11.95,0,0,1,4.029,1.814h2.461c1.114.067,1.7,1.2.614,1.938a4.559,4.559,0,0,1-3.167.492.53.53,0,1,0,0,1.045c.29.023.607-.046.885-.046,1.455,0,2.655-.28,3.39-1.431l.368-.86L21.1,49.934c1.831-.6,3.132,1.314,1.784,2.646a47.958,47.958,0,0,1-8.151,4.8,5.519,5.519,0,0,1-6.058,0Z" transform="translate(0 -34.554)" fill="#fff" fill-rule="evenodd"/>
  </g>
</svg>
