<svg xmlns="http://www.w3.org/2000/svg" width="31.616" height="44.375" viewBox="0 0 31.616 44.375">
  <g id="Group_60197" data-name="Group 60197" transform="translate(-14.185)">
    <g id="Litrature" transform="translate(14.185 0)">
      <g id="Group_185" data-name="Group 185" transform="translate(4.485 7.539)">
        <g id="Group_178" data-name="Group 178" transform="translate(0.008 0.013)">
          <rect id="Rectangle_6" data-name="Rectangle 6" width="25.909" height="4.875" transform="translate(0 25.281) rotate(-77.353)" fill="#3a3434"/>
        </g>
        <g id="Group_179" data-name="Group 179" transform="translate(0 23.109)">
          <rect id="Rectangle_7" data-name="Rectangle 7" width="2.237" height="4.875" transform="translate(0 2.183) rotate(-77.353)" fill="#834f21"/>
        </g>
        <g id="Group_180" data-name="Group 180" transform="translate(5.219 0)">
          <rect id="Rectangle_8" data-name="Rectangle 8" width="2.237" height="4.875" transform="translate(0 2.183) rotate(-77.354)" fill="#834f21"/>
        </g>
        <g id="Group_181" data-name="Group 181" transform="translate(1.954 15.56)">
          <rect id="Rectangle_9" data-name="Rectangle 9" width="0.924" height="4.875" transform="translate(0 0.902) rotate(-77.356)" fill="#e6ddc6"/>
        </g>
        <g id="Group_182" data-name="Group 182" transform="translate(3.714 7.869)">
          <rect id="Rectangle_10" data-name="Rectangle 10" width="0.924" height="4.875" transform="translate(0 0.902) rotate(-77.352)" fill="#e6ddc6"/>
        </g>
        <g id="Group_183" data-name="Group 183" transform="translate(2.603 10.372)">
          <rect id="Rectangle_11" data-name="Rectangle 11" width="3.402" height="4.875" transform="matrix(0.219, -0.976, 0.976, 0.219, 0, 3.319)" fill="#e6ddc6"/>
        </g>
        <g id="Group_184" data-name="Group 184" transform="translate(2.476 0.567)" opacity="0.5" style="mix-blend-mode: multiply;isolation: isolate">
          <rect id="Rectangle_12" data-name="Rectangle 12" width="25.909" height="2.349" transform="translate(0 25.281) rotate(-77.351)" fill="#d9451d"/>
        </g>
      </g>
      <g id="Group_191" data-name="Group 191" transform="translate(21.783 5.32)">
        <g id="Group_186" data-name="Group 186">
          <rect id="Rectangle_13" data-name="Rectangle 13" width="5.38" height="28.578" fill="#292f2f"/>
        </g>
        <g id="Group_187" data-name="Group 187" transform="translate(0 25.055)">
          <rect id="Rectangle_14" data-name="Rectangle 14" width="5.38" height="3.523" fill="#342640"/>
        </g>
        <g id="Group_188" data-name="Group 188" transform="translate(0 2.685)">
          <rect id="Rectangle_15" data-name="Rectangle 15" width="5.38" height="2.056" fill="#342640"/>
        </g>
        <g id="Group_189" data-name="Group 189" transform="translate(1.072 16.61)">
          <rect id="Rectangle_16" data-name="Rectangle 16" width="3.237" height="5.442" rx="1.618" fill="#f9f06f"/>
        </g>
        <g id="Group_190" data-name="Group 190" transform="translate(2.69)" opacity="0.5" style="mix-blend-mode: multiply;isolation: isolate">
          <rect id="Rectangle_17" data-name="Rectangle 17" width="2.69" height="28.578" fill="#ef67a5"/>
        </g>
      </g>
      <g id="Group_197" data-name="Group 197" transform="translate(14.821)">
        <g id="Group_192" data-name="Group 192" transform="translate(0)">
          <rect id="Rectangle_18" data-name="Rectangle 18" width="6.962" height="33.898" fill="#006daf"/>
        </g>
        <g id="Group_193" data-name="Group 193" transform="translate(0 29.401)">
          <rect id="Rectangle_19" data-name="Rectangle 19" width="6.962" height="1.948" fill="#f2ddc5"/>
        </g>
        <g id="Group_194" data-name="Group 194" transform="translate(0 3.841)">
          <rect id="Rectangle_20" data-name="Rectangle 20" width="6.962" height="1.948" fill="#f2ddc5"/>
        </g>
        <g id="Group_195" data-name="Group 195" transform="translate(1.619 21.93)">
          <circle id="Ellipse_9" data-name="Ellipse 9" cx="1.862" cy="1.862" r="1.862" fill="#f2ddc5"/>
        </g>
        <g id="Group_196" data-name="Group 196" transform="translate(3.352)" opacity="0.55" style="mix-blend-mode: multiply;isolation: isolate">
          <rect id="Rectangle_21" data-name="Rectangle 21" width="3.611" height="33.898" fill="#cb852d"/>
        </g>
      </g>
      <g id="Group_203" data-name="Group 203" transform="translate(0 33.866)">
        <g id="Group_198" data-name="Group 198" transform="translate(0.524 0.524)">
          <path id="Path_186" data-name="Path 186" d="M662.657,180.985a3.733,3.733,0,0,1,2.016-3.314v-.422H638.18a3.736,3.736,0,1,0,0,7.472h26.494V184.3A3.734,3.734,0,0,1,662.657,180.985Z" transform="translate(-634.444 -177.249)" fill="#fcf3d9"/>
        </g>
        <g id="Group_199" data-name="Group 199" transform="translate(0.525 4.28)">
          <path id="Path_187" data-name="Path 187" d="M662.661,191.6a3.733,3.733,0,0,0,2.016,3.294v.421H638.183a3.735,3.735,0,0,1-3.735-3.715Z" transform="translate(-634.448 -191.596)" fill="#f0e8d0"/>
        </g>
        <g id="Group_200" data-name="Group 200">
          <path id="Path_188" data-name="Path 188" d="M664.06,183.768H636.7a4.26,4.26,0,1,1,0-8.519H664.06V176.3H636.7a3.212,3.212,0,1,0,0,6.425H664.06Z" transform="translate(-632.444 -175.249)" fill="#1a75bb"/>
        </g>
        <g id="Group_202" data-name="Group 202" transform="translate(6.032 4.259)">
          <g id="Group_201" data-name="Group 201">
            <path id="Path_189" data-name="Path 189" d="M655.483,197.766l2.085-1.64,2.084,1.64v-6.249h-4.169Z" transform="translate(-655.483 -191.517)" fill="#d12b53"/>
          </g>
        </g>
      </g>
    </g>
  </g>
</svg>
