<svg xmlns="http://www.w3.org/2000/svg" width="135.184" height="143.627" viewBox="0 0 135.184 143.627">
  <g id="logo" transform="translate(78.773 122.662)">
    <g id="Group_51120" data-name="Group 51120" transform="translate(-78.773 -122.662)">
      <g id="Group_47" data-name="Group 47" transform="translate(0 3.342)">
        <g id="Group_45" data-name="Group 45" transform="translate(0.736 0.986)">
          <path id="Path_61" data-name="Path 61" d="M159.941,151.44q-1.476,1.347-3,2.619-1.669,1.428-3.389,2.779c-1.144.909-2.309,1.785-3.485,2.64-1.305.963-2.62,1.892-3.967,2.812-1.111.749-2.245,1.486-3.389,2.191-1.144-.705-2.266-1.443-3.379-2.191-1.347-.908-2.672-1.839-3.975-2.812q-1.764-1.282-3.475-2.629-1.732-1.364-3.4-2.791c-1.015-.845-2.009-1.722-2.994-2.609-1.144-1.027-2.277-2.085-3.377-3.164-.856-.823-1.7-1.657-2.512-2.512-1.166-1.187-2.3-2.384-3.39-3.614-.715-.78-1.41-1.582-2.1-2.383q-1.7-1.973-3.324-4.03c-.588-.76-1.176-1.519-1.743-2.288q-1.635-2.164-3.164-4.414c-.513-.738-1.015-1.486-1.5-2.235-1.015-1.538-2-3.11-2.929-4.7-.46-.759-.9-1.517-1.326-2.287-.919-1.6-1.785-3.228-2.619-4.875q-.609-1.187-1.187-2.4c-.791-1.636-1.55-3.283-2.255-4.961-.385-.876-.749-1.753-1.1-2.63-.651-1.625-1.271-3.259-1.849-4.916-.353-.984-.7-1.989-1.015-2.994q-.77-2.357-1.443-4.746c-.321-1.133-.632-2.277-.909-3.421-.385-1.5-.726-2.993-1.048-4.511q-.417-1.94-.769-3.912c-.257-1.444-.492-2.9-.7-4.352-.213-1.433-.395-2.865-.546-4.319-.181-1.6-.32-3.228-.427-4.853-.1-1.337-.171-2.683-.213-4.03-.065-1.571-.1-3.164-.1-4.757,0-1.454.022-2.9.086-4.34.866-.427,1.743-.845,2.619-1.251q2.807-1.3,5.677-2.469c.587-.235,1.186-.471,1.785-.705q3.255-1.284,6.607-2.384c.353-.117.705-.224,1.058-.343q3.657-1.17,7.4-2.138c.032-.31.075-.609.128-.918q.577-4.09,1.5-8.071c-1.8.417-3.569.866-5.334,1.336-1.143.31-2.287.643-3.42.984-1.657.481-3.293,1.005-4.918,1.561-1.272.427-2.544.876-3.795,1.336q-2.308.867-4.575,1.8-2.037.833-4.041,1.732c-1.678.749-3.345,1.54-4.992,2.352-1.187.588-2.362,1.2-3.538,1.818q-.338,4.81-.343,9.707v.02q0,4.683.32,9.279c.065.952.139,1.9.235,2.855q.273,3.126.7,6.2c.086.62.171,1.23.268,1.85q.529,3.528,1.25,6.991c.065.341.139.673.215,1.015.544,2.544,1.165,5.067,1.849,7.547.044.128.075.257.107.385.749,2.64,1.561,5.249,2.459,7.825.054-.011.117-.021.171-.032a1.408,1.408,0,0,0-.138.118c.9,2.565,1.87,5.109,2.918,7.611.054.139.118.278.171.416q1.541,3.625,3.271,7.131c.1.192.193.4.289.588q1.732,3.448,3.645,6.777c.118.2.235.406.364.609,1.293,2.235,2.651,4.415,4.073,6.564.117.182.235.353.364.534q2.181,3.27,4.565,6.4c.075.107.161.224.245.331q2.487,3.255,5.164,6.35a.351.351,0,0,0,.1-.042c-.021.021-.042.054-.064.075,1.774,2.074,3.634,4.084,5.548,6.04.1.113.209.22.32.321,1.8,1.849,3.656,3.624,5.559,5.355.279.247.546.482.813.729,1.753,1.56,3.548,3.077,5.377,4.531.492.407.994.8,1.5,1.187,1.636,1.282,3.3,2.512,4.992,3.71.781.555,1.571,1.1,2.363,1.635q3.831,2.582,7.856,4.917,4.025-2.325,7.858-4.917c.8-.544,1.591-1.09,2.383-1.646q2.532-1.8,4.971-3.7c.5-.385,1-.78,1.507-1.2q2.741-2.181,5.366-4.522c.279-.245.546-.492.823-.738,1.892-1.721,3.752-3.506,5.548-5.345q-4.023-1.635-7.857-3.614Q161.657,149.906,159.941,151.44Z" transform="translate(-75.854 -35.518)" fill="#4cc21d"/>
        </g>
        <g id="Group_46" data-name="Group 46">
          <path id="Path_62" data-name="Path 62" d="M142.785,174.919l-.369-.214c-2.611-1.507-5.269-3.171-7.9-4.944-.876-.591-1.655-1.13-2.379-1.646-1.845-1.309-3.488-2.528-5.02-3.73-.558-.427-1.054-.821-1.511-1.2-1.774-1.411-3.6-2.946-5.4-4.55-.24-.222-.473-.427-.712-.639l-.1-.087c-2.093-1.9-3.923-3.668-5.6-5.394a4.661,4.661,0,0,1-.34-.34c-1.973-2.016-3.748-3.945-5.4-5.871l-.187-.212c-1.785-2.063-3.531-4.211-5.192-6.386-.085-.1-.179-.235-.263-.355-1.53-2-3.075-4.167-4.575-6.418-.124-.174-.245-.353-.369-.543-1.452-2.194-2.83-4.414-4.092-6.594-.11-.173-.227-.373-.341-.571-1.343-2.346-2.575-4.638-3.688-6.854l-.289-.589c-1.168-2.369-2.274-4.781-3.29-7.172-.032-.085-.059-.145-.085-.206-.034-.078-.066-.156-.1-.234-.957-2.284-1.881-4.68-2.744-7.113h0l-.212-.606c-.871-2.5-1.681-5.078-2.471-7.866-.033-.133-.06-.243-.1-.353-.706-2.552-1.331-5.1-1.871-7.626l-.029-.129c-.066-.3-.132-.6-.189-.9-.48-2.3-.9-4.668-1.255-7.018-.1-.62-.183-1.234-.269-1.858-.292-2.162-.521-4.2-.7-6.237-.086-.855-.164-1.8-.237-2.869-.213-3.069-.321-6.208-.321-9.328,0-3.238.115-6.521.343-9.78l.03-.409.363-.192c1.385-.73,2.515-1.31,3.555-1.827,1.793-.884,3.434-1.657,5.02-2.364,1.331-.6,2.7-1.182,4.061-1.741,1.463-.6,3.01-1.208,4.6-1.8,1.294-.476,2.577-.927,3.819-1.345,1.738-.6,3.358-1.109,4.946-1.571,1.234-.373,2.36-.7,3.433-.986,1.92-.512,3.673-.951,5.361-1.343l1.15-.267-.264,1.151c-.609,2.653-1.109,5.348-1.485,8.009-.055.315-.095.6-.125.892l-.052.511-.5.128c-2.425.624-4.9,1.34-7.356,2.126-.174.059-.358.117-.541.175s-.339.108-.51.164c-2.266.749-4.476,1.546-6.569,2.371l-.174.068c-.539.212-1.078.424-1.607.636-1.891.771-3.79,1.6-5.641,2.454-.793.368-1.52.714-2.209,1.05-.046,1.173-.067,2.416-.067,3.872,0,1.586.032,3.175.1,4.726.04,1.275.109,2.583.212,4.007.112,1.7.254,3.318.425,4.822.148,1.444.326,2.844.541,4.293.194,1.386.42,2.8.692,4.33.233,1.3.491,2.612.764,3.887.347,1.64.687,3.106,1.041,4.482.247,1.013.533,2.092.9,3.4.445,1.578.927,3.164,1.435,4.719.314.981.653,1.979,1.009,2.972.548,1.571,1.148,3.17,1.84,4.893.392.972.749,1.824,1.091,2.608.639,1.521,1.371,3.131,2.245,4.935.382.808.778,1.61,1.178,2.39.892,1.76,1.742,3.343,2.6,4.845.45.809.878,1.55,1.316,2.272.891,1.525,1.87,3.1,2.914,4.68.466.725.966,1.471,1.486,2.219,1,1.474,2.057,2.949,3.148,4.392.567.77,1.163,1.539,1.737,2.281,1.063,1.347,2.175,2.695,3.3,4,.606.711,1.324,1.545,2.08,2.367,1,1.13,2.1,2.3,3.371,3.6.717.753,1.507,1.544,2.5,2.5,1.06,1.039,2.189,2.1,3.36,3.146,1.145,1.033,2.088,1.856,2.972,2.591,1.1.945,2.241,1.878,3.384,2.777,1.185.929,2.314,1.785,3.452,2.613,1.212.9,2.5,1.816,3.954,2.8,1.13.761,2.085,1.384,2.966,1.934.946-.59,1.925-1.225,2.976-1.934,1.386-.946,2.676-1.861,3.941-2.793,1.288-.938,2.42-1.8,3.463-2.625,1.128-.886,2.261-1.814,3.369-2.762,1.008-.838,2.009-1.712,2.986-2.6l0,0c1.167-1.047,2.293-2.1,3.345-3.13l.38-.373.473.243c2.558,1.316,5.182,2.522,7.8,3.586l1.018.414-.767.785c-1.743,1.785-3.621,3.594-5.579,5.375-.15.132-.287.257-.424.379l-.408.366c-1.786,1.591-3.6,3.121-5.395,4.547-.451.373-.936.759-1.519,1.205-1.564,1.225-3.246,2.476-4.992,3.716-.8.559-1.591,1.107-2.4,1.654-2.635,1.776-5.294,3.441-7.9,4.946Zm-33.764-29.758c1.678,1.962,3.482,3.925,5.515,6,.1.112.191.2.29.291,1.688,1.736,3.5,3.478,5.559,5.356l.09.079c.247.219.485.43.724.65,1.775,1.579,3.573,3.094,5.337,4.5.453.374.936.757,1.486,1.178,1.52,1.192,3.143,2.4,4.971,3.693.715.51,1.483,1.041,2.349,1.626,2.478,1.669,4.981,3.241,7.443,4.676,2.46-1.433,4.962-3.006,7.444-4.676.8-.542,1.584-1.085,2.372-1.638,1.725-1.224,3.387-2.46,4.941-3.675.572-.44,1.044-.815,1.491-1.185,1.783-1.418,3.578-2.93,5.347-4.5l.4-.358c.142-.127.282-.254.426-.382,1.647-1.5,3.239-3.019,4.742-4.529-2.157-.906-4.311-1.906-6.426-2.978-.955.926-1.966,1.868-3.008,2.8-.992.906-2.011,1.793-3.027,2.639-1.115.954-2.264,1.9-3.4,2.792-1.058.84-2.2,1.71-3.506,2.658-1.276.941-2.581,1.866-3.984,2.824-1.216.819-2.333,1.541-3.418,2.209l-.387.239-.388-.239c-1.006-.62-2.086-1.322-3.4-2.207-1.473-.993-2.783-1.919-4.006-2.832-1.145-.833-2.29-1.7-3.489-2.641-1.159-.913-2.312-1.859-3.423-2.81-.893-.741-1.85-1.577-3.008-2.622-1.185-1.063-2.33-2.136-3.4-3.184-1-.964-1.806-1.77-2.529-2.531-1.279-1.3-2.4-2.493-3.406-3.632-.762-.83-1.492-1.676-2.1-2.394-1.137-1.319-2.262-2.682-3.342-4.051-.586-.755-1.186-1.531-1.758-2.309-1.1-1.454-2.171-2.95-3.18-4.437-.527-.757-1.035-1.515-1.506-2.249-1.056-1.6-2.049-3.192-2.947-4.73-.441-.729-.879-1.485-1.333-2.3-.868-1.516-1.732-3.122-2.632-4.9-.406-.791-.809-1.607-1.195-2.423-.881-1.823-1.625-3.457-2.268-4.991-.346-.785-.709-1.652-1.106-2.64-.7-1.744-1.309-3.363-1.862-4.95-.36-1-.7-2.02-1.021-3.011-.512-1.569-1-3.174-1.451-4.77-.376-1.33-.667-2.425-.916-3.448-.356-1.387-.7-2.873-1.052-4.532-.277-1.29-.537-2.614-.773-3.935-.277-1.55-.505-2.982-.7-4.379-.22-1.463-.4-2.887-.549-4.345-.173-1.521-.318-3.164-.43-4.88-.1-1.439-.174-2.767-.214-4.055-.065-1.564-.1-3.174-.1-4.781,0-1.659.028-3.049.087-4.373l.019-.435.392-.194c.816-.4,1.677-.815,2.634-1.259,1.872-.866,3.793-1.7,5.708-2.483q.805-.323,1.62-.642l.174-.068c2.118-.835,4.354-1.641,6.646-2.4.174-.059.35-.114.527-.171s.353-.113.529-.171c2.327-.745,4.664-1.426,6.96-2.026.02-.148.045-.3.071-.456.325-2.3.743-4.637,1.246-6.956-1.321.318-2.695.667-4.167,1.059-1.056.287-2.169.607-3.4.977-1.574.457-3.171.964-4.892,1.552-1.232.415-2.5.861-3.779,1.331-1.567.588-3.1,1.189-4.549,1.786-1.35.552-2.7,1.131-4.02,1.722-1.569.7-3.193,1.465-4.967,2.341-.935.463-1.947.982-3.157,1.617-.208,3.09-.312,6.2-.312,9.245,0,3.106.108,6.21.319,9.248.071,1.058.147,1.983.233,2.832.176,2.021.4,4.038.692,6.175.085.614.17,1.22.266,1.835.348,2.326.767,4.665,1.244,6.954.057.3.119.587.182.875l.03.134c.534,2.5,1.154,5.022,1.84,7.509.037.108.075.256.112.4.713,2.516,1.447,4.87,2.23,7.157l2.747-.542-2.33,1.732c.854,2.412,1.771,4.788,2.726,7.07.032.084.059.146.085.208.033.077.065.153.095.229,1,2.343,2.09,4.73,3.244,7.07l.286.584c1.1,2.191,2.321,4.46,3.626,6.741.126.215.231.4.347.581,1.262,2.179,2.624,4.375,4.065,6.551.116.181.228.343.35.517,1.494,2.239,3.02,4.381,4.549,6.381.083.118.158.222.234.317,1.652,2.165,3.381,4.289,5.146,6.33l-.428.369.029.036Z" transform="translate(-75.194 -34.634)" fill="#4cc21d"/>
          <path id="Path_265261" data-name="Path 265261" d="M104.771,133.47a.362.362,0,0,0-.068.037l.142.176Z" transform="translate(-71.778 -23.192)" fill="#4cc21d"/>
        </g>
      </g>
      <g id="Group_50" data-name="Group 50" transform="translate(100.248 4.817)">
        <g id="Group_48" data-name="Group 48" transform="translate(0.74 0.848)">
          <path id="Path_63" data-name="Path 63" d="M198.82,48.282c-1.166-.62-2.341-1.218-3.528-1.806q-2.469-1.235-5-2.352c-1.336-.609-2.672-1.186-4.03-1.742h-.01c-1.507-.62-3.036-1.22-4.576-1.785-1.251-.471-2.523-.919-3.795-1.348-1.625-.545-3.26-1.069-4.917-1.56-1.134-.343-2.277-.663-3.421-.973a37.036,37.036,0,0,0-3.837,6.735v.011q.08.449.128.9,3.734.962,7.4,2.149c.354.107.706.224,1.059.341,2.235.727,4.436,1.53,6.606,2.373.6.235,1.2.471,1.785.706q2.869,1.187,5.676,2.479h.01c.877.407,1.744.812,2.609,1.241.065,1.443.086,2.9.086,4.35q0,2.39-.1,4.747c-.042,1.358-.117,2.7-.214,4.041-.107,1.625-.247,3.238-.428,4.841q-.224,2.181-.545,4.329c-.2,1.455-.427,2.9-.7,4.34-.234,1.314-.491,2.63-.769,3.923-.31,1.507-.663,3.015-1.048,4.5-.278,1.144-.588,2.3-.908,3.431a35.768,35.768,0,0,0,7.867,1.988c.032-.128.075-.268.107-.406q1.026-3.721,1.85-7.526c.074-.341.148-.7.224-1.038.47-2.3.887-4.628,1.24-6.969.1-.62.182-1.241.278-1.87.278-2.043.513-4.1.684-6.179.1-.952.171-1.9.235-2.865q.32-4.6.32-9.279V58Q199.162,53.092,198.82,48.282Z" transform="translate(-165.703 -36.716)" fill="#4cc21d"/>
        </g>
        <g id="Group_49" data-name="Group 49" transform="translate(0 0)">
          <path id="Path_64" data-name="Path 64" d="M194.855,95.052l-.656-.09a36.626,36.626,0,0,1-8.029-2.03l-.632-.241.184-.65c.357-1.263.652-2.377.9-3.405.395-1.522.745-3.025,1.043-4.475.269-1.254.527-2.565.765-3.9.241-1.3.466-2.71.691-4.312.213-1.43.395-2.876.542-4.3.174-1.535.312-3.109.425-4.816.1-1.435.173-2.747.213-4.016.064-1.564.095-3.151.095-4.722,0-1.436-.021-2.711-.067-3.882-.7-.343-1.4-.667-2.056-.973l-.154-.066c-1.8-.836-3.651-1.642-5.647-2.469-.579-.232-1.177-.466-1.774-.7-2.345-.913-4.494-1.685-6.565-2.359l-.049-.016c-.331-.11-.663-.221-1-.321-2.41-.782-4.885-1.5-7.366-2.14l-.5-.128-.055-.508q-.045-.423-.122-.848l-.011-.128v-.155l.062-.154a37.87,37.87,0,0,1,3.914-6.869l.3-.415.493.134c1.329.36,2.422.671,3.441.979,1.552.461,3.169.974,4.94,1.568,1.343.452,2.629.908,3.819,1.356,1.447.532,2.95,1.118,4.468,1.741l.138.052c1.386.568,2.714,1.141,4.057,1.754,1.747.774,3.441,1.571,5.027,2.363,1.3.647,2.465,1.241,3.544,1.815l.361.192.028.408c.229,3.261.345,6.547.345,9.769,0,3.129-.109,6.268-.322,9.341-.073,1.091-.148,2.011-.238,2.888-.162,1.969-.386,4-.686,6.2-.047.309-.089.6-.133.895-.048.33-.1.659-.147.989-.348,2.305-.768,4.663-1.246,7l-.228,1.047c-.533,2.484-1.159,5.03-1.858,7.564-.013.063-.038.153-.062.242Zm-7.528-3.267a35.273,35.273,0,0,0,6.43,1.62c.672-2.452,1.266-4.886,1.777-7.263l.225-1.039c.472-2.307.887-4.639,1.231-6.922.051-.328.1-.653.146-.979.044-.3.086-.594.133-.894.295-2.162.517-4.171.677-6.128.088-.874.163-1.776.234-2.853.212-3.042.32-6.146.32-9.231,0-3.062-.106-6.175-.314-9.266-.963-.51-2-1.037-3.147-1.606-1.568-.784-3.24-1.571-4.974-2.339-1.29-.588-2.558-1.137-3.877-1.679h0l-.145-.056c-1.543-.634-3.074-1.232-4.549-1.775-1.182-.443-2.448-.894-3.775-1.34-1.753-.588-3.354-1.1-4.893-1.552-.878-.264-1.812-.532-2.907-.832a36.3,36.3,0,0,0-3.377,5.985l.033.221c2.349.615,4.686,1.3,6.956,2.035.33.1.675.215,1.019.329,2.138.7,4.311,1.477,6.686,2.4q.905.355,1.792.709c1.941.8,3.81,1.618,5.564,2.427h0l.158.068c.829.385,1.723.8,2.624,1.249l.392.193.019.436c.059,1.31.087,2.744.087,4.383,0,1.591-.032,3.2-.1,4.777-.04,1.281-.11,2.612-.214,4.064-.114,1.726-.254,3.322-.431,4.873-.147,1.44-.332,2.909-.548,4.355-.226,1.617-.455,3.047-.7,4.365-.241,1.35-.5,2.679-.773,3.944-.3,1.468-.657,2.995-1.056,4.53C187.849,89.85,187.608,90.769,187.326,91.785Z" transform="translate(-165.04 -35.956)" fill="#4cc21d"/>
        </g>
      </g>
      <g id="Group_53" data-name="Group 53" transform="translate(64.822 16.459)">
        <g id="Group_51" data-name="Group 51" transform="translate(0.738 0.739)">
          <path id="Path_65" data-name="Path 65" d="M150.906,47.919c-1.775-.224-3.57-.395-5.367-.534-.908-.064-1.818-.117-2.726-.171-1.828-.1-3.656-.161-5.5-.161-.437-.022-1.337.331-1.775.331s-1.506,5.034-1.57,7.781c-.011.546-.022,1.091-.022,1.636,0,2.181.1,4.329.3,6.457a69.271,69.271,0,0,0,1.24,8.092h.011c.138.706.3,1.411.481,2.107q.753,3.063,1.785,6.007a68.4,68.4,0,0,0,2.629,6.478c.278.588.567,1.176.856,1.764h.01a66.006,66.006,0,0,0,4.051,7.012q.547.835,1.124,1.637a66.956,66.956,0,0,0,4.286,5.5q2.069,2.39,4.329,4.565h.011c.513.5,1.025.984,1.55,1.455a68.488,68.488,0,0,0,13.266,9.428c.7-1.144,1.357-2.3,2.01-3.475s1.3-2.394,1.935-3.6a60.2,60.2,0,0,1-6.884-4.372,59.374,59.374,0,0,1-6.392-5.4c-.406-.385-.8-.792-1.2-1.2h-.011A61.267,61.267,0,0,1,151.215,88.9c-.7-1.1-1.347-2.235-1.968-3.389-.941-1.764-1.806-3.592-2.576-5.463a59.446,59.446,0,0,1-2.341-6.714v-.01c-.161-.556-.309-1.112-.449-1.678a59.672,59.672,0,0,1-1.465-8.221,58.7,58.7,0,0,1-.363-6.628c0-.5.011-1.015.02-1.519,1.348.075,2.695.162,4.03.289,1.358.107,2.716.245,4.062.417-.01.267-.01.546-.01.812a53.256,53.256,0,0,0,2.437,15.9.551.551,0,0,1,.128.022.8.8,0,0,1-.042.235,52.052,52.052,0,0,0,3.711,8.734c.534,1.005,1.1,1.978,1.709,2.94a52.281,52.281,0,0,0,5.72,7.578,1.573,1.573,0,0,1,.214.075.45.45,0,0,1-.044.107,52.991,52.991,0,0,0,6.383,5.911,54,54,0,0,0,6.884,4.565c.534-1.24,1.048-2.5,1.539-3.775s.963-2.575,1.411-3.88a43.6,43.6,0,0,1-6.884-5,46.149,46.149,0,0,1-4.779-4.917c-.556-.673-1.09-1.358-1.613-2.063a44.19,44.19,0,0,1-4.918-8.509c-.353-.792-.673-1.593-.983-2.406V72.3a44.069,44.069,0,0,1-1.882-6.6,44.847,44.847,0,0,1-.886-8.455c1.357.245,2.7.534,4.04.844q2.084.465,4.137,1.027a36.065,36.065,0,0,0,1.689,8.916q.544,1.682,1.251,3.3v.01a36.651,36.651,0,0,0,4.147,7.173h.011a34.372,34.372,0,0,0,2.244,2.748,36.332,36.332,0,0,0,6.874,5.911c.363-1.315.694-2.63.994-3.955.353-1.55.684-3.111.962-4.682a28.268,28.268,0,0,1-5.752-6.585,21.809,21.809,0,0,1-1.122-1.935,27.428,27.428,0,0,1-2.832-8.285,27.834,27.834,0,0,1-.193-8.617c-1.454-.481-2.918-.929-4.4-1.347-1.145-.32-2.3-.63-3.463-.918q-2.373-.611-4.779-1.112c-1.048-.224-2.1-.427-3.143-.62-1.688-.32-3.4-.6-5.12-.833C152.841,48.154,151.879,48.026,150.906,47.919Z" transform="translate(-133.951 -47.052)" fill="#4cc21d"/>
        </g>
        <g id="Group_52" data-name="Group 52" transform="translate(0)">
          <path id="Path_66" data-name="Path 66" d="M170.222,118.368l-.617-.336a69.213,69.213,0,0,1-13.412-9.531c-.47-.422-.927-.848-1.389-1.3l-.186-.171c-1.533-1.478-3-3.03-4.375-4.614a67.96,67.96,0,0,1-4.334-5.564c-.382-.53-.765-1.089-1.136-1.655a67.093,67.093,0,0,1-3.888-6.679h-.006l-.213-.413c-.3-.6-.582-1.189-.858-1.773a69.588,69.588,0,0,1-2.661-6.552c-.7-2.025-1.311-4.069-1.8-6.074-.151-.576-.29-1.177-.417-1.786l-.079-.34a70.256,70.256,0,0,1-1.252-8.179c-.2-2.1-.3-4.3-.3-6.525,0-.55.011-1.1.022-1.65a28.746,28.746,0,0,1,.281-5.3,4.5,4.5,0,0,1,1.195-2.29,3.582,3.582,0,0,1,2.643-1.246h.041c1.637,0,3.383.051,5.456.161.92.054,1.83.108,2.739.172,1.991.154,3.757.33,5.4.538.88.1,1.806.216,2.915.376,1.732.237,3.468.519,5.153.839,1.175.216,2.209.421,3.16.624,1.534.317,3.154.694,4.807,1.119,1.066.263,2.206.566,3.48.923,1.468.413,2.961.869,4.436,1.357l.58.192-.08.606a27.16,27.16,0,0,0,.186,8.389,26.736,26.736,0,0,0,2.758,8.069,21.365,21.365,0,0,0,1.088,1.877,27.53,27.53,0,0,0,5.608,6.423l.328.273-.075.421c-.248,1.4-.556,2.9-.969,4.717-.3,1.317-.635,2.659-1,3.989l-.271.981-.848-.561a37.17,37.17,0,0,1-7.013-6.034c-.755-.837-1.449-1.678-2.069-2.5h0l-.233-.3a37.59,37.59,0,0,1-4.23-7.316l-.061-.153c-.453-1.051-.861-2.137-1.215-3.229a36.879,36.879,0,0,1-1.687-8.567c-1.187-.317-2.4-.613-3.6-.881-1.133-.262-2.161-.483-3.123-.671a44.146,44.146,0,0,0,.854,7.414,43.355,43.355,0,0,0,1.85,6.486l.046.131c.335.871.627,1.587.919,2.242a43.605,43.605,0,0,0,4.838,8.372c.526.708,1.046,1.374,1.589,2.031a45.355,45.355,0,0,0,4.7,4.836,42.872,42.872,0,0,0,6.769,4.918l.52.306-.2.571c-.449,1.3-.926,2.615-1.42,3.9-.5,1.307-1.027,2.585-1.55,3.8l-.325.751-.713-.4a55.081,55.081,0,0,1-6.979-4.627,53.879,53.879,0,0,1-6.473-6l-.173-.183a53.171,53.171,0,0,1-5.8-7.685c-.623-.984-1.192-1.962-1.735-2.982a52.931,52.931,0,0,1-3.678-8.6h-.007L151.967,73A53.955,53.955,0,0,1,149.5,56.879v-.162c-1.112-.132-2.244-.243-3.372-.333-1.121-.107-2.239-.183-3.248-.243,0,.249-.008.494-.008.738a60.978,60.978,0,0,0,1.806,14.667c.134.547.278,1.086.443,1.655l.028.112a58.948,58.948,0,0,0,2.284,6.532c.748,1.815,1.6,3.632,2.547,5.4.649,1.211,1.284,2.3,1.94,3.342,1.079,1.728,2.224,3.377,3.4,4.9a58.758,58.758,0,0,0,4.408,5.112h0l.228.223c.362.372.772.792,1.176,1.176a58.635,58.635,0,0,0,6.321,5.338,59.582,59.582,0,0,0,6.8,4.32l.637.347-.336.645c-.767,1.468-1.367,2.584-1.945,3.62-.715,1.291-1.377,2.436-2.023,3.5Zm-14.793-12.6h0l.225.211c.51.5,1.009.967,1.527,1.432a67.788,67.788,0,0,0,12.507,8.989c.52-.874,1.058-1.81,1.63-2.844.485-.869.987-1.8,1.591-2.947a61.182,61.182,0,0,1-6.332-4.075,60.1,60.1,0,0,1-6.47-5.464c-.349-.331-.7-.687-1.022-1.018l-.2-.192a60.324,60.324,0,0,1-4.74-5.465c-1.207-1.563-2.379-3.252-3.482-5.019-.672-1.064-1.324-2.188-1.992-3.431-.967-1.814-1.844-3.673-2.609-5.531a60.344,60.344,0,0,1-2.369-6.793l-.028-.107c-.158-.551-.3-1.078-.427-1.607a60.415,60.415,0,0,1-1.482-8.318,59.588,59.588,0,0,1-.368-6.706c0-.5.011-1,.021-1.5l.016-.763.764.009c1.206.066,2.633.153,4.06.29,1.361.107,2.739.249,4.085.42l.671.086-.026.676c-.011.257-.011.526-.011.783a52.568,52.568,0,0,0,2.276,15.269l.288.073V72.8a1.357,1.357,0,0,1-.016.2,51.6,51.6,0,0,0,3.594,8.418c.528.99,1.078,1.936,1.685,2.893a51.577,51.577,0,0,0,5.513,7.334c.027.011.056.022.085.036l.634.27-.119.345a52.475,52.475,0,0,0,5.992,5.5,53.684,53.684,0,0,0,6.074,4.095c.407-.967.811-1.969,1.205-2.989.416-1.083.82-2.188,1.205-3.288a44.339,44.339,0,0,1-6.48-4.777,47.086,47.086,0,0,1-4.855-5c-.561-.679-1.1-1.366-1.64-2.1a45.053,45.053,0,0,1-5-8.654c-.315-.705-.632-1.483-1-2.437l-.049-.142a44.9,44.9,0,0,1-1.866-6.582,45.841,45.841,0,0,1-.9-8.594l-.01-.895.88.16c1.236.224,2.57.5,4.076.852,1.39.309,2.793.657,4.164,1.032l.51.139.032.528a35.432,35.432,0,0,0,1.655,8.733c.355,1.1.767,2.185,1.225,3.237l.061.151a35.983,35.983,0,0,0,3.785,6.589h0l.232.3a33.757,33.757,0,0,0,2.2,2.688,35.641,35.641,0,0,0,5.885,5.21c.258-.977.5-1.956.715-2.922.367-1.615.649-2.972.88-4.232a28.942,28.942,0,0,1-5.573-6.478,22.481,22.481,0,0,1-1.155-1.989,28.2,28.2,0,0,1-2.9-8.5,28.734,28.734,0,0,1-.449-5.062,28.275,28.275,0,0,1,.177-3.164c-1.266-.411-2.541-.8-3.8-1.149s-2.384-.652-3.44-.913c-1.637-.422-3.233-.792-4.751-1.106-.941-.2-1.962-.4-3.128-.617-1.665-.316-3.375-.595-5.087-.829-1.1-.158-2.014-.277-2.876-.372h-.013c-1.622-.205-3.366-.379-5.33-.531-.9-.064-1.8-.116-2.706-.17-2.068-.108-3.8-.16-5.459-.16-.462-.021-.895-.021-1.324-.021-.233,0-.469,0-.7,0a67.516,67.516,0,0,0-.58,7.411c-.01.537-.021,1.078-.021,1.618,0,2.182.1,4.33.3,6.387a68.814,68.814,0,0,0,1.1,7.423h.007l.128.6c.137.7.3,1.392.471,2.062.485,1.97,1.079,3.97,1.769,5.952a67.977,67.977,0,0,0,2.6,6.409q.338.711.691,1.427l.168.32a65.137,65.137,0,0,0,4.007,6.933c.36.551.731,1.092,1.1,1.612a66.577,66.577,0,0,0,4.246,5.453c1.278,1.476,2.645,2.924,4.07,4.31Z" transform="translate(-133.29 -46.39)" fill="#4cc21d"/>
        </g>
      </g>
      <g id="Group_56" data-name="Group 56" transform="translate(48.614 0)">
        <g id="Group_54" data-name="Group 54" transform="translate(0.741 0.737)">
          <path id="Path_67" data-name="Path 67" d="M193.327,109.994a52.067,52.067,0,0,1-7.023-2.031c-.706,1.667-1.465,3.313-2.245,4.938-.385.812-.781,1.613-1.2,2.416-.835,1.646-1.7,3.26-2.609,4.864-.427.769-.877,1.54-1.337,2.3q-1.394,2.39-2.918,4.693c-.492.76-.984,1.507-1.507,2.245a74.438,74.438,0,0,1-7.365-3.592,73.444,73.444,0,0,1-6.874-4.319,74.276,74.276,0,0,1-6.381-5.013q-.594-.514-1.187-1.059h-.01c-1.626-1.485-3.2-3.036-4.693-4.661s-2.93-3.3-4.277-5.046c-.384-.492-.759-.984-1.132-1.486a74.428,74.428,0,0,1-4.532-6.884c-.128-.2-.257-.427-.375-.642a73.374,73.374,0,0,1-3.709-7.375c-.247-.557-.481-1.112-.715-1.678-.835-2.053-1.593-4.137-2.256-6.275q-.962-3.111-1.668-6.329v-.011c-.128-.545-.235-1.079-.341-1.625a75.76,75.76,0,0,1-1.134-8.028q-.3-3.4-.31-6.884c0-.406,0-.823.011-1.23a76.417,76.417,0,0,1,.567-8.189q.433-3.607,1.207-7.109v-.01c.075-.364.162-.727.245-1.091,2.576-.162,5.175-.235,7.794-.247h.63c2.62.011,5.206.086,7.783.235a5.066,5.066,0,0,0,.567.032q3.977.273,7.889.748c.117.011.245.032.363.044a51.153,51.153,0,0,1,3.432-7.953c-1.988-.288-4-.523-6.008-.726-.855-.086-1.709-.171-2.565-.235h-.011c-2.052-.171-4.1-.288-6.178-.374-.823-.032-1.646-.054-2.469-.075q-1.555-.033-3.111-.032c-1.048,0-2.1.01-3.132.032-.822.021-1.646.042-2.469.075-2.074.086-4.126.2-6.179.385-.855.064-1.721.138-2.575.234h-.011a82.9,82.9,0,0,0-2.2,8.627c-.054.235-.1.471-.139.706v.01c-.492,2.5-.866,5.057-1.122,7.632q-.4,4.074-.417,8.253v.257c0,2.661.118,5.3.364,7.9.247,2.715.632,5.4,1.134,8.028a.214.214,0,0,1,.117-.021c-.021.075-.042.15-.075.235v.011c.492,2.6,1.112,5.163,1.85,7.664.47,1.657,1,3.281,1.582,4.9.341.973.715,1.946,1.1,2.907.856,2.139,1.8,4.244,2.833,6.3.224.47.471.941.716,1.41q1.716,3.287,3.7,6.4c.288.449.577.9.876,1.336q1.908,2.87,4.041,5.57c.652.833,1.314,1.646,2,2.448h.011q1.62,1.94,3.4,3.762c1.829,1.925,3.764,3.763,5.762,5.5a.915.915,0,0,1,.182.042.323.323,0,0,0-.054.064c2.042,1.764,4.18,3.432,6.382,5s4.5,3.033,6.862,4.383a81.368,81.368,0,0,0,7.376,3.774c2.31,1.048,4.683,1.988,7.1,2.822.247.086.5.172.749.258q2.387-3.145,4.574-6.415c.117-.171.234-.353.353-.523,1.423-2.149,2.791-4.34,4.084-6.574.117-.2.235-.4.353-.6q1.925-3.334,3.645-6.8c.1-.193.193-.375.289-.567,1.154-2.341,2.255-4.724,3.27-7.141-.224-.2-.438-.395-.663-.577Z" transform="translate(-119.428 -32.299)" fill="#4cc21d"/>
        </g>
        <g id="Group_55" data-name="Group 55" transform="translate(0)">
          <path id="Path_68" data-name="Path 68" d="M177.77,140.148l-1.254-.433c-2.456-.847-4.865-1.806-7.16-2.846a81.782,81.782,0,0,1-7.441-3.807c-2.341-1.334-4.671-2.823-6.921-4.421s-4.411-3.3-6.4-5.015h-.007l-.157-.136c-2.051-1.777-4.006-3.642-5.814-5.545-1.147-1.177-2.247-2.39-3.266-3.6l-.171-.191c-.687-.806-1.348-1.615-2.018-2.471-1.409-1.78-2.782-3.671-4.075-5.616-.29-.425-.575-.868-.859-1.311-1.327-2.074-2.582-4.247-3.757-6.5-.25-.478-.5-.956-.727-1.434-1-1.986-1.966-4.125-2.852-6.341-.45-1.122-.8-2.057-1.112-2.937-.633-1.772-1.156-3.39-1.6-4.94-.661-2.237-1.23-4.542-1.695-6.86l0,0-.1-.548c-.021-.108-.041-.215-.062-.324l-.042-.223c-.517-2.706-.9-5.432-1.144-8.1-.243-2.57-.366-5.251-.366-7.966v-.258c.01-2.8.152-5.6.421-8.325.258-2.592.636-5.166,1.122-7.652l.008-.05c.045-.245.089-.492.145-.738a83.6,83.6,0,0,1,2.218-8.682l.161-.519h.512c.76-.085,1.574-.16,2.563-.233,1.853-.164,3.886-.291,6.2-.386.828-.032,1.654-.054,2.48-.076,2.081-.042,4.183-.042,6.276,0,.83.022,1.658.044,2.484.076,2.252.093,4.275.214,6.187.374l.028,0c.862.064,1.724.151,2.584.235,2.226.225,4.2.465,6.042.732l1.042.152-.5.927a50.358,50.358,0,0,0-3.383,7.838l-.184.555-.581-.052c-.069-.007-.142-.016-.214-.025-.051-.007-.1-.013-.151-.018-2.532-.311-5.165-.561-7.848-.745a6.09,6.09,0,0,1-.621-.036c-2.45-.142-5.054-.22-7.7-.231h-.627c-2.544.01-4.906.079-7.2.212-.036.154-.07.308-.1.462l-.018.094c-.511,2.322-.914,4.69-1.195,7.038a75.841,75.841,0,0,0-.562,8.112c-.01.407-.01.818-.01,1.218,0,2.254.1,4.547.307,6.818a75.749,75.749,0,0,0,1.122,7.952c.1.537.21,1.061.336,1.6l.02.1c.457,2.079,1.006,4.161,1.635,6.19s1.359,4.063,2.234,6.216c.231.556.463,1.106.707,1.657a72.58,72.58,0,0,0,3.674,7.306c.117.214.238.425.358.616a74.371,74.371,0,0,0,4.5,6.834c.37.5.741.984,1.122,1.472,1.327,1.717,2.75,3.4,4.235,5,1.358,1.474,2.85,2.96,4.44,4.424l.223.2q.586.537,1.17,1.043a74.376,74.376,0,0,0,6.323,4.967,75.45,75.45,0,0,0,13.553,7.6c.369-.537.735-1.095,1.148-1.732,1.022-1.55,2-3.117,2.9-4.664.476-.788.922-1.552,1.329-2.284.9-1.6,1.775-3.221,2.594-4.839.4-.768.788-1.551,1.188-2.4.875-1.819,1.6-3.424,2.233-4.911l.274-.647.659.242a51.461,51.461,0,0,0,6.923,2l.214.046.138.137c.224.183.438.376.663.579l.388.351-.2.483c-.965,2.3-2.072,4.712-3.289,7.181l-.29.57c-1.122,2.264-2.356,4.566-3.666,6.837l-.353.6c-1.247,2.153-2.629,4.378-4.107,6.612l-.36.533c-1.422,2.134-2.97,4.3-4.6,6.444ZM150.122,122.99c1.8,1.522,3.72,3.016,5.73,4.45,2.208,1.568,4.5,3.028,6.8,4.341a80.546,80.546,0,0,0,7.313,3.742c2.256,1.023,4.623,1.964,7.037,2.8l.241.083c1.49-1.977,2.911-3.978,4.228-5.952l.17-.253c.064-.094.125-.189.189-.28,1.455-2.2,2.821-4.4,4.054-6.526l.351-.6c1.294-2.245,2.514-4.519,3.623-6.757l.29-.569c1.117-2.266,2.141-4.489,3.045-6.612-.04-.036-.08-.069-.122-.1a52.76,52.76,0,0,1-6.284-1.785c-.574,1.327-1.226,2.75-1.985,4.329-.408.861-.8,1.659-1.208,2.437-.826,1.631-1.709,3.278-2.621,4.887-.413.743-.867,1.524-1.347,2.316-.912,1.56-1.9,3.151-2.933,4.718-.546.841-1.014,1.552-1.522,2.266l-.343.483-.546-.231a75.416,75.416,0,0,1-7.438-3.627,74.275,74.275,0,0,1-6.941-4.36,75.561,75.561,0,0,1-6.442-5.062c-.326-.282-.656-.575-.985-.875l-.223-.193c-1.7-1.555-3.294-3.138-4.738-4.705-1.513-1.632-2.967-3.346-4.317-5.093-.386-.493-.763-.99-1.14-1.5a75.716,75.716,0,0,1-4.58-6.953c-.122-.193-.258-.431-.383-.657a74.141,74.141,0,0,1-3.738-7.439c-.247-.557-.483-1.117-.722-1.689-.892-2.2-1.637-4.27-2.278-6.34-.647-2.094-1.214-4.243-1.684-6.389l-.018-.084c-.122-.526-.224-1.042-.327-1.568a76.593,76.593,0,0,1-1.145-8.107c-.208-2.312-.312-4.651-.312-6.947,0-.413,0-.837.01-1.249a77.439,77.439,0,0,1,.572-8.26c.286-2.374.692-4.77,1.207-7.12l.011-.058c.076-.369.163-.74.25-1.11l.125-.533.548-.035c2.494-.155,5.057-.235,7.836-.248h.633c2.679.011,5.311.091,7.826.238a5.131,5.131,0,0,0,.523.03l.051,0c2.634.181,5.223.424,7.7.723a51.894,51.894,0,0,1,2.8-6.564c-1.523-.206-3.151-.4-4.943-.578-.839-.084-1.679-.167-2.519-.231l-.045,0c-1.9-.158-3.91-.28-6.147-.373-.818-.032-1.639-.054-2.459-.075-2.065-.042-4.154-.041-6.207,0-.816.021-1.636.042-2.456.075-2.293.095-4.3.22-6.142.383-.793.059-1.468.118-2.091.183a82.247,82.247,0,0,0-2.038,8.086c-.05.222-.089.427-.125.629l-.015.087c-.483,2.456-.857,5-1.111,7.563-.264,2.68-.4,5.434-.414,8.183v.253c0,2.67.121,5.3.359,7.83.22,2.42.558,4.884,1.008,7.338h.488l-.269.941c-.008.028-.016.057-.025.085.48,2.5,1.085,4.994,1.8,7.414.433,1.525.946,3.112,1.57,4.857.3.864.65,1.779,1.09,2.881.871,2.177,1.815,4.276,2.807,6.238.228.478.469.939.711,1.4,1.155,2.211,2.388,4.347,3.668,6.348.3.465.577.9.864,1.318,1.275,1.919,2.624,3.776,4.01,5.528.588.751,1.166,1.463,1.762,2.168h0l.232.266c1.041,1.247,2.172,2.5,3.362,3.72,1.738,1.831,3.611,3.621,5.573,5.328.036.01.073.023.112.038l1.049.412Z" transform="translate(-118.764 -31.638)" fill="#4cc21d"/>
        </g>
      </g>
      <g id="Group_59" data-name="Group 59" transform="translate(16.453 18.982)">
        <path id="Path_265262" data-name="Path 265262" d="M112.3,106.218l.008-.007c-.484-.808-.964-1.632-1.426-2.467-.759-1.349-1.5-2.743-2.2-4.143-.234-.457-.469-.929-.7-1.4.6,1.256,1.2,2.448,1.777,3.546C110.6,103.323,111.527,104.92,112.3,106.218Z" transform="translate(-87.85 -42.915)" fill="#4cc21d"/>
        <path id="Path_265263" data-name="Path 265263" d="M146.448,140.537c-1.864-1.208-3.77-2.55-5.664-3.986-.368-.268-.758-.561-1.159-.874-2.164-1.678-4.295-3.456-6.334-5.283l-.308-.285-.019-.016h0c-.287-.261-.582-.531-.881-.821-1.557-1.434-3.122-2.974-4.652-4.578-.6-.626-1.209-1.282-1.8-1.918l-.058-.062c-1.129-1.25-2.28-2.581-3.518-4.07-.681-.822-1.342-1.656-1.965-2.476-.961-1.224-1.914-2.514-2.91-3.942-.587-.813-1.189-1.69-1.9-2.764-.172-.261-.319-.486-.451-.691l-.037-.056h0l.036.056-8.43,4.616c.144.22.288.44.43.654.769,1.187,1.51,2.284,2.266,3.352.71,1.034,1.5,2.13,2.425,3.352.723.961,1.588,2.092,2.521,3.207.8,1.023,1.671,2.071,2.664,3.2.874,1.009,1.782,2.015,2.775,3.076.87.938,1.845,1.951,2.979,3.1.918.918,1.912,1.872,2.956,2.836,1.141,1.08,2.35,2.161,3.592,3.216,1.02.889,1.943,1.657,2.821,2.348a6,6,0,0,0,2.562.769,20.463,20.463,0,0,0,2.572,1.342l.35.25a4.526,4.526,0,0,0,1.117.413,6.294,6.294,0,0,0,1.43.251.541.541,0,0,0,.309-.062c.376-.267.755-.541,1.128-.813a11.693,11.693,0,0,0,3.016-1.438,5.21,5.21,0,0,0,2.194-.711l.789-.64Z" transform="translate(-88.034 -41.697)" fill="#4cc21d"/>
        <path id="Path_265264" data-name="Path 265264" d="M104.313,109.5q-.477-.813-.993-1.722c.335.6.662,1.167.989,1.724Z" transform="translate(-88.391 -41.806)" fill="#4cc21d"/>
        <path id="Path_265265" data-name="Path 265265" d="M102.537,106.391c-.8-1.479-1.571-3.033-2.24-4.424l-.009.008c.367.764.736,1.519,1.1,2.237.575,1.112,1.086,2.071,1.562,2.931C102.807,106.892,102.67,106.639,102.537,106.391Z" transform="translate(-88.742 -42.479)" fill="#4cc21d"/>
        <path id="Path_265266" data-name="Path 265266" d="M160.6,136.049c-2.291-1.359-4.585-2.868-6.817-4.485-1.686-1.218-3.216-2.4-4.674-3.615l-.57-.471c-.391-.327-.743-.624-1.095-.928-2.073-1.811-4.038-3.668-5.839-5.52-.563-.575-1.1-1.139-1.631-1.726-1.387-1.5-2.609-2.912-3.737-4.311-.82-.989-1.648-2.049-2.531-3.241-.758-1.015-1.524-2.09-2.343-3.285-.886-1.313-1.735-2.642-2.6-4.064-.61-1.011-1.211-2.051-1.783-3.087-.781-1.406-1.53-2.852-2.228-4.3-.555-1.12-1.1-2.309-1.674-3.634-.6-1.382-1.118-2.641-1.569-3.848-.671-1.755-1.291-3.547-1.845-5.324-.232-.735-.466-1.522-.7-2.341-.764-2.722-1.368-5.278-1.844-7.814l-.032-.172-.006-.025c-.108-.578-.22-1.176-.314-1.777L116.76,72c-.328-1.9-.6-3.893-.8-5.935-.282-2.748-.435-5.5-.457-8.193-.02-.4-.02-.818-.02-1.22v-.037c0-2.341.086-4.693.254-6.99l.071-.975-.956.2c-1.707.353-3.279.715-4.807,1.107-1.174.291-2.346.606-3.486.936-1.406.395-2.855.835-4.432,1.346-1.361.434-2.606.86-3.806,1.3-1.255.447-2.6.958-4.121,1.56a6.087,6.087,0,0,0-1.819,1.627,11.948,11.948,0,0,0-1.064,1.51,10,10,0,0,0-.855,1.813,10.6,10.6,0,0,0-.518,3.255,24.545,24.545,0,0,0,.125,2.716l0,.034c.008.081.015.157.02.229.045.63.1,1.235.161,1.8.2,2.18.481,4.464.85,6.789.2,1.342.406,2.527.623,3.621.252,1.421.569,2.969.971,4.733.254,1.09.6,2.525,1,3.97.322,1.261.707,2.615,1.175,4.14.413,1.334.847,2.658,1.29,3.933.471,1.378.938,2.659,1.429,3.914.449,1.187.953,2.427,1.54,3.789.112.263.221.515.33.768l8.617-4.217c-.237-.553-.473-1.126-.7-1.7-.426-1.009-.819-2-1.166-2.947-.6-1.564-1.191-3.274-1.763-5.081-.258-.769-.512-1.592-.806-2.593-.644-2.2-1.179-4.258-1.636-6.278-.129-.55-.244-1.085-.35-1.636-.571-2.62-1.047-5.359-1.411-8.141l-.021-.155-.009-.066c-.055-.4-.1-.773-.151-1.168-.253-2.119-.446-4.282-.575-6.432.937-.363,1.895-.709,2.923-1.058,1.2-.431,2.412-.836,3.592-1.2.1,2.419.3,4.907.589,7.393.084.825.2,1.719.366,2.815.254,1.85.562,3.651.915,5.352.433,2.24.953,4.457,1.545,6.591.114.484.245.946.373,1.391.74,2.615,1.6,5.225,2.553,7.757l.25.664h.006c.874,2.313,1.851,4.614,2.905,6.839a7.036,7.036,0,0,0,.347.73c1.037,2.2,2.206,4.441,3.473,6.656l.006.01c.162.278.327.565.483.808,1.208,2.092,2.556,4.219,4.009,6.32.156.242.3.451.441.64,1.6,2.292,3.251,4.462,4.9,6.451l.068.081c1.726,2.1,3.551,4.142,5.426,6.058.335.356.682.715,1.032,1.066,1.746,1.734,3.352,3.237,4.907,4.594,1.448,1.28,2.827,2.43,4.215,3.517.691.557,1.411,1.111,2.2,1.7,2.214,1.65,4.543,3.24,6.923,4.728l.479.3,0,0,.414-.382c1.053-.974,2.05-1.931,2.964-2.845,1.14-1.153,2.114-2.165,2.977-3.1l.621-.671Z" transform="translate(-89.94 -48.651)" fill="#4cc21d"/>
        <path id="Path_265267" data-name="Path 265267" d="M103.363,107.852c-.238-.421-.471-.84-.694-1.245.125.226.258.462.392.7.1.181.2.365.3.546Z" transform="translate(-88.466 -41.941)" fill="#4cc21d"/>
      </g>
      <g id="Group_51118" data-name="Group 51118" transform="translate(15.673 73.967)">
        <g id="Group_51118-2" data-name="Group 51118-2">
          <path id="Path_265252" data-name="Path 265252" d="M110.1,97.931l4.295,7.843L93.536,117.195l-4.295-7.842,12.4-6.787" transform="translate(-89.241 -97.931)" fill="#4cc21d"/>
          <path id="Path_265268" data-name="Path 265268" d="M100.631,102.4l8.151-4.464" transform="translate(-87.922 -97.931)" fill="#4cc21d"/>
        </g>
      </g>
      <path id="Path_265251" data-name="Path 265251" d="M128.991,138.867l12.039-6.976,6.546,4.46-6.939,5.127a8.092,8.092,0,0,1-5.111,1.083C132.4,142.257,128.991,138.867,128.991,138.867Z" transform="translate(-68.966 -20.032)" fill="#4cc21d"/>
    </g>
  </g>
</svg>
