<svg xmlns="http://www.w3.org/2000/svg" width="188" height="279.696" viewBox="0 0 188 279.696">
  <g id="logo" transform="translate(92.166 122.662)">
    <g id="Group_51123" data-name="Group 51123" transform="translate(-138.357 88.837)">
      <g id="Group_66" data-name="Group 66" transform="translate(39.334 37.455)">
        <g id="Group_22" data-name="Group 22" transform="translate(7.252 0)">
          <g id="Group_5" data-name="Group 5" transform="translate(0 0)">
            <path id="Path_9" data-name="Path 9" d="M317.427,428.869a6.811,6.811,0,0,1-2.068-.315,6.687,6.687,0,0,1-1.9-.97v-2.513H314.7l.267,1.85a4.607,4.607,0,0,0,1.139.5,4.748,4.748,0,0,0,1.325.178,3.415,3.415,0,0,0,1.37-.246,1.974,1.974,0,0,0,.86-.683,1.886,1.886,0,0,0,.04-1.972,2.16,2.16,0,0,0-.852-.723,6.892,6.892,0,0,0-1.62-.545,7.724,7.724,0,0,1-2.048-.755,3.51,3.51,0,0,1-1.269-1.148,2.8,2.8,0,0,1-.432-1.547,2.889,2.889,0,0,1,.488-1.648,3.351,3.351,0,0,1,1.362-1.147,4.645,4.645,0,0,1,2.036-.42,5.9,5.9,0,0,1,2.185.375,5.383,5.383,0,0,1,1.564.909V420.4h-1.236l-.267-1.68a3.144,3.144,0,0,0-.9-.485,4.02,4.02,0,0,0-1.341-.194,2.832,2.832,0,0,0-1.2.238,1.927,1.927,0,0,0-.808.667,1.752,1.752,0,0,0-.291,1.01,1.523,1.523,0,0,0,.263.889,2.14,2.14,0,0,0,.856.667,8.564,8.564,0,0,0,1.588.537,6.245,6.245,0,0,1,2.816,1.362,2.934,2.934,0,0,1,.958,2.226,2.865,2.865,0,0,1-.509,1.677,3.371,3.371,0,0,1-1.434,1.143A5.314,5.314,0,0,1,317.427,428.869Z" transform="translate(-313.219 -416.525)"/>
            <path id="Path_10" data-name="Path 10" d="M317.168,428.85a7.054,7.054,0,0,1-2.141-.326,6.934,6.934,0,0,1-1.967-1l-.1-.072v-2.877h1.685l.28,1.943a4.413,4.413,0,0,0,.985.418,4.528,4.528,0,0,0,1.258.168,3.191,3.191,0,0,0,1.273-.226,1.741,1.741,0,0,0,.758-.6,1.644,1.644,0,0,0,.035-1.707,1.934,1.934,0,0,0-.76-.639,6.678,6.678,0,0,0-1.562-.523,8.021,8.021,0,0,1-2.113-.781,3.774,3.774,0,0,1-1.353-1.227,3.054,3.054,0,0,1-.47-1.677,3.138,3.138,0,0,1,.529-1.783,3.6,3.6,0,0,1,1.457-1.23,4.9,4.9,0,0,1,2.14-.444,6.174,6.174,0,0,1,2.274.392,5.652,5.652,0,0,1,1.633.951l.083.072v2.7H319.41l-.284-1.788a3.018,3.018,0,0,0-.764-.391,3.8,3.8,0,0,0-1.26-.18,2.607,2.607,0,0,0-1.1.216,1.676,1.676,0,0,0-.709.583,1.506,1.506,0,0,0-.249.875,1.277,1.277,0,0,0,.22.752,1.93,1.93,0,0,0,.763.587,8.316,8.316,0,0,0,1.541.52,6.507,6.507,0,0,1,2.922,1.42,3.18,3.18,0,0,1,1.033,2.4,3.114,3.114,0,0,1-.552,1.814,3.62,3.62,0,0,1-1.534,1.226A5.582,5.582,0,0,1,317.168,428.85Zm-3.726-1.649a6.411,6.411,0,0,0,1.731.864,6.585,6.585,0,0,0,2,.3,5.1,5.1,0,0,0,2.08-.391,3.145,3.145,0,0,0,1.335-1.061,2.64,2.64,0,0,0,.466-1.539,2.68,2.68,0,0,0-.882-2.051,6.053,6.053,0,0,0-2.708-1.3,8.8,8.8,0,0,1-1.634-.554,2.38,2.38,0,0,1-.95-.747,1.766,1.766,0,0,1-.305-1.025,1.993,1.993,0,0,1,.333-1.145,2.174,2.174,0,0,1,.906-.75,3.083,3.083,0,0,1,1.3-.26,4.251,4.251,0,0,1,1.422.208,3.377,3.377,0,0,1,.974.523l.073.058.249,1.569h.79v-2a5.3,5.3,0,0,0-1.412-.8,5.7,5.7,0,0,0-2.1-.358,4.432,4.432,0,0,0-1.932.4,3.122,3.122,0,0,0-1.266,1.065,2.664,2.664,0,0,0-.448,1.514,2.583,2.583,0,0,0,.394,1.418,3.3,3.3,0,0,0,1.185,1.067,7.515,7.515,0,0,0,1.984.731,7.159,7.159,0,0,1,1.677.566,2.4,2.4,0,0,1,.944.808,2.126,2.126,0,0,1-.045,2.236,2.221,2.221,0,0,1-.962.768,3.666,3.666,0,0,1-1.466.266,5.031,5.031,0,0,1-1.392-.187,4.875,4.875,0,0,1-1.2-.527l-.1-.059-.253-1.756h-.787Z" transform="translate(-312.96 -416.266)"/>
          </g>
          <g id="Group_6" data-name="Group 6" transform="translate(9.794 0)">
            <path id="Path_11" data-name="Path 11" d="M338.7,428.869a4.648,4.648,0,0,1-2.044-.436,4.381,4.381,0,0,1-1.54-1.232,5.657,5.657,0,0,1-.969-1.887,8.16,8.16,0,0,1-.335-2.408v-.169a8.17,8.17,0,0,1,.335-2.4,5.7,5.7,0,0,1,.969-1.895,4.358,4.358,0,0,1,1.54-1.236,4.641,4.641,0,0,1,2.044-.436,4.853,4.853,0,0,1,2.117.436,4.2,4.2,0,0,1,1.531,1.236,5.588,5.588,0,0,1,.933,1.895,8.657,8.657,0,0,1,.315,2.4v.169a8.647,8.647,0,0,1-.315,2.408,5.547,5.547,0,0,1-.933,1.887,4.215,4.215,0,0,1-1.531,1.232A4.86,4.86,0,0,1,338.7,428.869Zm0-1.325a2.931,2.931,0,0,0,1.895-.582,3.348,3.348,0,0,0,1.063-1.628,7.88,7.88,0,0,0,.339-2.428v-.186a7.682,7.682,0,0,0-.344-2.412,3.387,3.387,0,0,0-1.07-1.624,2.906,2.906,0,0,0-1.883-.586,2.773,2.773,0,0,0-1.794.59,3.621,3.621,0,0,0-1.115,1.628,6.977,6.977,0,0,0-.38,2.4v.186a7.074,7.074,0,0,0,.38,2.42,3.592,3.592,0,0,0,1.115,1.632A2.787,2.787,0,0,0,338.7,427.544Z" transform="translate(-333.57 -416.525)"/>
            <path id="Path_12" data-name="Path 12" d="M338.44,428.85a4.9,4.9,0,0,1-2.149-.46,4.631,4.631,0,0,1-1.623-1.3,5.936,5.936,0,0,1-1.011-1.966,8.443,8.443,0,0,1-.346-2.478v-.169a8.454,8.454,0,0,1,.346-2.475,5.95,5.95,0,0,1,1.011-1.973,4.61,4.61,0,0,1,1.623-1.3,4.9,4.9,0,0,1,2.149-.46,5.117,5.117,0,0,1,2.221.46,4.453,4.453,0,0,1,1.617,1.307,5.85,5.85,0,0,1,.974,1.975,8.959,8.959,0,0,1,.324,2.471v.169a8.948,8.948,0,0,1-.324,2.475,5.828,5.828,0,0,1-.974,1.967,4.48,4.48,0,0,1-1.617,1.3A5.117,5.117,0,0,1,338.44,428.85Zm0-12.1a4.433,4.433,0,0,0-1.939.412,4.128,4.128,0,0,0-1.455,1.169,5.473,5.473,0,0,0-.928,1.815,7.968,7.968,0,0,0-.325,2.334v.169a7.96,7.96,0,0,0,.325,2.337,5.443,5.443,0,0,0,.928,1.807,4.161,4.161,0,0,0,1.455,1.166,4.433,4.433,0,0,0,1.939.412,4.638,4.638,0,0,0,2.013-.413,3.994,3.994,0,0,0,1.445-1.163,5.34,5.34,0,0,0,.892-1.806,8.47,8.47,0,0,0,.306-2.341v-.169a8.478,8.478,0,0,0-.306-2.337,5.381,5.381,0,0,0-.892-1.814,3.974,3.974,0,0,0-1.445-1.167A4.639,4.639,0,0,0,338.44,416.747Zm0,10.778a3.031,3.031,0,0,1-1.943-.639,3.84,3.84,0,0,1-1.192-1.738,7.351,7.351,0,0,1-.394-2.5v-.186a7.246,7.246,0,0,1,.395-2.486,3.87,3.87,0,0,1,1.191-1.733,3.02,3.02,0,0,1,1.944-.643,3.151,3.151,0,0,1,2.033.639,3.642,3.642,0,0,1,1.148,1.736,7.96,7.96,0,0,1,.356,2.488v.186a8.154,8.154,0,0,1-.351,2.5,3.6,3.6,0,0,1-1.14,1.741A3.179,3.179,0,0,1,338.44,427.525Zm0-9.445a2.552,2.552,0,0,0-1.643.537,3.4,3.4,0,0,0-1.04,1.523,6.776,6.776,0,0,0-.365,2.321v.186a6.876,6.876,0,0,0,.365,2.337,3.375,3.375,0,0,0,1.039,1.526,2.566,2.566,0,0,0,1.643.533,2.712,2.712,0,0,0,1.744-.529,3.127,3.127,0,0,0,.984-1.515,7.667,7.667,0,0,0,.328-2.354v-.186a7.492,7.492,0,0,0-.331-2.336,3.167,3.167,0,0,0-.993-1.512A2.685,2.685,0,0,0,338.44,418.08Z" transform="translate(-333.311 -416.266)"/>
          </g>
          <g id="Group_7" data-name="Group 7" transform="translate(21.649 0)">
            <path id="Path_13" data-name="Path 13" d="M363.768,428.869a5.281,5.281,0,0,1-2.953-.775,4.778,4.778,0,0,1-1.777-2.125,7.526,7.526,0,0,1-.594-3.062v-.169a7.251,7.251,0,0,1,.622-3.075,5.02,5.02,0,0,1,1.786-2.121,4.9,4.9,0,0,1,2.779-.775,5.887,5.887,0,0,1,2.085.355,5.009,5.009,0,0,1,1.568.905v2.537h-1.269l-.17-1.858a2.508,2.508,0,0,0-.594-.339,3.62,3.62,0,0,0-.744-.21,5.07,5.07,0,0,0-.885-.073,3.184,3.184,0,0,0-1.955.594,3.65,3.65,0,0,0-1.212,1.636,6.515,6.515,0,0,0-.412,2.408v.186a6.5,6.5,0,0,0,.44,2.525,3.424,3.424,0,0,0,1.284,1.6,3.685,3.685,0,0,0,2.056.55,4.468,4.468,0,0,0,1.107-.138,3.244,3.244,0,0,0,.9-.355l.178-1.64h1.244V428a5.522,5.522,0,0,1-1.583.643A7.806,7.806,0,0,1,363.768,428.869Z" transform="translate(-358.203 -416.525)"/>
            <path id="Path_14" data-name="Path 14" d="M363.509,428.85a5.537,5.537,0,0,1-3.085-.815,5.045,5.045,0,0,1-1.866-2.23,7.8,7.8,0,0,1-.614-3.159v-.169a7.512,7.512,0,0,1,.644-3.176,5.279,5.279,0,0,1,1.87-2.22,5.153,5.153,0,0,1,2.913-.816,6.136,6.136,0,0,1,2.169.371,5.284,5.284,0,0,1,1.643.95l.081.072v2.886h-1.729l-.179-1.97a2.336,2.336,0,0,0-.456-.245,3.358,3.358,0,0,0-.694-.2,4.8,4.8,0,0,0-.843-.069,2.964,2.964,0,0,0-1.811.547,3.428,3.428,0,0,0-1.132,1.531,6.312,6.312,0,0,0-.4,2.32v.186a6.282,6.282,0,0,0,.422,2.431,3.2,3.2,0,0,0,1.194,1.487,3.468,3.468,0,0,0,1.925.511,4.261,4.261,0,0,0,1.048-.13,3.254,3.254,0,0,0,.73-.27l.188-1.733h1.7v2.927l-.114.071a5.771,5.771,0,0,1-1.652.672A8.08,8.08,0,0,1,363.509,428.85Zm-.137-12.1a4.68,4.68,0,0,0-2.646.735,4.809,4.809,0,0,0-1.7,2.022,7.042,7.042,0,0,0-.6,2.974v.169a7.333,7.333,0,0,0,.573,2.965,4.575,4.575,0,0,0,1.69,2.021,5.071,5.071,0,0,0,2.821.736,7.574,7.574,0,0,0,1.84-.223,5.435,5.435,0,0,0,1.4-.545v-2.176h-.788l-.167,1.543-.1.062a3.508,3.508,0,0,1-.964.383,4.755,4.755,0,0,1-1.166.145,3.941,3.941,0,0,1-2.188-.589,3.681,3.681,0,0,1-1.375-1.7,6.766,6.766,0,0,1-.459-2.618v-.186a6.788,6.788,0,0,1,.429-2.5,3.9,3.9,0,0,1,1.293-1.741,3.432,3.432,0,0,1,2.1-.641,5.343,5.343,0,0,1,.927.077,3.931,3.931,0,0,1,.793.224,2.767,2.767,0,0,1,.65.372l.082.064.159,1.743h.808v-2.185a4.9,4.9,0,0,0-1.412-.791A5.666,5.666,0,0,0,363.372,416.747Z" transform="translate(-357.944 -416.266)"/>
          </g>
          <g id="Group_8" data-name="Group 8" transform="translate(32.493 0.169)">
            <path id="Path_15" data-name="Path 15" d="M380.977,428.882v-1.018l1.317-.226v-9.267l-1.317-.227v-1.026H385.2v1.026l-1.317.227v9.267l1.317.226v1.018Z" transform="translate(-380.736 -416.877)"/>
            <path id="Path_16" data-name="Path 16" d="M385.184,428.863h-4.707V427.4l1.317-.226v-8.862l-1.317-.227v-1.469h4.707v1.469l-1.317.227v8.862l1.317.226Zm-4.225-.481H384.7v-.575l-1.317-.227v-9.672l1.317-.227V417.1h-3.744v.583l1.317.227v9.672l-1.317.227Z" transform="translate(-380.477 -416.618)"/>
          </g>
          <g id="Group_9" data-name="Group 9" transform="translate(38.441 0.169)">
            <path id="Path_17" data-name="Path 17" d="M393.337,428.882v-1.018l1.317-.226v-9.267l-1.317-.227v-1.026h8.71v2.828H400.77l-.178-1.6h-4.347v3.83h4.338v1.252h-4.338v4.258h4.605l.178-1.624H402.3v2.82Z" transform="translate(-393.096 -416.877)"/>
            <path id="Path_18" data-name="Path 18" d="M402.279,428.863h-9.442V427.4l1.317-.226v-8.862l-1.317-.227v-1.469h9.191v3.309H400.3l-.178-1.6h-3.891v3.349h4.339v1.733h-4.339v3.777h4.149l.178-1.624h1.725Zm-8.96-.481H401.8v-2.339h-.812l-.178,1.624h-5.061v-4.739h4.339v-.771h-4.339v-4.311h4.8l.178,1.6h.82V417.1h-8.228v.583l1.317.227v9.672l-1.317.227Z" transform="translate(-392.837 -416.618)"/>
          </g>
          <g id="Group_10" data-name="Group 10" transform="translate(49.689 0.169)">
            <path id="Path_19" data-name="Path 19" d="M419.49,428.882v-1.018l1.317-.226v-9.316H418.14l-.234,1.632h-1.2v-2.836h9.777v2.836h-1.18l-.243-1.632H422.4v9.316l1.317.226v1.018Z" transform="translate(-416.469 -416.877)"/>
            <path id="Path_20" data-name="Path 20" d="M423.7,428.863H418.99V427.4l1.317-.226V418.3h-2.218l-.234,1.632H416.21v-3.317h10.258v3.317H424.84L424.6,418.3h-2.219v8.872l1.317.226Zm-4.225-.481h3.744v-.575l-1.317-.227v-9.758h3.115l.242,1.632h.731V417.1h-9.3v2.355h.747l.234-1.632h3.116v9.758l-1.317.227Z" transform="translate(-416.21 -416.618)"/>
          </g>
          <g id="Group_11" data-name="Group 11" transform="translate(61.342 0.169)">
            <path id="Path_21" data-name="Path 21" d="M444.2,428.882v-1.018l1.317-.226V424.6l-3.62-6.3-.969-.154v-1.026h4.056v1.026l-1.341.154,2.5,4.622.169.315.008-.016.162-.3,2.617-4.622-1.39-.154v-1.026h3.976v1.026l-1.026.154-3.555,6.181v3.159l1.317.226v1.018Z" transform="translate(-440.682 -416.877)"/>
            <path id="Path_22" data-name="Path 22" d="M448.394,428.863h-4.7V427.4l1.317-.226V424.4l-3.531-6.147-1.059-.167v-1.472h4.537V418.1l-1.2.137,2.286,4.233,2.4-4.232L447.2,418.1v-1.482h4.457v1.474l-1.116.167-3.465,6.025v2.892l1.317.226Zm-4.217-.481h3.736v-.575l-1.317-.227v-3.426l3.645-6.338.936-.14V417.1h-3.494v.57l1.539.17-3.169,5.627-.389-.692L443,417.84l1.481-.17V417.1H440.9v.58l.88.14,3.709,6.457v3.3l-1.317.227Z" transform="translate(-440.423 -416.618)"/>
          </g>
          <g id="Group_12" data-name="Group 12" transform="translate(78.126 0)">
            <path id="Path_23" data-name="Path 23" d="M480.688,428.869a4.652,4.652,0,0,1-2.044-.436,4.374,4.374,0,0,1-1.539-1.232,5.66,5.66,0,0,1-.97-1.887,8.158,8.158,0,0,1-.335-2.408v-.169a8.168,8.168,0,0,1,.335-2.4,5.7,5.7,0,0,1,.97-1.895,4.351,4.351,0,0,1,1.539-1.236,4.645,4.645,0,0,1,2.044-.436,4.849,4.849,0,0,1,2.117.436,4.191,4.191,0,0,1,1.531,1.236,5.6,5.6,0,0,1,.934,1.895,8.693,8.693,0,0,1,.315,2.4v.169a8.682,8.682,0,0,1-.315,2.408,5.563,5.563,0,0,1-.934,1.887,4.212,4.212,0,0,1-1.531,1.232A4.856,4.856,0,0,1,480.688,428.869Zm0-1.325a2.932,2.932,0,0,0,1.9-.582,3.353,3.353,0,0,0,1.062-1.628,7.879,7.879,0,0,0,.339-2.428v-.186a7.71,7.71,0,0,0-.343-2.412,3.392,3.392,0,0,0-1.071-1.624,2.907,2.907,0,0,0-1.883-.586,2.772,2.772,0,0,0-1.794.59,3.615,3.615,0,0,0-1.115,1.628,6.977,6.977,0,0,0-.38,2.4v.186a7.074,7.074,0,0,0,.38,2.42,3.587,3.587,0,0,0,1.115,1.632A2.786,2.786,0,0,0,480.688,427.544Z" transform="translate(-475.559 -416.525)"/>
            <path id="Path_24" data-name="Path 24" d="M480.429,428.85a4.9,4.9,0,0,1-2.149-.46,4.63,4.63,0,0,1-1.623-1.3,5.929,5.929,0,0,1-1.011-1.966,8.425,8.425,0,0,1-.346-2.479v-.169a8.449,8.449,0,0,1,.346-2.475,5.951,5.951,0,0,1,1.012-1.973,4.609,4.609,0,0,1,1.623-1.3,4.9,4.9,0,0,1,2.149-.46,5.114,5.114,0,0,1,2.221.46,4.45,4.45,0,0,1,1.618,1.307,5.868,5.868,0,0,1,.974,1.975,8.97,8.97,0,0,1,.324,2.471v.169a8.959,8.959,0,0,1-.324,2.475,5.846,5.846,0,0,1-.974,1.967,4.486,4.486,0,0,1-1.618,1.3A5.115,5.115,0,0,1,480.429,428.85Zm0-12.1a4.434,4.434,0,0,0-1.94.412,4.134,4.134,0,0,0-1.455,1.169,5.478,5.478,0,0,0-.928,1.815,7.951,7.951,0,0,0-.325,2.334v.169a7.958,7.958,0,0,0,.324,2.337,5.456,5.456,0,0,0,.928,1.807,4.161,4.161,0,0,0,1.455,1.166,4.434,4.434,0,0,0,1.94.412,4.641,4.641,0,0,0,2.013-.413,4,4,0,0,0,1.445-1.163,5.36,5.36,0,0,0,.892-1.806,8.481,8.481,0,0,0,.306-2.341v-.169a8.495,8.495,0,0,0-.306-2.338,5.4,5.4,0,0,0-.892-1.813,3.978,3.978,0,0,0-1.445-1.167A4.642,4.642,0,0,0,480.429,416.747Zm0,10.778a3.03,3.03,0,0,1-1.943-.639,3.839,3.839,0,0,1-1.192-1.738,7.337,7.337,0,0,1-.394-2.5v-.186a7.245,7.245,0,0,1,.394-2.486,3.871,3.871,0,0,1,1.191-1.733,3.018,3.018,0,0,1,1.944-.643,3.154,3.154,0,0,1,2.034.639,3.641,3.641,0,0,1,1.148,1.736,7.961,7.961,0,0,1,.356,2.488v.186a8.132,8.132,0,0,1-.351,2.5,3.609,3.609,0,0,1-1.14,1.741A3.18,3.18,0,0,1,480.429,427.525Zm0-9.445a2.518,2.518,0,0,0-1.643.537,3.4,3.4,0,0,0-1.04,1.523,6.765,6.765,0,0,0-.365,2.321v.186a6.864,6.864,0,0,0,.365,2.337,3.373,3.373,0,0,0,1.039,1.526,2.563,2.563,0,0,0,1.643.534,2.712,2.712,0,0,0,1.744-.529,3.133,3.133,0,0,0,.984-1.515,7.665,7.665,0,0,0,.328-2.354v-.186a7.51,7.51,0,0,0-.331-2.337,3.177,3.177,0,0,0-.993-1.511A2.687,2.687,0,0,0,480.429,418.08Z" transform="translate(-475.3 -416.266)"/>
          </g>
          <g id="Group_13" data-name="Group 13" transform="translate(89.544 0.169)">
            <path id="Path_25" data-name="Path 25" d="M499.525,428.882v-1.018l1.317-.226v-9.267l-1.317-.227v-1.026h8.847v2.828H507.1l-.178-1.591h-4.484v4.072h4.307v1.253h-4.307v3.959l1.317.226v1.018Z" transform="translate(-499.284 -416.877)"/>
            <path id="Path_26" data-name="Path 26" d="M503.732,428.863h-4.707V427.4l1.317-.226v-8.862l-1.317-.227v-1.469h9.329v3.309h-1.732l-.178-1.591h-4.028v3.591h4.307v1.734h-4.307v3.516l1.317.226Zm-4.226-.481h3.745v-.575l-1.317-.227v-4.4h4.307v-.771h-4.307v-4.553h4.94l.178,1.591h.821V417.1h-8.366v.583l1.317.227v9.672l-1.317.227Z" transform="translate(-499.025 -416.618)"/>
          </g>
          <g id="Group_14" data-name="Group 14" transform="translate(104.632 0.169)">
            <path id="Path_27" data-name="Path 27" d="M530.877,428.882v-1.018l1.317-.226v-9.267l-1.317-.227v-1.026h8.71v2.828H538.31l-.178-1.6h-4.347v3.83h4.339v1.252h-4.339v4.258h4.606l.177-1.624h1.269v2.82Z" transform="translate(-530.636 -416.877)"/>
            <path id="Path_28" data-name="Path 28" d="M539.818,428.863h-9.441V427.4l1.317-.226v-8.862l-1.317-.227v-1.469h9.191v3.309h-1.733l-.178-1.6h-3.891v3.349h4.339v1.733h-4.339v3.777h4.149l.178-1.624h1.725Zm-8.96-.481h8.479v-2.339h-.812l-.178,1.624h-5.062v-4.739h4.339v-.771h-4.339v-4.311h4.8l.178,1.6h.82V417.1h-8.228v.583l1.317.227v9.672l-1.317.227Z" transform="translate(-530.377 -416.618)"/>
          </g>
          <g id="Group_15" data-name="Group 15" transform="translate(115.881 0.169)">
            <path id="Path_29" data-name="Path 29" d="M557.029,428.882v-1.018l1.317-.226v-9.316H555.68l-.235,1.632h-1.2v-2.836h9.776v2.836h-1.18l-.242-1.632h-2.666v9.316l1.317.226v1.018Z" transform="translate(-554.009 -416.877)"/>
            <path id="Path_30" data-name="Path 30" d="M561.236,428.863h-4.707V427.4l1.317-.226V418.3h-2.217l-.234,1.632H553.75v-3.317h10.257v3.317H562.38l-.243-1.632h-2.218v8.872l1.317.226Zm-4.226-.481h3.745v-.575l-1.317-.227v-9.758h3.115l.243,1.632h.731V417.1h-9.295v2.355h.746l.234-1.632h3.115v9.758l-1.317.227Z" transform="translate(-553.75 -416.618)"/>
          </g>
          <g id="Group_16" data-name="Group 16" transform="translate(127.533 0.169)">
            <path id="Path_31" data-name="Path 31" d="M578.463,428.882v-1.018l1.317-.226v-9.267l-1.317-.227v-1.026h4.225v1.026l-1.317.227v4.064h5.623v-4.064l-1.317-.227v-1.026H589.9v1.026l-1.317.227v9.267l1.317.226v1.018h-4.225v-1.018l1.317-.226v-3.951h-5.623v3.951l1.317.226v1.018Z" transform="translate(-578.222 -416.877)"/>
            <path id="Path_32" data-name="Path 32" d="M589.885,428.863h-4.707V427.4l1.317-.226v-3.507h-5.142v3.507l1.317.226v1.462h-4.706V427.4l1.317-.226v-8.862l-1.317-.227v-1.469h4.706v1.469l-1.317.227v3.62h5.142v-3.62l-1.317-.227v-1.469h4.707v1.469l-1.317.227v8.862l1.317.226Zm-4.225-.481H589.4v-.575l-1.317-.227v-9.672l1.317-.227V417.1h-3.744v.583l1.317.227v4.507h-6.1v-4.507l1.317-.227V417.1h-3.744v.583l1.317.227v9.672l-1.317.227v.575h3.744v-.575l-1.317-.227v-4.393h6.1v4.393l-1.317.227Z" transform="translate(-577.963 -416.618)"/>
          </g>
          <g id="Group_17" data-name="Group 17" transform="translate(140.696 0.169)">
            <path id="Path_33" data-name="Path 33" d="M605.814,428.882v-1.018l1.318-.226v-9.267l-1.318-.227v-1.026h4.226v1.026l-1.317.227v9.267l1.317.226v1.018Z" transform="translate(-605.573 -416.877)"/>
            <path id="Path_34" data-name="Path 34" d="M610.022,428.863h-4.708V427.4l1.318-.226v-8.862l-1.318-.227v-1.469h4.708v1.469l-1.317.227v8.862l1.317.226Zm-4.226-.481h3.745v-.575l-1.317-.227v-9.672l1.317-.227V417.1H605.8v.583l1.318.227v9.672l-1.318.227Z" transform="translate(-605.314 -416.618)"/>
          </g>
          <g id="Group_18" data-name="Group 18" transform="translate(146.556 0)">
            <path id="Path_35" data-name="Path 35" d="M622.878,428.869a4.648,4.648,0,0,1-2.044-.436,4.384,4.384,0,0,1-1.539-1.232,5.642,5.642,0,0,1-.969-1.887,8.158,8.158,0,0,1-.335-2.408v-.169a8.168,8.168,0,0,1,.335-2.4,5.683,5.683,0,0,1,.969-1.895,4.361,4.361,0,0,1,1.539-1.236,4.641,4.641,0,0,1,2.044-.436,4.851,4.851,0,0,1,2.117.436,4.186,4.186,0,0,1,1.531,1.236,5.6,5.6,0,0,1,.933,1.895,8.661,8.661,0,0,1,.315,2.4v.169a8.651,8.651,0,0,1-.315,2.408,5.556,5.556,0,0,1-.933,1.887,4.207,4.207,0,0,1-1.531,1.232A4.858,4.858,0,0,1,622.878,428.869Zm0-1.325a2.931,2.931,0,0,0,1.9-.582,3.347,3.347,0,0,0,1.062-1.628,7.873,7.873,0,0,0,.339-2.428v-.186a7.687,7.687,0,0,0-.343-2.412,3.388,3.388,0,0,0-1.07-1.624,2.908,2.908,0,0,0-1.883-.586,2.771,2.771,0,0,0-1.793.59,3.612,3.612,0,0,0-1.115,1.628,6.955,6.955,0,0,0-.38,2.4v.186a7.052,7.052,0,0,0,.38,2.42,3.583,3.583,0,0,0,1.115,1.632A2.786,2.786,0,0,0,622.878,427.544Z" transform="translate(-617.749 -416.525)"/>
            <path id="Path_36" data-name="Path 36" d="M622.618,428.85a4.9,4.9,0,0,1-2.148-.46,4.626,4.626,0,0,1-1.623-1.3,5.909,5.909,0,0,1-1.012-1.966,8.42,8.42,0,0,1-.346-2.478v-.169a8.445,8.445,0,0,1,.345-2.475,5.95,5.95,0,0,1,1.011-1.973,4.607,4.607,0,0,1,1.623-1.3,4.9,4.9,0,0,1,2.148-.46,5.112,5.112,0,0,1,2.221.46,4.435,4.435,0,0,1,1.617,1.307,5.844,5.844,0,0,1,.974,1.975,8.944,8.944,0,0,1,.324,2.471v.169a8.933,8.933,0,0,1-.324,2.475,5.814,5.814,0,0,1-.974,1.967,4.469,4.469,0,0,1-1.617,1.3A5.113,5.113,0,0,1,622.618,428.85Zm0-12.1a4.432,4.432,0,0,0-1.939.412,4.14,4.14,0,0,0-1.455,1.169,5.472,5.472,0,0,0-.928,1.815,7.965,7.965,0,0,0-.325,2.334v.169a7.977,7.977,0,0,0,.324,2.337,5.444,5.444,0,0,0,.928,1.807,4.166,4.166,0,0,0,1.455,1.166,4.432,4.432,0,0,0,1.939.412,4.636,4.636,0,0,0,2.013-.413,3.984,3.984,0,0,0,1.445-1.163,5.328,5.328,0,0,0,.893-1.806,8.478,8.478,0,0,0,.305-2.341v-.169a8.486,8.486,0,0,0-.305-2.337,5.369,5.369,0,0,0-.893-1.814,3.968,3.968,0,0,0-1.445-1.167A4.638,4.638,0,0,0,622.618,416.747Zm0,10.778a3.031,3.031,0,0,1-1.943-.639,3.836,3.836,0,0,1-1.191-1.738,7.328,7.328,0,0,1-.395-2.5v-.186a7.234,7.234,0,0,1,.395-2.486,3.869,3.869,0,0,1,1.19-1.733,3.019,3.019,0,0,1,1.944-.643,3.153,3.153,0,0,1,2.034.639,3.642,3.642,0,0,1,1.148,1.736,7.96,7.96,0,0,1,.355,2.488v.186a8.148,8.148,0,0,1-.351,2.5,3.6,3.6,0,0,1-1.141,1.741A3.178,3.178,0,0,1,622.618,427.525Zm0-9.445a2.55,2.55,0,0,0-1.643.537,3.4,3.4,0,0,0-1.04,1.523,6.757,6.757,0,0,0-.365,2.321v.186a6.854,6.854,0,0,0,.365,2.337,3.374,3.374,0,0,0,1.039,1.526,2.567,2.567,0,0,0,1.644.533,2.713,2.713,0,0,0,1.744-.529,3.123,3.123,0,0,0,.984-1.515,7.647,7.647,0,0,0,.328-2.354v-.186a7.494,7.494,0,0,0-.33-2.336,3.172,3.172,0,0,0-.993-1.512A2.686,2.686,0,0,0,622.618,418.08Z" transform="translate(-617.49 -416.266)"/>
          </g>
          <g id="Group_19" data-name="Group 19" transform="translate(157.974 0.169)">
            <path id="Path_37" data-name="Path 37" d="M641.716,428.882v-1.018l1.317-.226v-9.267l-1.317-.227v-1.026h5.4a4.8,4.8,0,0,1,2.149.44,3.168,3.168,0,0,1,1.358,1.232,3.906,3.906,0,0,1,0,3.709,3.144,3.144,0,0,1-1.358,1.228,4.84,4.84,0,0,1-2.149.436h-2.5v3.474l1.317.226v1.018Zm2.909-5.963h2.5a2.321,2.321,0,0,0,1.79-.642,2.3,2.3,0,0,0,.594-1.62,2.34,2.34,0,0,0-.594-1.632,2.3,2.3,0,0,0-1.79-.654h-2.5Z" transform="translate(-641.475 -416.877)"/>
            <path id="Path_38" data-name="Path 38" d="M645.923,428.863h-4.707V427.4l1.317-.226v-8.862l-1.317-.227v-1.469h5.646a5.053,5.053,0,0,1,2.256.465,3.417,3.417,0,0,1,1.458,1.325,4.146,4.146,0,0,1,0,3.954,3.4,3.4,0,0,1-1.459,1.322,5.1,5.1,0,0,1-2.255.461h-2.256v3.031l1.317.226Zm-4.225-.481h3.744v-.575l-1.317-.227v-3.917h2.737a4.618,4.618,0,0,0,2.043-.412,2.921,2.921,0,0,0,1.258-1.134,3.669,3.669,0,0,0,0-3.463,2.945,2.945,0,0,0-1.257-1.14,4.586,4.586,0,0,0-2.042-.415H641.7v.583l1.317.227v9.672l-1.317.227Zm5.164-5.482h-2.737v-5.03h2.737a2.534,2.534,0,0,1,1.968.733,2.585,2.585,0,0,1,.657,1.794,2.379,2.379,0,0,1-2.624,2.5Zm-2.256-.481h2.256a2.106,2.106,0,0,0,1.613-.565A2.045,2.045,0,0,0,649,420.4a1.92,1.92,0,0,0-2.143-2.046h-2.256Z" transform="translate(-641.216 -416.618)"/>
          </g>
          <g id="Group_20" data-name="Group 20" transform="translate(168.867 0.169)">
            <path id="Path_39" data-name="Path 39" d="M664.35,428.882v-1.018l1.317-.226v-9.267l-1.317-.227v-1.026h4.226v1.026l-1.317.227v9.267l1.317.226v1.018Z" transform="translate(-664.109 -416.877)"/>
            <path id="Path_40" data-name="Path 40" d="M668.557,428.863H663.85V427.4l1.317-.226v-8.862l-1.317-.227v-1.469h4.707v1.469l-1.317.227v8.862l1.317.226Zm-4.226-.481h3.745v-.575l-1.317-.227v-9.672l1.317-.227V417.1h-3.745v.583l1.317.227v9.672l-1.317.227Z" transform="translate(-663.85 -416.618)"/>
          </g>
          <g id="Group_21" data-name="Group 21" transform="translate(174.726 0.169)">
            <path id="Path_41" data-name="Path 41" d="M676.525,428.882v-1.018l.873-.121,4.113-10.625h1.365l4.04,10.625.865.121v1.018H684.4v-1.018l.888-.154-.776-2.165h-4.71l-.8,2.165.888.154v1.018Zm3.773-4.671h3.733l-1.729-4.783-.1-.267h-.049l-.1.267Z" transform="translate(-676.284 -416.877)"/>
            <path id="Path_42" data-name="Path 42" d="M687.761,428.863H683.9V427.4l.806-.14-.622-1.736h-4.373l-.642,1.736.8.139v1.462h-3.85V427.4l.94-.131,4.121-10.646h1.7l4.049,10.647.931.131Zm-3.377-.481h2.9v-.568l-.8-.112-4.031-10.6h-1.034l-4.1,10.6-.805.112v.568h2.888v-.575l-.974-.168.958-2.594h5.047l.93,2.594-.97.168Zm-.27-4.189h-4.421l2.035-5.531h.386Zm-3.731-.481h3.045l-1.508-4.172Z" transform="translate(-676.025 -416.618)"/>
          </g>
        </g>
        <text id="Representing_Creative_Souls" data-name="Representing Creative Souls" transform="translate(6.857 27.742)" font-size="12" font-family="Roboto-Light, Roboto" font-weight="300" letter-spacing="0.15em"><tspan x="0" y="0">representing creative souls</tspan></text>
      </g>
      <g id="Group_397" data-name="Group 397" transform="translate(75.932 -5.81)">
        <g id="Group_1" data-name="Group 1">
          <path id="Path_1" data-name="Path 1" d="M210.307,447.67a13.481,13.481,0,0,1-7.54-1.98,12.21,12.21,0,0,1-4.539-5.427,19.238,19.238,0,0,1-1.516-7.819v-.433a18.5,18.5,0,0,1,1.589-7.851,12.827,12.827,0,0,1,4.559-5.416,12.5,12.5,0,0,1,7.1-1.98,15.021,15.021,0,0,1,5.322.907,12.793,12.793,0,0,1,4,2.312v6.477h-3.239l-.433-4.745a6.417,6.417,0,0,0-1.516-.866,9.3,9.3,0,0,0-1.9-.537,12.965,12.965,0,0,0-2.259-.186,8.137,8.137,0,0,0-4.993,1.516,9.319,9.319,0,0,0-3.094,4.178,16.634,16.634,0,0,0-1.052,6.148v.474a16.589,16.589,0,0,0,1.123,6.446,8.748,8.748,0,0,0,3.281,4.075,9.41,9.41,0,0,0,5.251,1.4,11.407,11.407,0,0,0,2.825-.351,8.292,8.292,0,0,0,2.291-.907l.453-4.188H219.2v6.519a14.12,14.12,0,0,1-4.044,1.64A19.91,19.91,0,0,1,210.307,447.67Z" transform="translate(-196.097 -416.151)"/>
          <path id="Path_2" data-name="Path 2" d="M210.421,448.4a14.135,14.135,0,0,1-7.877-2.08,12.863,12.863,0,0,1-4.764-5.693,19.915,19.915,0,0,1-1.569-8.066v-.433a19.2,19.2,0,0,1,1.645-8.109,13.484,13.484,0,0,1,4.777-5.669,13.155,13.155,0,0,1,7.438-2.083,15.675,15.675,0,0,1,5.538.946,13.474,13.474,0,0,1,4.193,2.426l.208.183v7.369H215.6l-.46-5.03a5.9,5.9,0,0,0-1.162-.627,8.582,8.582,0,0,0-1.772-.5,12.27,12.27,0,0,0-2.152-.177,7.573,7.573,0,0,0-4.627,1.4,8.765,8.765,0,0,0-2.89,3.909,16.144,16.144,0,0,0-1.008,5.923v.474a16.065,16.065,0,0,0,1.075,6.208,8.18,8.18,0,0,0,3.049,3.8,8.859,8.859,0,0,0,4.917,1.3,10.873,10.873,0,0,0,2.674-.332,8.3,8.3,0,0,0,1.864-.69l.481-4.425h4.343V445.9l-.29.181a14.751,14.751,0,0,1-4.219,1.715A20.635,20.635,0,0,1,210.421,448.4Zm-.35-30.9a11.946,11.946,0,0,0-6.756,1.876,12.273,12.273,0,0,0-4.343,5.162,17.981,17.981,0,0,0-1.532,7.593v.433a18.7,18.7,0,0,0,1.465,7.572,11.672,11.672,0,0,0,4.313,5.16,12.952,12.952,0,0,0,7.2,1.879,19.356,19.356,0,0,0,4.7-.57,13.888,13.888,0,0,0,3.578-1.392v-5.556h-2.012l-.426,3.94-.258.159a8.944,8.944,0,0,1-2.46.978,12.123,12.123,0,0,1-2.976.37,10.061,10.061,0,0,1-5.586-1.5,9.4,9.4,0,0,1-3.512-4.35,17.278,17.278,0,0,1-1.171-6.686v-.474a17.31,17.31,0,0,1,1.095-6.374,9.962,9.962,0,0,1,3.3-4.445,8.768,8.768,0,0,1,5.359-1.638,13.62,13.62,0,0,1,2.366.2,9.972,9.972,0,0,1,2.024.573,7.073,7.073,0,0,1,1.661.95l.21.165.407,4.451h2.063v-5.58a12.491,12.491,0,0,0-3.6-2.019A14.472,14.472,0,0,0,210.071,417.5Z" transform="translate(-196.211 -416.266)"/>
        </g>
        <g id="Group_2" data-name="Group 2" transform="translate(27.733 0.433)">
          <path id="Path_3" data-name="Path 3" d="M219.279,447.157v-2.6l3.362-.578V420.316l-3.362-.579v-2.62h7.468l14.73,23.416.124-.041V420.316l-3.693-.579v-2.62H248.7v2.62l-3.362.579v26.84h-3.714L226.5,423.616l-.124.042v20.321l3.693.578v2.6Z" transform="translate(-218.665 -416.503)"/>
          <path id="Path_4" data-name="Path 4" d="M246.064,447.886H241.4l-14.3-22.254v17.936l3.693.579v3.739H218.779v-3.732l3.362-.578V420.948l-3.362-.579v-3.751H227.2l13.9,22.1V420.956l-3.693-.578v-3.76h12.018v3.751l-3.362.579Zm-3.993-1.229h2.764V419.914l3.362-.579v-1.488h-9.56v1.479l3.693.579v21.146l-1,.332-14.805-23.536h-6.514v1.488l3.362.579v24.7l-3.362.579v1.468h9.56V445.2l-3.693-.579V423.332l1-.338Z" transform="translate(-218.779 -416.618)"/>
        </g>
        <g id="Group_3" data-name="Group 3" transform="translate(61.57)">
          <path id="Path_5" data-name="Path 5" d="M260.411,447.67a13.482,13.482,0,0,1-7.54-1.98,12.21,12.21,0,0,1-4.539-5.427,19.237,19.237,0,0,1-1.517-7.819v-.433a18.5,18.5,0,0,1,1.589-7.851,12.828,12.828,0,0,1,4.559-5.416,12.5,12.5,0,0,1,7.1-1.98,15.022,15.022,0,0,1,5.322.907,12.794,12.794,0,0,1,4,2.312v6.477h-3.239l-.432-4.745a6.416,6.416,0,0,0-1.516-.866,9.3,9.3,0,0,0-1.9-.537,12.966,12.966,0,0,0-2.259-.186,8.137,8.137,0,0,0-4.993,1.516,9.318,9.318,0,0,0-3.094,4.178,16.634,16.634,0,0,0-1.052,6.148v.474a16.588,16.588,0,0,0,1.123,6.446,8.748,8.748,0,0,0,3.281,4.075,9.41,9.41,0,0,0,5.251,1.4,11.406,11.406,0,0,0,2.825-.351,8.293,8.293,0,0,0,2.291-.907l.453-4.188H269.3v6.519a14.123,14.123,0,0,1-4.044,1.64A19.911,19.911,0,0,1,260.411,447.67Z" transform="translate(-246.201 -416.151)"/>
          <path id="Path_6" data-name="Path 6" d="M260.525,448.4a14.135,14.135,0,0,1-7.877-2.08,12.864,12.864,0,0,1-4.764-5.693,19.915,19.915,0,0,1-1.569-8.066v-.433a19.2,19.2,0,0,1,1.646-8.109,13.485,13.485,0,0,1,4.776-5.669,13.156,13.156,0,0,1,7.438-2.083,15.675,15.675,0,0,1,5.538.946,13.474,13.474,0,0,1,4.193,2.426l.208.183v7.369H265.7l-.46-5.03a5.9,5.9,0,0,0-1.163-.627,8.577,8.577,0,0,0-1.772-.5,12.27,12.27,0,0,0-2.152-.177,7.573,7.573,0,0,0-4.627,1.4,8.764,8.764,0,0,0-2.89,3.909,16.142,16.142,0,0,0-1.008,5.923v.474a16.066,16.066,0,0,0,1.075,6.208,8.179,8.179,0,0,0,3.049,3.8,8.859,8.859,0,0,0,4.917,1.3,10.873,10.873,0,0,0,2.674-.332,8.3,8.3,0,0,0,1.864-.69l.48-4.425h4.343V445.9l-.29.181a14.748,14.748,0,0,1-4.219,1.715A20.637,20.637,0,0,1,260.525,448.4Zm-.35-30.9a11.947,11.947,0,0,0-6.756,1.876,12.273,12.273,0,0,0-4.343,5.162,17.981,17.981,0,0,0-1.532,7.593v.433a18.7,18.7,0,0,0,1.465,7.572,11.672,11.672,0,0,0,4.313,5.16,12.952,12.952,0,0,0,7.2,1.879,19.355,19.355,0,0,0,4.7-.57,13.889,13.889,0,0,0,3.578-1.392v-5.556h-2.012l-.426,3.94-.258.159a8.944,8.944,0,0,1-2.46.978,12.124,12.124,0,0,1-2.976.37,10.061,10.061,0,0,1-5.586-1.5,9.4,9.4,0,0,1-3.512-4.35,17.276,17.276,0,0,1-1.171-6.686v-.474a17.311,17.311,0,0,1,1.095-6.374,9.961,9.961,0,0,1,3.3-4.445,8.767,8.767,0,0,1,5.359-1.638,13.621,13.621,0,0,1,2.366.2,9.976,9.976,0,0,1,2.024.573,7.075,7.075,0,0,1,1.661.95l.21.165.407,4.451h2.063v-5.58a12.492,12.492,0,0,0-3.6-2.019A14.471,14.471,0,0,0,260.175,417.5Z" transform="translate(-246.315 -416.266)"/>
        </g>
        <g id="Group_4" data-name="Group 4" transform="translate(89.529 0.433)">
          <path id="Path_7" data-name="Path 7" d="M269.567,447.157v-2.6l3.363-.578V420.316l-3.363-.579v-2.62h8.789l9.676,22.8h.124l9.366-22.8h9.058v2.62l-3.363.579v23.663l3.363.578v2.6H295.789v-2.6l3.548-.578v-21.31l-.1-.022-9.757,23.437h-2.7l-10.089-23.395-.1.021.145,12.565v8.7l3.631.578v2.6Z" transform="translate(-268.952 -416.503)"/>
          <path id="Path_8" data-name="Path 8" d="M307.309,447.886H295.289v-3.737l3.548-.577V425.587L290,446.812h-3.517l-9.14-21.2.112,9.767v8.188l3.631.579v3.738H269.067v-3.732l3.363-.578V420.948l-3.363-.579v-3.751h9.81l9.323,21.965,9.025-21.965h10.084v3.751l-3.363.579v22.628l3.363.578Zm-10.791-1.229h9.562v-1.468l-3.363-.579v-24.7l3.363-.579v-1.488h-8.031l-9.367,22.8h-.942l-9.676-22.8H270.3v1.488l3.363.579v24.7l-3.363.579v1.468h9.562V445.2l-3.631-.579v-9.229l-.15-13.069.988-.194.3.434,9.929,23.024h1.889l9.8-23.528.985.207.1.521v21.832l-3.548.579Z" transform="translate(-269.067 -416.618)"/>
        </g>
      </g>
    </g>
    <g id="Group_51120" data-name="Group 51120" transform="translate(-153.967 -154.3)">
      <g id="Group_47" data-name="Group 47" transform="translate(75.194 35.624)">
        <g id="Group_45" data-name="Group 45" transform="translate(0.878 1.176)">
          <path id="Path_61" data-name="Path 61" d="M176.133,173.763q-1.76,1.607-3.582,3.123-1.99,1.7-4.041,3.315c-1.364,1.084-2.753,2.129-4.156,3.148-1.557,1.148-3.124,2.257-4.73,3.353-1.325.893-2.677,1.772-4.041,2.613-1.364-.841-2.7-1.72-4.029-2.613-1.606-1.083-3.187-2.193-4.741-3.353q-2.1-1.529-4.144-3.135-2.066-1.627-4.054-3.328c-1.211-1.007-2.4-2.053-3.57-3.111-1.364-1.224-2.716-2.487-4.028-3.774-1.021-.982-2.027-1.976-3-3-1.391-1.416-2.742-2.844-4.042-4.31-.853-.93-1.682-1.887-2.5-2.842q-2.026-2.353-3.964-4.806c-.7-.906-1.4-1.811-2.078-2.729q-1.95-2.581-3.774-5.264c-.612-.88-1.211-1.772-1.784-2.665-1.211-1.834-2.383-3.708-3.493-5.61-.548-.9-1.071-1.81-1.581-2.728-1.1-1.912-2.129-3.85-3.123-5.814q-.727-1.415-1.416-2.868c-.943-1.951-1.848-3.915-2.689-5.916-.459-1.045-.893-2.09-1.315-3.136-.776-1.937-1.516-3.887-2.2-5.863-.421-1.174-.829-2.372-1.211-3.57q-.918-2.81-1.721-5.661c-.383-1.351-.753-2.716-1.084-4.08-.459-1.784-.866-3.569-1.249-5.38q-.5-2.313-.917-4.665c-.306-1.722-.587-3.456-.829-5.189-.254-1.709-.471-3.417-.651-5.151-.216-1.912-.382-3.85-.51-5.787-.114-1.594-.2-3.2-.254-4.806-.077-1.874-.116-3.774-.116-5.672,0-1.734.027-3.457.1-5.176,1.033-.51,2.078-1.007,3.123-1.492q3.347-1.549,6.77-2.945c.7-.281,1.414-.562,2.129-.841q3.882-1.531,7.879-2.844c.42-.14.841-.267,1.261-.409q4.361-1.4,8.822-2.549c.039-.37.089-.727.153-1.1q.689-4.878,1.784-9.626c-2.141.5-4.257,1.033-6.362,1.593-1.363.37-2.728.766-4.078,1.174-1.976.574-3.927,1.2-5.865,1.862-1.517.51-3.034,1.045-4.525,1.593q-2.752,1.034-5.456,2.142-2.429.994-4.82,2.065c-2,.893-3.989,1.836-5.953,2.8-1.416.7-2.817,1.428-4.219,2.168q-.4,5.736-.409,11.577v.024q0,5.585.382,11.066c.077,1.135.166,2.27.281,3.405q.325,3.728.829,7.393c.1.74.2,1.466.319,2.206q.631,4.207,1.49,8.338c.077.407.166.8.257,1.211.649,3.034,1.389,6.042,2.2,9,.052.153.089.306.128.459.893,3.148,1.862,6.259,2.933,9.332.064-.013.14-.025.2-.039a1.679,1.679,0,0,0-.165.141c1.07,3.059,2.23,6.093,3.48,9.076.064.166.141.331.2.5q1.838,4.323,3.9,8.5c.116.229.23.471.345.7q2.066,4.112,4.347,8.082c.141.242.281.484.434.727,1.542,2.665,3.162,5.265,4.857,7.828.14.217.281.421.434.637q2.6,3.9,5.444,7.637c.089.128.192.267.293.4q2.966,3.882,6.158,7.573a.418.418,0,0,0,.114-.051c-.025.025-.051.064-.076.089,2.116,2.474,4.334,4.87,6.616,7.2.121.134.249.262.382.383,2.142,2.2,4.36,4.322,6.629,6.386.333.294.651.575.97.869,2.09,1.86,4.231,3.67,6.412,5.4.587.486,1.186.957,1.784,1.416,1.951,1.529,3.94,3,5.953,4.424.931.661,1.874,1.312,2.818,1.949q4.569,3.08,9.369,5.864,4.8-2.772,9.372-5.864c.955-.649,1.9-1.3,2.842-1.963q3.02-2.142,5.928-4.411c.6-.459,1.2-.93,1.8-1.426q3.269-2.6,6.4-5.393c.333-.293.651-.587.982-.88,2.257-2.052,4.475-4.181,6.616-6.374q-4.8-1.95-9.37-4.31Q178.18,171.934,176.133,173.763Z" transform="translate(-75.854 -35.518)" fill="#4cc21d"/>
        </g>
        <g id="Group_46" data-name="Group 46">
          <path id="Path_62" data-name="Path 62" d="M155.8,201.933l-.44-.255c-3.114-1.8-6.283-3.782-9.421-5.9-1.045-.705-1.973-1.348-2.837-1.963-2.2-1.561-4.16-3.015-5.986-4.448-.665-.51-1.257-.979-1.8-1.429-2.116-1.683-4.287-3.513-6.438-5.426-.286-.265-.564-.51-.849-.762l-.117-.1c-2.5-2.271-4.679-4.374-6.677-6.432a5.557,5.557,0,0,1-.406-.406c-2.353-2.4-4.47-4.705-6.443-7l-.224-.253c-2.129-2.46-4.211-5.022-6.191-7.615-.1-.124-.213-.281-.314-.423-1.824-2.386-3.667-4.97-5.456-7.654-.148-.208-.293-.421-.44-.648-1.731-2.616-3.374-5.264-4.879-7.864-.132-.206-.27-.444-.407-.681-1.6-2.8-3.071-5.531-4.4-8.174l-.345-.7c-1.393-2.825-2.712-5.7-3.924-8.553-.039-.1-.071-.173-.1-.246-.04-.093-.079-.186-.114-.279-1.142-2.724-2.243-5.581-3.272-8.483h0l-.253-.723c-1.039-2.987-2.005-6.056-2.947-9.381-.04-.158-.072-.29-.114-.421-.842-3.043-1.587-6.088-2.231-9.095l-.035-.154c-.079-.362-.157-.716-.225-1.079-.572-2.745-1.076-5.567-1.5-8.37-.114-.74-.218-1.472-.321-2.215-.349-2.579-.621-5.01-.833-7.438-.1-1.019-.2-2.142-.282-3.421-.254-3.661-.383-7.4-.383-11.124,0-3.862.137-7.776.409-11.663l.036-.488.432-.229c1.651-.87,3-1.562,4.239-2.178,2.138-1.054,4.1-1.976,5.987-2.82,1.587-.711,3.217-1.409,4.843-2.076,1.744-.717,3.59-1.441,5.481-2.15,1.544-.568,3.074-1.106,4.555-1.6,2.073-.711,4.005-1.323,5.9-1.874,1.472-.444,2.814-.83,4.094-1.176,2.29-.611,4.38-1.134,6.394-1.6l1.372-.318-.315,1.373c-.727,3.164-1.323,6.378-1.771,9.551-.065.375-.113.713-.149,1.063l-.063.609-.593.153c-2.891.744-5.843,1.6-8.773,2.535-.208.071-.427.14-.645.209q-.3.1-.608.2c-2.7.893-5.338,1.844-7.833,2.828l-.208.081c-.643.253-1.285.506-1.916.758-2.255.919-4.52,1.905-6.728,2.926-.946.439-1.812.852-2.635,1.252-.055,1.4-.08,2.881-.08,4.617,0,1.891.039,3.787.114,5.637.048,1.521.13,3.08.253,4.778.133,2.024.3,3.957.507,5.751.177,1.722.389,3.392.645,5.12.232,1.653.5,3.339.825,5.164.278,1.554.585,3.115.911,4.636.414,1.956.82,3.7,1.241,5.345.294,1.208.636,2.495,1.078,4.058.531,1.882,1.106,3.774,1.711,5.627.374,1.17.778,2.361,1.2,3.545.653,1.874,1.369,3.78,2.194,5.835.467,1.159.893,2.176,1.3,3.11.762,1.814,1.635,3.734,2.677,5.885.455.963.927,1.92,1.405,2.85,1.063,2.1,2.077,3.987,3.1,5.778.536.965,1.047,1.848,1.569,2.709,1.063,1.819,2.23,3.692,3.476,5.581.556.865,1.152,1.754,1.772,2.647,1.192,1.758,2.454,3.517,3.754,5.237.676.918,1.386,1.835,2.072,2.72,1.268,1.606,2.593,3.214,3.936,4.77.723.848,1.579,1.843,2.48,2.822,1.194,1.348,2.507,2.746,4.02,4.289.856.9,1.8,1.842,2.978,2.978,1.264,1.239,2.611,2.5,4.007,3.752,1.365,1.232,2.49,2.213,3.545,3.09,1.317,1.127,2.672,2.239,4.036,3.312,1.413,1.108,2.76,2.129,4.117,3.116,1.445,1.078,2.985,2.166,4.716,3.335,1.348.907,2.487,1.65,3.537,2.306,1.128-.7,2.3-1.461,3.549-2.306,1.653-1.128,3.191-2.219,4.7-3.331,1.536-1.119,2.886-2.142,4.13-3.131,1.345-1.057,2.7-2.164,4.017-3.293,1.2-1,2.4-2.041,3.561-3.106l.005-.005c1.392-1.248,2.734-2.5,3.989-3.732l.454-.444.564.29c3.051,1.569,6.179,3.007,9.3,4.277l1.214.494-.914.937c-2.078,2.129-4.318,4.286-6.653,6.41-.178.157-.342.306-.506.452l-.487.436c-2.13,1.9-4.3,3.722-6.434,5.422-.538.444-1.116.9-1.811,1.437-1.866,1.461-3.871,2.953-5.953,4.431-.95.667-1.9,1.32-2.86,1.972-3.143,2.118-6.314,4.1-9.424,5.9Zm-40.266-35.488c2,2.339,4.153,4.681,6.577,7.16.121.133.228.24.346.347,2.013,2.07,4.169,4.148,6.629,6.387l.108.095c.294.261.579.512.864.776,2.117,1.883,4.261,3.69,6.364,5.364.54.446,1.116.9,1.772,1.405,1.812,1.421,3.748,2.858,5.928,4.4.853.608,1.768,1.241,2.8,1.939,2.955,1.991,5.94,3.865,8.877,5.577,2.934-1.709,5.917-3.585,8.878-5.577.95-.647,1.889-1.293,2.829-1.953,2.057-1.46,4.04-2.934,5.892-4.383.683-.524,1.245-.971,1.778-1.413,2.126-1.691,4.267-3.494,6.376-5.372l.475-.427c.169-.152.337-.3.508-.455,1.964-1.787,3.863-3.6,5.655-5.4-2.572-1.08-5.142-2.273-7.663-3.551-1.139,1.1-2.345,2.227-3.587,3.343-1.183,1.08-2.4,2.138-3.61,3.147-1.329,1.138-2.7,2.261-4.06,3.329-1.261,1-2.629,2.04-4.181,3.17-1.522,1.122-3.078,2.225-4.752,3.368-1.45.977-2.782,1.838-4.076,2.635l-.462.285-.463-.285c-1.2-.74-2.488-1.577-4.057-2.632-1.756-1.184-3.319-2.289-4.777-3.377-1.365-.994-2.73-2.025-4.161-3.15-1.383-1.088-2.757-2.217-4.082-3.351-1.064-.884-2.206-1.88-3.587-3.127-1.413-1.268-2.778-2.547-4.056-3.8-1.194-1.15-2.154-2.11-3.017-3.018-1.525-1.552-2.857-2.973-4.062-4.331-.909-.99-1.779-2-2.51-2.856-1.356-1.573-2.7-3.2-3.985-4.832-.7-.9-1.414-1.826-2.1-2.753-1.311-1.734-2.589-3.518-3.792-5.292-.628-.9-1.235-1.807-1.8-2.683-1.259-1.905-2.443-3.807-3.514-5.641-.526-.869-1.049-1.771-1.59-2.745-1.035-1.808-2.065-3.723-3.139-5.843-.484-.943-.965-1.916-1.425-2.89-1.051-2.174-1.937-4.122-2.705-5.952-.412-.937-.845-1.971-1.319-3.148-.836-2.08-1.561-4.011-2.221-5.9-.43-1.2-.84-2.408-1.218-3.591-.611-1.871-1.195-3.786-1.73-5.688-.448-1.586-.8-2.891-1.092-4.112-.424-1.654-.837-3.426-1.255-5.405-.33-1.538-.64-3.118-.922-4.693-.33-1.848-.6-3.557-.834-5.223-.262-1.744-.476-3.442-.655-5.181-.206-1.814-.379-3.774-.512-5.82-.124-1.717-.208-3.3-.255-4.836-.077-1.866-.116-3.786-.116-5.7,0-1.979.033-3.637.1-5.215l.023-.519.467-.232c.973-.48,2-.971,3.142-1.5,2.233-1.033,4.523-2.029,6.808-2.961q.96-.385,1.932-.765l.208-.081c2.526-1,5.192-1.957,7.925-2.858.208-.071.418-.136.628-.2s.42-.134.631-.2c2.776-.889,5.562-1.7,8.3-2.416.024-.177.053-.358.085-.544.387-2.741.886-5.53,1.486-8.3-1.575.379-3.213.8-4.97,1.263-1.259.342-2.587.724-4.052,1.166-1.878.546-3.782,1.15-5.833,1.851-1.469.5-2.985,1.027-4.507,1.587-1.868.7-3.7,1.418-5.425,2.13-1.61.659-3.221,1.349-4.794,2.053-1.871.834-3.808,1.747-5.924,2.792-1.115.552-2.322,1.171-3.764,1.928-.248,3.685-.373,7.392-.373,11.026,0,3.7.129,7.406.381,11.028.085,1.261.176,2.365.278,3.377.21,2.41.48,4.816.825,7.364.1.732.2,1.454.317,2.189.415,2.774.914,5.563,1.484,8.293.068.363.142.7.217,1.043l.036.16c.637,2.978,1.376,5.989,2.194,8.955.044.129.089.3.133.479.85,3,1.726,5.808,2.66,8.535l3.276-.647-2.778,2.065c1.018,2.877,2.112,5.71,3.251,8.431.039.1.071.174.1.247.04.092.077.182.113.273,1.187,2.794,2.492,5.641,3.868,8.431l.341.7c1.313,2.613,2.768,5.319,4.325,8.04.15.257.275.475.414.693,1.5,2.6,3.13,5.217,4.847,7.812.138.216.271.409.418.616,1.782,2.671,3.6,5.224,5.425,7.61.1.141.189.265.279.378,1.971,2.581,4.032,5.115,6.137,7.549l-.511.44.035.043Z" transform="translate(-75.194 -34.634)" fill="#4cc21d"/>
          <path id="Path_265261" data-name="Path 265261" d="M104.784,133.47a.431.431,0,0,0-.081.044l.169.21Z" transform="translate(-65.437 -1.956)" fill="#4cc21d"/>
        </g>
      </g>
      <g id="Group_50" data-name="Group 50" transform="translate(194.746 37.384)">
        <g id="Group_48" data-name="Group 48" transform="translate(0.882 1.011)">
          <path id="Path_63" data-name="Path 63" d="M205.2,50.509c-1.391-.74-2.792-1.453-4.207-2.154q-2.944-1.473-5.967-2.8c-1.593-.727-3.187-1.414-4.806-2.077h-.012c-1.8-.74-3.621-1.454-5.457-2.129-1.492-.562-3.009-1.1-4.525-1.607-1.937-.649-3.888-1.275-5.864-1.86-1.352-.408-2.716-.79-4.08-1.16a44.168,44.168,0,0,0-4.576,8.032v.013q.1.535.153,1.07,4.453,1.148,8.821,2.563c.422.128.842.267,1.263.407,2.665.868,5.291,1.824,7.879,2.83.713.281,1.428.562,2.129.842q3.421,1.415,6.769,2.957h.012c1.046.486,2.08.969,3.111,1.48.077,1.721.1,3.456.1,5.188q0,2.85-.114,5.661c-.051,1.619-.14,3.225-.256,4.82-.128,1.937-.294,3.862-.511,5.774q-.267,2.6-.649,5.163c-.242,1.735-.51,3.456-.829,5.176-.279,1.567-.585,3.136-.917,4.679-.37,1.8-.79,3.6-1.249,5.368-.331,1.364-.7,2.741-1.083,4.092a42.655,42.655,0,0,0,9.382,2.371c.039-.153.089-.319.128-.484q1.223-4.437,2.206-8.975c.088-.407.177-.829.267-1.237.56-2.74,1.058-5.519,1.478-8.311.114-.74.217-1.48.331-2.23.331-2.436.612-4.9.816-7.369.114-1.135.2-2.27.281-3.417q.381-5.489.382-11.066V62.1Q205.6,56.246,205.2,50.509Z" transform="translate(-165.703 -36.716)" fill="#4cc21d"/>
        </g>
        <g id="Group_49" data-name="Group 49" transform="translate(0 0)">
          <path id="Path_64" data-name="Path 64" d="M200.6,106.432l-.782-.108a43.678,43.678,0,0,1-9.575-2.42l-.753-.287.22-.776c.426-1.506.777-2.834,1.074-4.061.471-1.815.889-3.607,1.244-5.337.321-1.5.628-3.059.913-4.656.287-1.552.556-3.232.824-5.143.254-1.706.471-3.43.647-5.131.208-1.831.373-3.707.507-5.743.124-1.711.206-3.276.254-4.789.076-1.866.113-3.758.113-5.631,0-1.713-.025-3.233-.08-4.629-.838-.409-1.667-.8-2.452-1.16l-.184-.078c-2.15-1-4.354-1.959-6.734-2.945-.691-.277-1.4-.556-2.116-.836-2.8-1.088-5.36-2.009-7.829-2.813l-.059-.019c-.4-.132-.79-.263-1.187-.383-2.874-.933-5.826-1.791-8.785-2.552l-.591-.153-.065-.605q-.054-.5-.145-1.011l-.013-.153v-.185l.075-.184a45.162,45.162,0,0,1,4.668-8.191l.357-.5.588.16c1.585.43,2.889.8,4.1,1.167,1.851.55,3.779,1.162,5.891,1.87,1.6.539,3.135,1.083,4.555,1.617,1.726.635,3.518,1.333,5.328,2.076l.165.063c1.653.677,3.236,1.361,4.838,2.092,2.084.923,4.1,1.874,5.995,2.818,1.555.772,2.939,1.48,4.226,2.165l.431.229.033.487c.273,3.889.411,7.808.411,11.65,0,3.731-.13,7.475-.385,11.14-.086,1.3-.177,2.4-.283,3.444-.193,2.349-.46,4.774-.818,7.4-.056.369-.106.719-.158,1.067-.057.394-.114.786-.176,1.179-.415,2.749-.916,5.561-1.486,8.354l-.271,1.248c-.636,2.962-1.382,6-2.215,9.02-.016.075-.045.182-.075.289Zm-8.978-3.9a42.065,42.065,0,0,0,7.668,1.932c.8-2.925,1.51-5.827,2.12-8.661l.269-1.239c.563-2.752,1.058-5.533,1.468-8.255.061-.391.117-.778.174-1.167.052-.354.1-.708.158-1.066.351-2.579.616-4.974.808-7.308.105-1.042.194-2.118.279-3.4.253-3.627.382-7.329.382-11.008,0-3.651-.126-7.364-.374-11.051-1.148-.608-2.382-1.236-3.752-1.915-1.87-.935-3.864-1.874-5.932-2.789-1.538-.7-3.051-1.356-4.624-2h0l-.173-.067c-1.84-.756-3.666-1.469-5.425-2.117-1.409-.528-2.919-1.066-4.5-1.6-2.09-.7-4-1.307-5.835-1.851-1.047-.315-2.161-.635-3.466-.993a43.284,43.284,0,0,0-4.028,7.138l.04.263c2.8.733,5.589,1.549,8.3,2.427.394.12.805.257,1.215.393,2.549.83,5.141,1.762,7.973,2.864q1.08.423,2.137.845c2.315.957,4.544,1.929,6.636,2.894h0l.189.081c.989.459,2.054.957,3.13,1.489l.467.23.023.52c.071,1.562.1,3.272.1,5.227,0,1.9-.039,3.815-.116,5.7-.048,1.528-.132,3.115-.255,4.846-.136,2.058-.3,3.961-.514,5.811-.176,1.718-.4,3.469-.653,5.193-.27,1.928-.543,3.634-.834,5.205-.287,1.61-.6,3.195-.922,4.7-.361,1.751-.784,3.571-1.259,5.4C192.241,100.228,191.953,101.325,191.618,102.536Z" transform="translate(-165.04 -35.956)" fill="#4cc21d"/>
        </g>
      </g>
      <g id="Group_53" data-name="Group 53" transform="translate(152.498 51.267)">
        <g id="Group_51" data-name="Group 51" transform="translate(0.88 0.881)">
          <path id="Path_65" data-name="Path 65" d="M154.171,48.086c-2.117-.267-4.258-.471-6.4-.637-1.083-.076-2.168-.14-3.251-.2-2.18-.114-4.36-.192-6.553-.192-.522-.027-1.594.4-2.117.4s-1.8,6-1.872,9.28c-.013.651-.027,1.3-.027,1.951,0,2.6.114,5.163.358,7.7a82.609,82.609,0,0,0,1.478,9.65h.013c.165.842.357,1.683.574,2.512q.9,3.653,2.129,7.164a81.581,81.581,0,0,0,3.135,7.726c.331.7.676,1.4,1.021,2.1h.012A78.716,78.716,0,0,0,147.5,103.9q.653,1,1.34,1.952a79.851,79.851,0,0,0,5.111,6.564q2.467,2.85,5.163,5.444h.013c.612.6,1.223,1.174,1.848,1.735A81.676,81.676,0,0,0,176.8,130.835c.829-1.364,1.618-2.741,2.4-4.144s1.554-2.856,2.307-4.3a71.794,71.794,0,0,1-8.21-5.213,70.809,70.809,0,0,1-7.623-6.438c-.484-.459-.957-.945-1.428-1.428h-.013a73.069,73.069,0,0,1-9.688-12.354c-.829-1.313-1.606-2.665-2.347-4.041-1.122-2.1-2.154-4.283-3.072-6.515a70.892,70.892,0,0,1-2.792-8.006v-.012c-.192-.663-.369-1.327-.535-2a71.164,71.164,0,0,1-1.747-9.8,70,70,0,0,1-.432-7.9c0-.6.013-1.211.024-1.811,1.607.089,3.214.193,4.806.345,1.619.128,3.239.293,4.845.5-.012.318-.012.651-.012.969a63.51,63.51,0,0,0,2.906,18.956.657.657,0,0,1,.153.027.957.957,0,0,1-.051.281,62.074,62.074,0,0,0,4.426,10.416c.637,1.2,1.312,2.359,2.039,3.506a62.346,62.346,0,0,0,6.821,9.038,1.875,1.875,0,0,1,.255.089.536.536,0,0,1-.052.128,63.2,63.2,0,0,0,7.613,7.05,64.4,64.4,0,0,0,8.21,5.444c.637-1.478,1.249-2.983,1.835-4.5s1.148-3.071,1.683-4.627a52,52,0,0,1-8.21-5.967,55.036,55.036,0,0,1-5.7-5.864c-.663-.8-1.3-1.619-1.924-2.46a52.7,52.7,0,0,1-5.865-10.147c-.42-.945-.8-1.9-1.172-2.869v-.013A52.555,52.555,0,0,1,164,69.3a53.486,53.486,0,0,1-1.057-10.084c1.618.293,3.224.637,4.818,1.006q2.485.555,4.934,1.224a43.009,43.009,0,0,0,2.015,10.633q.649,2.006,1.492,3.939v.012a43.711,43.711,0,0,0,4.946,8.555h.013a41,41,0,0,0,2.676,3.277,43.329,43.329,0,0,0,8.2,7.05c.432-1.569.828-3.136,1.186-4.717.42-1.848.816-3.71,1.147-5.583a33.712,33.712,0,0,1-6.859-7.853,26,26,0,0,1-1.339-2.307,32.71,32.71,0,0,1-3.377-9.88,33.194,33.194,0,0,1-.23-10.276c-1.734-.573-3.48-1.108-5.252-1.606-1.365-.382-2.741-.752-4.13-1.1q-2.83-.729-5.7-1.327c-1.249-.267-2.5-.51-3.748-.74-2.013-.382-4.053-.713-6.106-.994C156.479,48.367,155.332,48.214,154.171,48.086Z" transform="translate(-133.951 -47.052)" fill="#4cc21d"/>
        </g>
        <g id="Group_52" data-name="Group 52" transform="translate(0)">
          <path id="Path_66" data-name="Path 66" d="M177.334,132.229l-.736-.4A82.541,82.541,0,0,1,160.6,120.462c-.56-.5-1.106-1.011-1.657-1.548l-.222-.2c-1.828-1.763-3.583-3.614-5.217-5.5a81.047,81.047,0,0,1-5.168-6.636c-.455-.632-.913-1.3-1.355-1.973a80.011,80.011,0,0,1-4.637-7.965h-.007l-.254-.492c-.354-.721-.695-1.418-1.023-2.114a82.987,82.987,0,0,1-3.174-7.813c-.838-2.415-1.564-4.853-2.152-7.244-.18-.687-.346-1.4-.5-2.13l-.095-.406a83.783,83.783,0,0,1-1.493-9.754c-.241-2.506-.363-5.124-.363-7.782,0-.656.013-1.313.027-1.968a34.282,34.282,0,0,1,.335-6.32,5.366,5.366,0,0,1,1.425-2.73,4.272,4.272,0,0,1,3.152-1.486h.049c1.952,0,4.035.061,6.507.192,1.1.064,2.182.129,3.267.2,2.374.184,4.48.394,6.44.641,1.05.116,2.154.258,3.477.448,2.065.282,4.136.619,6.145,1,1.4.258,2.635.5,3.768.744,1.83.378,3.762.828,5.732,1.335,1.271.314,2.631.675,4.15,1.1,1.751.492,3.531,1.037,5.291,1.618l.692.229-.1.723a32.391,32.391,0,0,0,.222,10.005,31.885,31.885,0,0,0,3.289,9.623,25.477,25.477,0,0,0,1.3,2.238,32.832,32.832,0,0,0,6.688,7.66l.391.326-.089.5c-.3,1.671-.663,3.46-1.155,5.626-.355,1.57-.757,3.171-1.2,4.757l-.323,1.17-1.011-.669a44.328,44.328,0,0,1-8.363-7.2c-.9-1-1.729-2-2.467-2.986h0l-.278-.358a44.826,44.826,0,0,1-5.044-8.725l-.073-.182c-.54-1.253-1.027-2.548-1.449-3.851a43.982,43.982,0,0,1-2.012-10.217c-1.416-.378-2.857-.731-4.29-1.051-1.351-.313-2.577-.576-3.724-.8a52.649,52.649,0,0,0,1.018,8.842,51.7,51.7,0,0,0,2.206,7.735l.055.156c.4,1.039.748,1.892,1.1,2.673a52,52,0,0,0,5.77,9.984c.627.845,1.247,1.638,1.895,2.422a54.091,54.091,0,0,0,5.6,5.767,51.128,51.128,0,0,0,8.073,5.865l.62.365-.234.681c-.535,1.553-1.1,3.119-1.694,4.656-.6,1.558-1.224,3.083-1.848,4.533l-.387.9-.85-.475a65.689,65.689,0,0,1-8.323-5.518,64.253,64.253,0,0,1-7.719-7.151l-.206-.218a63.409,63.409,0,0,1-6.917-9.165c-.742-1.174-1.421-2.339-2.069-3.557a63.126,63.126,0,0,1-4.386-10.255h-.008l-.194-.615A64.344,64.344,0,0,1,152.616,58.9v-.193c-1.327-.157-2.676-.29-4.021-.4-1.337-.128-2.671-.218-3.873-.29-.005.3-.009.589-.009.88a72.72,72.72,0,0,0,2.154,17.491c.16.652.331,1.295.528,1.973l.033.133a70.3,70.3,0,0,0,2.724,7.79c.892,2.165,1.913,4.331,3.038,6.44.774,1.444,1.532,2.748,2.314,3.985,1.287,2.061,2.652,4.028,4.057,5.847a70.072,70.072,0,0,0,5.257,6.1h0l.271.266c.431.443.921.945,1.4,1.4a69.928,69.928,0,0,0,7.538,6.366,71.053,71.053,0,0,0,8.112,5.152l.76.414-.4.769c-.914,1.751-1.63,3.082-2.319,4.317-.853,1.54-1.642,2.9-2.413,4.172ZM159.692,117.2h0l.269.252c.608.595,1.2,1.154,1.822,1.707a80.841,80.841,0,0,0,14.915,10.72c.62-1.042,1.261-2.158,1.944-3.392.579-1.037,1.178-2.142,1.9-3.514a72.961,72.961,0,0,1-7.551-4.859,71.674,71.674,0,0,1-7.716-6.516c-.416-.4-.834-.82-1.219-1.214l-.236-.229a71.943,71.943,0,0,1-5.653-6.517c-1.44-1.864-2.837-3.879-4.153-5.985-.8-1.269-1.58-2.609-2.375-4.092-1.154-2.164-2.2-4.38-3.111-6.6a71.964,71.964,0,0,1-2.825-8.1l-.033-.128c-.189-.657-.355-1.285-.51-1.916a72.051,72.051,0,0,1-1.767-9.92,71.063,71.063,0,0,1-.439-8c0-.592.013-1.2.025-1.79L143,56.2l.912.011c1.438.079,3.14.182,4.842.346,1.623.128,3.267.3,4.871.5l.8.1-.031.806c-.013.306-.013.627-.013.934a62.692,62.692,0,0,0,2.714,18.21l.343.086v.685a1.619,1.619,0,0,1-.019.241,61.533,61.533,0,0,0,4.286,10.04c.629,1.18,1.285,2.309,2.009,3.45a61.51,61.51,0,0,0,6.575,8.746c.032.013.067.027.1.043l.756.322-.142.411a62.583,62.583,0,0,0,7.145,6.561,64.024,64.024,0,0,0,7.244,4.883c.486-1.154.967-2.349,1.437-3.565.5-1.292.978-2.609,1.437-3.921a52.877,52.877,0,0,1-7.728-5.7,56.149,56.149,0,0,1-5.79-5.959c-.669-.81-1.308-1.629-1.956-2.5a53.728,53.728,0,0,1-5.964-10.32c-.375-.841-.753-1.768-1.188-2.906l-.059-.169a53.545,53.545,0,0,1-2.225-7.849,54.67,54.67,0,0,1-1.077-10.249l-.012-1.067,1.05.19c1.474.267,3.064.6,4.861,1.017,1.658.369,3.331.784,4.966,1.231l.608.166.039.629a42.254,42.254,0,0,0,1.973,10.415c.423,1.307.914,2.605,1.461,3.86l.073.18a42.915,42.915,0,0,0,4.514,7.857h0l.277.363a40.254,40.254,0,0,0,2.619,3.206,42.505,42.505,0,0,0,7.018,6.213c.307-1.166.593-2.333.853-3.485.438-1.925.774-3.545,1.05-5.047a34.515,34.515,0,0,1-6.646-7.726,26.809,26.809,0,0,1-1.377-2.373,33.635,33.635,0,0,1-3.464-10.137,34.268,34.268,0,0,1-.535-6.037,33.725,33.725,0,0,1,.212-3.774c-1.51-.49-3.03-.95-4.529-1.371s-2.844-.777-4.1-1.088c-1.952-.5-3.856-.945-5.666-1.319-1.122-.241-2.339-.48-3.73-.736-1.985-.377-4.025-.709-6.066-.989-1.312-.189-2.4-.33-3.43-.443h-.016c-1.935-.245-4.014-.452-6.356-.633-1.073-.076-2.15-.138-3.227-.2-2.466-.129-4.533-.19-6.511-.19-.551-.025-1.067-.025-1.579-.025-.278,0-.559,0-.838,0a80.515,80.515,0,0,0-.692,8.838c-.012.64-.025,1.285-.025,1.929,0,2.6.12,5.164.354,7.617a82.07,82.07,0,0,0,1.317,8.853h.008l.153.711c.164.834.353,1.661.562,2.459.579,2.35,1.287,4.734,2.109,7.1a81.067,81.067,0,0,0,3.1,7.643q.4.848.824,1.7l.2.382a77.679,77.679,0,0,0,4.778,8.269c.43.657.872,1.3,1.317,1.923a79.4,79.4,0,0,0,5.063,6.5c1.524,1.76,3.155,3.488,4.854,5.14Z" transform="translate(-133.29 -46.39)" fill="#4cc21d"/>
        </g>
      </g>
      <g id="Group_56" data-name="Group 56" transform="translate(133.17 31.639)">
        <g id="Group_54" data-name="Group 54" transform="translate(0.884 0.879)">
          <path id="Path_67" data-name="Path 67" d="M207.557,124.955a62.092,62.092,0,0,1-8.375-2.422c-.842,1.988-1.747,3.951-2.677,5.889-.459.969-.931,1.924-1.428,2.881-1,1.963-2.027,3.888-3.111,5.8-.51.917-1.046,1.836-1.594,2.741q-1.663,2.85-3.48,5.6c-.587.906-1.174,1.8-1.8,2.677a88.773,88.773,0,0,1-8.783-4.283,87.585,87.585,0,0,1-8.2-5.151,88.581,88.581,0,0,1-7.61-5.979q-.709-.613-1.416-1.263h-.012c-1.939-1.771-3.812-3.621-5.6-5.558s-3.494-3.94-5.1-6.017c-.458-.587-.9-1.174-1.351-1.772a88.758,88.758,0,0,1-5.405-8.21c-.153-.242-.306-.51-.447-.765a87.506,87.506,0,0,1-4.423-8.8c-.294-.664-.573-1.327-.853-2-1-2.448-1.9-4.934-2.691-7.483q-1.148-3.71-1.989-7.547V83.28c-.153-.649-.281-1.287-.407-1.937a90.347,90.347,0,0,1-1.352-9.574q-.363-4.054-.37-8.21c0-.484,0-.982.013-1.466a91.134,91.134,0,0,1,.676-9.766q.517-4.3,1.44-8.477v-.012c.089-.434.193-.868.293-1.3,3.072-.193,6.171-.281,9.294-.294h.752c3.124.013,6.209.1,9.281.281a6.041,6.041,0,0,0,.676.039q4.742.325,9.408.892c.14.013.293.039.432.052a61,61,0,0,1,4.093-9.485c-2.371-.343-4.768-.624-7.165-.866-1.019-.1-2.039-.2-3.059-.281h-.013c-2.447-.2-4.9-.343-7.368-.446-.982-.039-1.963-.064-2.945-.089q-1.854-.04-3.71-.039c-1.249,0-2.5.012-3.735.039-.981.025-1.963.051-2.945.089-2.474.1-4.921.242-7.369.459-1.019.076-2.052.165-3.071.279h-.013a98.857,98.857,0,0,0-2.625,10.288c-.064.281-.114.562-.166.842v.012c-.587,2.983-1.033,6.03-1.339,9.1q-.477,4.858-.5,9.843v.306c0,3.174.141,6.323.434,9.421.294,3.237.753,6.438,1.352,9.574a.255.255,0,0,1,.14-.025c-.025.089-.051.178-.089.281v.013c.587,3.1,1.327,6.157,2.206,9.14.56,1.976,1.2,3.913,1.887,5.839.407,1.16.853,2.321,1.312,3.466,1.021,2.551,2.142,5.062,3.378,7.51.267.56.562,1.122.854,1.682q2.046,3.92,4.412,7.638c.343.535.688,1.07,1.045,1.593q2.275,3.423,4.82,6.643c.777.994,1.568,1.963,2.383,2.919h.013q1.932,2.313,4.053,4.487c2.181,2.3,4.488,4.488,6.871,6.553a1.091,1.091,0,0,1,.217.051.386.386,0,0,0-.064.076c2.435,2.1,4.985,4.093,7.611,5.967s5.366,3.617,8.183,5.227a97.033,97.033,0,0,0,8.8,4.5c2.754,1.249,5.585,2.371,8.465,3.365.294.1.6.2.893.307q2.846-3.75,5.454-7.65c.14-.2.279-.421.421-.624,1.7-2.563,3.328-5.176,4.87-7.84.14-.242.281-.472.42-.715q2.3-3.976,4.347-8.108c.114-.23.23-.447.345-.676,1.376-2.792,2.689-5.634,3.9-8.516-.267-.242-.523-.471-.79-.688Z" transform="translate(-119.428 -32.299)" fill="#4cc21d"/>
        </g>
        <g id="Group_55" data-name="Group 55" transform="translate(0)">
          <path id="Path_68" data-name="Path 68" d="M189.133,161.043l-1.5-.516c-2.929-1.01-5.8-2.154-8.539-3.394a97.529,97.529,0,0,1-8.874-4.54c-2.792-1.591-5.57-3.366-8.254-5.272-2.692-1.921-5.26-3.933-7.635-5.981h-.008l-.188-.162c-2.446-2.12-4.777-4.343-6.934-6.613-1.368-1.4-2.68-2.85-3.895-4.3l-.2-.228c-.82-.961-1.607-1.925-2.407-2.947-1.681-2.122-3.317-4.378-4.859-6.7-.346-.507-.685-1.035-1.025-1.564-1.582-2.474-3.079-5.064-4.48-7.747-.3-.57-.595-1.14-.868-1.71-1.2-2.369-2.345-4.919-3.4-7.562-.536-1.339-.957-2.454-1.327-3.5-.754-2.113-1.379-4.042-1.9-5.891-.788-2.668-1.466-5.417-2.021-8.181l0,0-.124-.653c-.025-.129-.049-.257-.075-.386l-.051-.266c-.616-3.227-1.075-6.478-1.364-9.66-.29-3.064-.436-6.262-.436-9.5v-.307c.012-3.337.181-6.676.5-9.928.307-3.091.758-6.161,1.339-9.125l.009-.06c.053-.293.106-.587.173-.88a99.7,99.7,0,0,1,2.645-10.354l.192-.619h.611c.906-.1,1.878-.19,3.056-.278,2.21-.2,4.635-.347,7.4-.46.987-.039,1.972-.064,2.958-.09,2.482-.051,4.988-.051,7.485,0,.99.027,1.977.052,2.962.09,2.685.11,5.1.255,7.378.446l.033,0c1.029.076,2.056.18,3.082.281,2.655.269,5.011.555,7.205.873l1.243.181-.593,1.106A60.056,60.056,0,0,0,162.407,44l-.22.661-.693-.063c-.082-.008-.169-.019-.256-.029-.061-.008-.121-.016-.18-.021-3.019-.371-6.16-.669-9.36-.889a7.263,7.263,0,0,1-.741-.043c-2.922-.169-6.028-.262-9.188-.275h-.748c-3.034.012-5.851.094-8.585.253-.043.184-.084.367-.121.551l-.021.112c-.609,2.769-1.09,5.593-1.425,8.394a90.446,90.446,0,0,0-.671,9.674c-.012.486-.012.975-.012,1.453,0,2.688.124,5.422.366,8.131a90.336,90.336,0,0,0,1.339,9.483c.125.64.25,1.265.4,1.905l.024.118c.546,2.479,1.2,4.962,1.949,7.382s1.621,4.845,2.664,7.413c.275.663.552,1.319.844,1.976a86.554,86.554,0,0,0,4.382,8.713c.14.255.283.507.427.735a88.692,88.692,0,0,0,5.37,8.15c.442.592.884,1.174,1.339,1.755,1.582,2.048,3.28,4.05,5.051,5.961,1.619,1.758,3.4,3.53,5.295,5.276l.266.234q.7.641,1.4,1.244a88.7,88.7,0,0,0,7.541,5.924A89.98,89.98,0,0,0,185,147.246c.44-.64.877-1.305,1.369-2.065,1.219-1.848,2.383-3.718,3.46-5.562.568-.939,1.1-1.851,1.585-2.724,1.077-1.9,2.117-3.842,3.094-5.771.476-.915.939-1.85,1.417-2.861,1.043-2.169,1.912-4.084,2.663-5.856l.327-.772.786.289a61.37,61.37,0,0,0,8.257,2.388l.255.055.165.164c.267.218.523.448.79.691l.463.419-.242.576c-1.151,2.738-2.471,5.619-3.923,8.564l-.346.68c-1.339,2.7-2.81,5.445-4.372,8.154l-.42.715c-1.488,2.568-3.135,5.221-4.9,7.885l-.43.636c-1.7,2.545-3.542,5.134-5.482,7.684ZM156.16,140.581c2.142,1.815,4.436,3.6,6.833,5.307,2.633,1.87,5.362,3.611,8.109,5.178a96.055,96.055,0,0,0,8.721,4.463c2.69,1.22,5.513,2.342,8.392,3.336l.287.1c1.776-2.358,3.472-4.744,5.042-7.1l.2-.3c.076-.112.149-.225.225-.334,1.735-2.623,3.364-5.245,4.834-7.783l.419-.712c1.544-2.677,3-5.389,4.321-8.058l.346-.679c1.332-2.7,2.553-5.353,3.631-7.885-.048-.043-.1-.082-.145-.124a62.918,62.918,0,0,1-7.494-2.129c-.684,1.582-1.462,3.28-2.367,5.163-.487,1.027-.958,1.979-1.441,2.906-.985,1.945-2.039,3.909-3.126,5.828-.492.886-1.034,1.818-1.606,2.762-1.087,1.86-2.266,3.758-3.5,5.626-.651,1-1.21,1.851-1.815,2.7l-.408.576-.651-.275a89.938,89.938,0,0,1-8.87-4.326,88.574,88.574,0,0,1-8.278-5.2,90.11,90.11,0,0,1-7.683-6.037c-.389-.337-.782-.685-1.175-1.043l-.266-.23c-2.027-1.855-3.928-3.742-5.65-5.611-1.8-1.947-3.538-3.991-5.148-6.074-.46-.588-.91-1.18-1.36-1.784a90.292,90.292,0,0,1-5.462-8.292c-.145-.23-.307-.514-.456-.784a88.418,88.418,0,0,1-4.458-8.871c-.294-.664-.576-1.332-.861-2.015-1.063-2.621-1.952-5.092-2.717-7.561-.772-2.5-1.448-5.06-2.008-7.619l-.021-.1c-.145-.627-.267-1.243-.39-1.87a91.342,91.342,0,0,1-1.365-9.668c-.247-2.757-.373-5.546-.373-8.285,0-.492,0-1,.012-1.489a92.35,92.35,0,0,1,.683-9.851c.341-2.832.825-5.688,1.44-8.491l.013-.069c.091-.44.194-.882.3-1.324l.149-.636.653-.041c2.974-.185,6.03-.281,9.345-.3h.754c3.195.013,6.334.109,9.333.283a6.119,6.119,0,0,0,.624.036l.061,0c3.142.216,6.229.506,9.177.862a61.887,61.887,0,0,1,3.337-7.828c-1.816-.246-3.758-.474-5.895-.689-1-.1-2-.2-3-.275l-.053,0c-2.263-.189-4.662-.334-7.33-.444-.975-.039-1.955-.064-2.933-.089-2.463-.051-4.954-.049-7.4,0-.973.025-1.951.051-2.929.089-2.734.113-5.131.262-7.325.456-.946.071-1.751.141-2.494.218a98.087,98.087,0,0,0-2.431,9.643c-.06.265-.106.51-.149.75l-.017.1c-.576,2.929-1.022,5.964-1.325,9.019-.315,3.2-.482,6.48-.494,9.759v.3c0,3.184.144,6.326.428,9.338.262,2.886.665,5.824,1.2,8.752h.581l-.321,1.122c-.009.033-.019.068-.029.1.572,2.982,1.293,5.956,2.144,8.842.516,1.819,1.128,3.711,1.872,5.792.362,1.03.776,2.121,1.3,3.436,1.039,2.6,2.165,5.1,3.348,7.44.271.57.559,1.12.848,1.671,1.377,2.637,2.848,5.184,4.374,7.57.357.555.688,1.07,1.03,1.571,1.521,2.289,3.13,4.5,4.782,6.592.7.9,1.39,1.744,2.1,2.585h.005l.277.317c1.241,1.488,2.591,2.979,4.009,4.436,2.073,2.184,4.306,4.318,6.647,6.354.043.012.087.028.133.045l1.251.491Z" transform="translate(-118.764 -31.638)" fill="#4cc21d"/>
        </g>
      </g>
      <g id="Group_59" data-name="Group 59" transform="translate(94.815 54.276)">
        <path id="Path_265262" data-name="Path 265262" d="M113.135,107.762l.009-.008c-.578-.963-1.15-1.947-1.7-2.942-.9-1.609-1.787-3.271-2.621-4.941-.279-.546-.559-1.108-.83-1.673.716,1.5,1.429,2.919,2.12,4.229C111.106,104.309,112.207,106.215,113.135,107.762Z" transform="translate(-83.971 -32.269)" fill="#4cc21d"/>
        <path id="Path_265263" data-name="Path 265263" d="M154.158,146.665c-2.224-1.441-4.5-3.041-6.754-4.753-.439-.319-.9-.669-1.383-1.042-2.58-2-5.122-4.121-7.554-6.3l-.367-.339-.023-.019h0c-.342-.311-.695-.633-1.051-.979-1.856-1.71-3.723-3.546-5.547-5.46-.721-.746-1.442-1.529-2.141-2.287l-.069-.074c-1.347-1.49-2.718-3.078-4.2-4.854-.812-.981-1.6-1.975-2.343-2.953-1.146-1.46-2.282-3-3.47-4.7-.7-.97-1.418-2.016-2.262-3.3-.2-.311-.381-.58-.538-.824l-.044-.067h0l.043.067-10.053,5.5c.172.262.343.524.512.78.917,1.416,1.8,2.724,2.7,4,.846,1.233,1.792,2.54,2.891,4,.862,1.146,1.894,2.495,3.006,3.824.954,1.22,1.993,2.47,3.178,3.82,1.042,1.2,2.125,2.4,3.309,3.669,1.038,1.119,2.2,2.327,3.553,3.7,1.1,1.1,2.281,2.233,3.525,3.382,1.361,1.288,2.8,2.577,4.283,3.835,1.216,1.061,2.317,1.976,3.364,2.8a7.159,7.159,0,0,0,3.055.917,24.4,24.4,0,0,0,3.067,1.6l.418.3a5.4,5.4,0,0,0,1.332.492,7.505,7.505,0,0,0,1.706.3.645.645,0,0,0,.369-.074c.448-.318.9-.645,1.345-.97a13.945,13.945,0,0,0,3.6-1.715,6.213,6.213,0,0,0,2.616-.848l.941-.764Z" transform="translate(-84.496 -28.792)" fill="#4cc21d"/>
        <path id="Path_265264" data-name="Path 265264" d="M104.5,109.827q-.569-.97-1.184-2.053c.4.715.789,1.392,1.179,2.056Z" transform="translate(-85.516 -29.103)" fill="#4cc21d"/>
        <path id="Path_265265" data-name="Path 265265" d="M102.971,107.243c-.95-1.764-1.874-3.617-2.672-5.276l-.011.009c.438.911.878,1.811,1.307,2.668.685,1.327,1.295,2.47,1.863,3.5C103.293,107.84,103.129,107.538,102.971,107.243Z" transform="translate(-86.519 -31.023)" fill="#4cc21d"/>
        <path id="Path_265266" data-name="Path 265266" d="M174.209,152.879c-2.732-1.621-5.468-3.42-8.13-5.349-2.011-1.453-3.835-2.864-5.574-4.311l-.68-.562c-.466-.39-.886-.744-1.305-1.107-2.472-2.16-4.816-4.374-6.963-6.583-.672-.685-1.308-1.359-1.945-2.059-1.654-1.791-3.111-3.473-4.456-5.142-.978-1.179-1.965-2.443-3.018-3.865-.9-1.211-1.818-2.492-2.794-3.917-1.057-1.566-2.069-3.151-3.1-4.846-.728-1.206-1.444-2.446-2.126-3.682-.931-1.677-1.824-3.4-2.657-5.127-.661-1.336-1.315-2.753-2-4.334-.721-1.649-1.333-3.15-1.871-4.589-.8-2.093-1.54-4.23-2.2-6.35-.277-.877-.556-1.815-.834-2.792-.911-3.247-1.631-6.294-2.2-9.318l-.039-.2-.007-.029c-.129-.689-.262-1.4-.374-2.12l-.013-.1c-.391-2.261-.713-4.643-.959-7.078-.337-3.277-.519-6.564-.546-9.771-.024-.482-.024-.975-.024-1.454V58.15c0-2.792.1-5.6.3-8.336l.085-1.163-1.14.236c-2.036.42-3.911.853-5.732,1.32-1.4.347-2.8.723-4.157,1.116-1.677.471-3.405,1-5.285,1.6-1.623.518-3.108,1.026-4.539,1.55-1.5.534-3.1,1.143-4.914,1.86a7.259,7.259,0,0,0-2.169,1.94,14.249,14.249,0,0,0-1.269,1.8,11.924,11.924,0,0,0-1.019,2.162,12.644,12.644,0,0,0-.617,3.881,29.272,29.272,0,0,0,.149,3.239l0,.04c.009.1.017.188.024.273.053.752.118,1.473.192,2.145.233,2.6.574,5.324,1.014,8.1.241,1.6.484,3.014.742,4.318.3,1.7.679,3.541,1.158,5.645.3,1.3.713,3.011,1.19,4.734.385,1.5.844,3.119,1.4,4.937.492,1.591,1.01,3.17,1.538,4.69.562,1.643,1.119,3.171,1.7,4.668.535,1.416,1.136,2.894,1.836,4.519.133.314.263.615.394.915l10.276-5.028c-.282-.66-.564-1.343-.84-2.028-.508-1.2-.977-2.384-1.391-3.514-.712-1.866-1.42-3.9-2.1-6.06-.307-.917-.611-1.9-.961-3.092-.768-2.628-1.406-5.078-1.951-7.487-.154-.656-.291-1.293-.418-1.951-.681-3.124-1.248-6.391-1.683-9.708l-.025-.185-.011-.079c-.065-.475-.125-.922-.18-1.393-.3-2.527-.532-5.107-.685-7.671,1.118-.432,2.259-.845,3.486-1.261,1.436-.514,2.877-1,4.283-1.436.118,2.885.355,5.852.7,8.817.1.983.24,2.051.436,3.357.3,2.206.671,4.354,1.091,6.383.516,2.672,1.136,5.316,1.843,7.86.136.578.293,1.128.444,1.659.882,3.119,1.905,6.231,3.045,9.251l.3.792h.007c1.042,2.758,2.208,5.5,3.465,8.155a8.389,8.389,0,0,0,.414.87c1.236,2.625,2.631,5.3,4.142,7.937l.007.012c.193.331.39.673.576.963,1.441,2.495,3.048,5.031,4.781,7.537.186.289.359.538.526.764,1.911,2.733,3.877,5.321,5.844,7.694l.081.1c2.058,2.51,4.235,4.939,6.471,7.224.4.424.813.853,1.231,1.271,2.082,2.068,4,3.86,5.852,5.478,1.727,1.526,3.372,2.9,5.027,4.194.824.664,1.683,1.325,2.627,2.023,2.64,1.968,5.418,3.864,8.257,5.638l.571.355,0,0,.494-.455c1.256-1.162,2.444-2.3,3.534-3.393,1.36-1.375,2.522-2.581,3.55-3.691l.741-.8Z" transform="translate(-89.94 -48.651)" fill="#4cc21d"/>
        <path id="Path_265267" data-name="Path 265267" d="M103.5,108.092c-.283-.5-.562-1-.828-1.485.149.27.307.551.467.834.118.216.241.435.361.651Z" transform="translate(-85.731 -29.489)" fill="#4cc21d"/>
      </g>
      <g id="Group_51118" data-name="Group 51118" transform="translate(93.885 119.849)">
        <g id="Group_51118-2" data-name="Group 51118-2">
          <path id="Path_265252" data-name="Path 265252" d="M114.117,97.931l5.122,9.353L94.363,120.9l-5.122-9.352,14.783-8.094" transform="translate(-89.241 -97.931)" fill="#4cc21d"/>
          <path id="Path_265268" data-name="Path 265268" d="M100.631,103.255l9.72-5.324" transform="translate(-85.475 -97.931)" fill="#4cc21d"/>
        </g>
      </g>
      <path id="Path_265251" data-name="Path 265251" d="M128.991,140.21l14.358-8.319,7.807,5.318-8.275,6.114a9.651,9.651,0,0,1-6.1,1.292C133.06,144.253,128.991,140.21,128.991,140.21Z" transform="translate(17.787 33.147)" fill="#4cc21d"/>
    </g>
  </g>
</svg>
