<svg xmlns="http://www.w3.org/2000/svg" width="35.013" height="44.005" viewBox="0 0 35.013 44.005">
  <g id="Group_419" data-name="Group 419" transform="translate(1 1)">
    <g id="Group_409" data-name="Group 409" transform="translate(0 0)">
      <path id="Path_266" data-name="Path 266" d="M32.932,52.17a7.483,7.483,0,0,1-.188-2.448H29.82a7.483,7.483,0,0,1-.188,2.448,5.53,5.53,0,0,1-.925,2.01h5.15A5.517,5.517,0,0,1,32.932,52.17Z" transform="translate(-14.774 -14.937)" fill="#4d4d4d"/>
      <g id="Group_401" data-name="Group 401" transform="translate(3.826 19.547)">
        <path id="Path_267" data-name="Path 267" d="M41.136,30.221V37.5c0,4.385-4.053,7.953-9.036,7.953H24.807c-4.983,0-9.036-3.568-9.036-7.953V30.221" transform="translate(-15.771 -30.221)" fill="none"/>
      </g>
      <g id="Group_404" data-name="Group 404">
        <path id="Path_268" data-name="Path 268" d="M37.833,13.307V21.3h-16.2V13.307a8.1,8.1,0,1,1,16.2,0Z" transform="translate(-13.228 -5.204)" fill="#ccc"/>
        <path id="Path_269" data-name="Path 269" d="M40.219,27.64v1.492a1.832,1.832,0,0,1-1.828,1.836H19.231A1.834,1.834,0,0,1,17.4,29.133V27.64A1.839,1.839,0,0,1,19.231,25.8H38.39A1.837,1.837,0,0,1,40.219,27.64Z" transform="translate(-12.301 -9.708)" fill="#4d4d4d"/>
        <path id="Path_270" data-name="Path 270" d="M37.833,32.414v7.478a2.189,2.189,0,0,1-2.086,2.282H23.729a2.2,2.2,0,0,1-2.094-2.282V32.414Z" transform="translate(-13.228 -11.153)" fill="#fc0"/>
        <g id="Group_402" data-name="Group 402" transform="translate(0 16.096)">
          <path id="Path_271" data-name="Path 271" d="M13.477,26.96v2.594a.98.98,0,0,1-.078.4,1.139,1.139,0,0,1-1.078.75h-.289a1.152,1.152,0,0,1-1.156-1.149V26.96A1.154,1.154,0,0,1,12.031,25.8h.289a1.139,1.139,0,0,1,1.141,1.024A.366.366,0,0,1,13.477,26.96Z" transform="translate(-10.875 -25.804)" fill="#272727"/>
          <path id="Path_272" data-name="Path 272" d="M16.676,27.114v3.125H14.1a.98.98,0,0,0,.078-.4V27.247a.366.366,0,0,0-.016-.133Z" transform="translate(-11.581 -26.09)" fill="#4d4d4d"/>
        </g>
        <g id="Group_403" data-name="Group 403" transform="translate(27.918 16.096)">
          <path id="Path_273" data-name="Path 273" d="M49.183,30.239H46.6V27.114h2.516a.366.366,0,0,0-.016.133v2.594A.98.98,0,0,0,49.183,30.239Z" transform="translate(-46.605 -26.09)" fill="#4d4d4d"/>
          <path id="Path_274" data-name="Path 274" d="M52.4,26.96v2.594A1.15,1.15,0,0,1,51.251,30.7h-.3a1.137,1.137,0,0,1-1.07-.75.98.98,0,0,1-.078-.4V26.96a.365.365,0,0,1,.016-.133A1.137,1.137,0,0,1,50.954,25.8h.3A1.152,1.152,0,0,1,52.4,26.96Z" transform="translate(-47.305 -25.804)" fill="#272727"/>
        </g>
      </g>
      <rect id="Rectangle_139" data-name="Rectangle 139" width="22.164" height="2.763" rx="1.381" transform="translate(5.426 39.242)" fill="#16c138"/>
      <g id="Group_408" data-name="Group 408" transform="translate(11.863 5.043)">
        <g id="Group_405" data-name="Group 405">
          <circle id="Ellipse_45" data-name="Ellipse 45" cx="0.774" cy="0.774" r="0.774" fill="#4d4d4d"/>
          <circle id="Ellipse_46" data-name="Ellipse 46" cx="0.774" cy="0.774" r="0.774" transform="translate(0 3.61)" fill="#4d4d4d"/>
          <circle id="Ellipse_47" data-name="Ellipse 47" cx="0.774" cy="0.774" r="0.774" transform="translate(0 7.221)" fill="#4d4d4d"/>
        </g>
        <g id="Group_406" data-name="Group 406" transform="translate(3.871)">
          <circle id="Ellipse_48" data-name="Ellipse 48" cx="0.774" cy="0.774" r="0.774" fill="#4d4d4d"/>
          <circle id="Ellipse_49" data-name="Ellipse 49" cx="0.774" cy="0.774" r="0.774" transform="translate(0 3.61)" fill="#4d4d4d"/>
          <circle id="Ellipse_50" data-name="Ellipse 50" cx="0.774" cy="0.774" r="0.774" transform="translate(0 7.221)" fill="#4d4d4d"/>
        </g>
        <g id="Group_407" data-name="Group 407" transform="translate(7.742)">
          <circle id="Ellipse_51" data-name="Ellipse 51" cx="0.774" cy="0.774" r="0.774" fill="#4d4d4d"/>
          <circle id="Ellipse_52" data-name="Ellipse 52" cx="0.774" cy="0.774" r="0.774" transform="translate(0 3.61)" fill="#4d4d4d"/>
          <circle id="Ellipse_53" data-name="Ellipse 53" cx="0.774" cy="0.774" r="0.774" transform="translate(0 7.221)" fill="#4d4d4d"/>
        </g>
      </g>
    </g>
    <g id="Group_418" data-name="Group 418" transform="translate(0 0)">
      <path id="Path_275" data-name="Path 275" d="M32.932,52.17a7.483,7.483,0,0,1-.188-2.448H29.82a7.483,7.483,0,0,1-.188,2.448,5.53,5.53,0,0,1-.925,2.01h5.15A5.517,5.517,0,0,1,32.932,52.17Z" transform="translate(-14.774 -14.937)" fill="none" stroke="#000" stroke-width="2"/>
      <g id="Group_410" data-name="Group 410" transform="translate(3.826 19.547)">
        <path id="Path_276" data-name="Path 276" d="M41.136,30.221V37.5c0,4.385-4.053,7.953-9.036,7.953H24.807c-4.983,0-9.036-3.568-9.036-7.953V30.221" transform="translate(-15.771 -30.221)" fill="none" stroke="#000" stroke-width="2"/>
      </g>
      <g id="Group_413" data-name="Group 413">
        <path id="Path_277" data-name="Path 277" d="M37.833,13.307V21.3h-16.2V13.307a8.1,8.1,0,1,1,16.2,0Z" transform="translate(-13.228 -5.204)" fill="none" stroke="#000" stroke-width="2"/>
        <path id="Path_278" data-name="Path 278" d="M40.219,27.64v1.492a1.832,1.832,0,0,1-1.828,1.836H19.231A1.834,1.834,0,0,1,17.4,29.133V27.64A1.839,1.839,0,0,1,19.231,25.8H38.39A1.837,1.837,0,0,1,40.219,27.64Z" transform="translate(-12.301 -9.708)" fill="none" stroke="#000" stroke-width="2"/>
        <path id="Path_279" data-name="Path 279" d="M37.833,32.414v7.478a2.189,2.189,0,0,1-2.086,2.282H23.729a2.2,2.2,0,0,1-2.094-2.282V32.414Z" transform="translate(-13.228 -11.153)" fill="none" stroke="#000" stroke-width="2"/>
        <g id="Group_411" data-name="Group 411" transform="translate(0 16.096)">
          <path id="Path_280" data-name="Path 280" d="M13.477,26.96v2.594a.98.98,0,0,1-.078.4,1.139,1.139,0,0,1-1.078.75h-.289a1.152,1.152,0,0,1-1.156-1.149V26.96A1.154,1.154,0,0,1,12.031,25.8h.289a1.139,1.139,0,0,1,1.141,1.024A.366.366,0,0,1,13.477,26.96Z" transform="translate(-10.875 -25.804)" fill="none" stroke="#000" stroke-width="2"/>
          <path id="Path_281" data-name="Path 281" d="M16.676,27.114v3.125H14.1a.98.98,0,0,0,.078-.4V27.247a.366.366,0,0,0-.016-.133Z" transform="translate(-11.581 -26.09)" fill="none" stroke="#000" stroke-width="2"/>
        </g>
        <g id="Group_412" data-name="Group 412" transform="translate(27.918 16.096)">
          <path id="Path_282" data-name="Path 282" d="M49.183,30.239H46.6V27.114h2.516a.366.366,0,0,0-.016.133v2.594A.98.98,0,0,0,49.183,30.239Z" transform="translate(-46.605 -26.09)" fill="none" stroke="#000" stroke-width="2"/>
          <path id="Path_283" data-name="Path 283" d="M52.4,26.96v2.594A1.15,1.15,0,0,1,51.251,30.7h-.3a1.137,1.137,0,0,1-1.07-.75.98.98,0,0,1-.078-.4V26.96a.365.365,0,0,1,.016-.133A1.137,1.137,0,0,1,50.954,25.8h.3A1.152,1.152,0,0,1,52.4,26.96Z" transform="translate(-47.305 -25.804)" fill="none" stroke="#000" stroke-width="2"/>
        </g>
      </g>
      <rect id="Rectangle_140" data-name="Rectangle 140" width="22.164" height="2.763" rx="1.381" transform="translate(5.426 39.242)" fill="none" stroke="#000" stroke-width="2"/>
      <g id="Group_417" data-name="Group 417" transform="translate(11.863 5.043)">
        <g id="Group_414" data-name="Group 414">
          <circle id="Ellipse_54" data-name="Ellipse 54" cx="0.774" cy="0.774" r="0.774" fill="none"/>
          <circle id="Ellipse_55" data-name="Ellipse 55" cx="0.774" cy="0.774" r="0.774" transform="translate(0 3.61)" fill="none"/>
          <circle id="Ellipse_56" data-name="Ellipse 56" cx="0.774" cy="0.774" r="0.774" transform="translate(0 7.221)" fill="none"/>
        </g>
        <g id="Group_415" data-name="Group 415" transform="translate(3.871)">
          <circle id="Ellipse_57" data-name="Ellipse 57" cx="0.774" cy="0.774" r="0.774" fill="none"/>
          <circle id="Ellipse_58" data-name="Ellipse 58" cx="0.774" cy="0.774" r="0.774" transform="translate(0 3.61)" fill="none"/>
          <circle id="Ellipse_59" data-name="Ellipse 59" cx="0.774" cy="0.774" r="0.774" transform="translate(0 7.221)" fill="none"/>
        </g>
        <g id="Group_416" data-name="Group 416" transform="translate(7.742)">
          <circle id="Ellipse_60" data-name="Ellipse 60" cx="0.774" cy="0.774" r="0.774" fill="none"/>
          <circle id="Ellipse_61" data-name="Ellipse 61" cx="0.774" cy="0.774" r="0.774" transform="translate(0 3.61)" fill="none"/>
          <circle id="Ellipse_62" data-name="Ellipse 62" cx="0.774" cy="0.774" r="0.774" transform="translate(0 7.221)" fill="none"/>
        </g>
      </g>
    </g>
    <path id="Path_284" data-name="Path 284" d="M46.6,30.064c0,.042-.009.081-.013.123H46.6Z" transform="translate(-18.683 -10.639)" fill="none" stroke="#000" stroke-linecap="round" stroke-width="2"/>
    <path id="Path_285" data-name="Path 285" d="M17.4,30.064v.123h.013C17.4,30.145,17.4,30.106,17.4,30.064Z" transform="translate(-12.301 -10.639)" fill="none" stroke="#000" stroke-linecap="round" stroke-width="2"/>
    <path id="Path_286" data-name="Path 286" d="M14.7,26.124a6.164,6.164,0,0,1,4.082,1.422,15.133,15.133,0,0,0-.01,6.126c.552,1.953,2.235,3.6,3.881,3.082a95.5,95.5,0,0,1-1.735-12.172,29.783,29.783,0,0,1,.673-10.735,13.841,13.841,0,0,1,7.037-8.537,8.046,8.046,0,0,0-9.346,8V21.3H17.806a1.839,1.839,0,0,0-1.836,1.836v-.813H13.461A1.139,1.139,0,0,0,12.321,21.3h-.289a1.154,1.154,0,0,0-1.156,1.156v2.594A1.152,1.152,0,0,0,12.031,26.2h.289a1.139,1.139,0,0,0,1.078-.75h1.3Z" transform="translate(-10.875 -5.204)" fill="#fcfcfc" opacity="0.5" style="mix-blend-mode: soft-light;isolation: isolate"/>
    <path id="Path_287" data-name="Path 287" d="M46.6,30.064c0,.042-.009.081-.013.123H46.6Z" transform="translate(-18.683 -10.639)" fill="none" stroke="#000" stroke-linecap="round" stroke-width="2"/>
    <path id="Path_288" data-name="Path 288" d="M17.4,30.064v.123h.013C17.4,30.145,17.4,30.106,17.4,30.064Z" transform="translate(-12.301 -10.639)" fill="none" stroke="#000" stroke-linecap="round" stroke-width="2"/>
    <path id="Path_289" data-name="Path 289" d="M46.522,21.3h-.3a1.137,1.137,0,0,0-1.133,1.024H42.576v.813A1.837,1.837,0,0,0,40.747,21.3H39.263V13.307A8.088,8.088,0,0,0,28.176,5.781a14.766,14.766,0,0,1,7.47,8.066c1.234,3.4,1.156,7.132.817,10.735a79.807,79.807,0,0,1-2.106,12.172c2,.52,4.041-1.129,4.712-3.082s.332-4.09-.013-6.126a8.549,8.549,0,0,1,4.793-1.422v-.675h1.306a1.136,1.136,0,0,0,1.07.75h.3a1.15,1.15,0,0,0,1.149-1.149V22.456A1.152,1.152,0,0,0,46.522,21.3Z" transform="translate(-14.658 -5.204)" opacity="0.25" style="mix-blend-mode: multiply;isolation: isolate"/>
  </g>
</svg>
