<svg xmlns="http://www.w3.org/2000/svg" width="40.742" height="40.735" viewBox="0 0 40.742 40.735">
  <g id="Group_60789" data-name="Group 60789" transform="translate(-16.757 1)">
    <g id="Photography" transform="translate(17.757 0)">
      <path id="Path_290" data-name="Path 290" d="M30.055,22.373v-.008a6.476,6.476,0,0,0-12.8,1.367,5.809,5.809,0,0,0,.1,1.091,6.346,6.346,0,0,0,1.158,2.734,6.476,6.476,0,0,0,11.7-3.825A6.25,6.25,0,0,0,30.055,22.373Zm0,0v-.008a6.476,6.476,0,0,0-12.8,1.367,5.809,5.809,0,0,0,.1,1.091,6.346,6.346,0,0,0,1.158,2.734,6.476,6.476,0,0,0,11.7-3.825A6.25,6.25,0,0,0,30.055,22.373ZM23.727,4.361A19.368,19.368,0,1,0,43.1,23.732,19.372,19.372,0,0,0,23.727,4.361Zm0,34.014c-.4,0-.807-.015-1.2-.053a14.642,14.642,0,0,1-13.44-14.59,13.728,13.728,0,0,1,.142-2.01,14.138,14.138,0,0,1,.866-3.324v-.007a14.58,14.58,0,0,1,2.795-4.513l.007-.007a14.214,14.214,0,0,1,1.226-1.2,14.574,14.574,0,0,1,9.607-3.593c.441,0,.882.022,1.315.06a14.48,14.48,0,0,1,4.221,1.024L31,11.017l.008.008a14.242,14.242,0,0,1,3.339,2.622,14.554,14.554,0,0,1,4.026,10.085c0,.471-.022.926-.067,1.383a14.649,14.649,0,0,1-14.583,13.26Zm6.328-16.01a6.476,6.476,0,0,0-12.8,1.367,5.809,5.809,0,0,0,.1,1.091,6.346,6.346,0,0,0,1.158,2.734,6.476,6.476,0,0,0,11.7-3.825,6.25,6.25,0,0,0-.149-1.359Z" transform="translate(-4.356 -4.361)" fill="#152328"/>
      <path id="Path_291" data-name="Path 291" d="M32.7,21.4a6.474,6.474,0,0,0-6.6-1.875L18.29,14.692A14.574,14.574,0,0,1,27.9,11.1c.441,0,.882.022,1.315.06Z" transform="translate(-8.526 -6.377)" fill="#fff"/>
      <path id="Path_292" data-name="Path 292" d="M48.883,27.7c0,.471-.022.926-.067,1.383l-9.353,2.435A6.433,6.433,0,0,0,40.71,27.7a6.25,6.25,0,0,0-.149-1.359v-.008l4.3-8.718A14.554,14.554,0,0,1,48.883,27.7Z" transform="translate(-14.862 -8.327)" fill="#fff"/>
      <path id="Path_293" data-name="Path 293" d="M40.684,43.4A14.6,14.6,0,0,1,29.77,48.281c-.4,0-.807-.015-1.2-.053L24.548,37.464a6.473,6.473,0,0,0,8.748,1.6Z" transform="translate(-10.399 -14.268)" fill="#fff"/>
      <path id="Path_294" data-name="Path 294" d="M19.27,30.177a5.809,5.809,0,0,0,.1,1.091L15.22,40.352A14.567,14.567,0,0,1,11.1,30.177a13.728,13.728,0,0,1,.142-2.01L20.89,25.9A6.459,6.459,0,0,0,19.27,30.177Z" transform="translate(-6.375 -10.806)" fill="#fff"/>
      <path id="Path_295" data-name="Path 295" d="M35.711,29.239a6.477,6.477,0,0,1-11.7,3.825,6.346,6.346,0,0,1-1.158-2.734,5.809,5.809,0,0,1-.1-1.091,6.474,6.474,0,0,1,12.8-1.367v.008A6.25,6.25,0,0,1,35.711,29.239Z" transform="translate(-9.863 -9.868)" fill="none"/>
      <path id="Path_296" data-name="Path 296" d="M26.3,47.061a14.533,14.533,0,0,1-9.324-4.415l4.146-9.084A6.346,6.346,0,0,0,22.283,36.3Z" transform="translate(-8.133 -13.1)" fill="#006daf"/>
      <path id="Path_297" data-name="Path 297" d="M48.089,33.978a14.543,14.543,0,0,1-3.668,8.381l-7.389-4.34a6.451,6.451,0,0,0,1.7-1.606Z" transform="translate(-14.135 -13.224)" fill="#006daf"/>
      <path id="Path_298" data-name="Path 298" d="M43.185,15.689l-4.3,8.718a6.456,6.456,0,0,0-1.524-2.98L33.876,11.184A14.48,14.48,0,0,1,38.1,12.208l1.741.851.008.008A14.242,14.242,0,0,1,43.185,15.689Z" transform="translate(-13.19 -6.403)" fill="#006daf"/>
      <path id="Path_299" data-name="Path 299" d="M24.014,21.061A6.474,6.474,0,0,0,20.951,23l-9.644,2.271a14.138,14.138,0,0,1,.866-3.324v-.007a14.58,14.58,0,0,1,2.795-4.513l.007-.007a14.213,14.213,0,0,1,1.226-1.2Z" transform="translate(-6.436 -7.912)" fill="#006daf"/>
      <path id="Path_300" data-name="Path 300" d="M30.055,22.373v-.008a6.476,6.476,0,0,0-12.8,1.367,5.809,5.809,0,0,0,.1,1.091,6.346,6.346,0,0,0,1.158,2.734,6.476,6.476,0,0,0,11.7-3.825A6.25,6.25,0,0,0,30.055,22.373Zm0,0v-.008a6.476,6.476,0,0,0-12.8,1.367,5.809,5.809,0,0,0,.1,1.091,6.346,6.346,0,0,0,1.158,2.734,6.476,6.476,0,0,0,11.7-3.825A6.25,6.25,0,0,0,30.055,22.373ZM23.727,4.361A19.368,19.368,0,1,0,43.1,23.732,19.372,19.372,0,0,0,23.727,4.361Zm0,34.014c-.4,0-.807-.015-1.2-.053a14.642,14.642,0,0,1-13.44-14.59,13.728,13.728,0,0,1,.142-2.01,14.138,14.138,0,0,1,.866-3.324v-.007a14.58,14.58,0,0,1,2.795-4.513l.007-.007a14.214,14.214,0,0,1,1.226-1.2,14.574,14.574,0,0,1,9.607-3.593c.441,0,.882.022,1.315.06a14.48,14.48,0,0,1,4.221,1.024L31,11.017l.008.008a14.242,14.242,0,0,1,3.339,2.622,14.554,14.554,0,0,1,4.026,10.085c0,.471-.022.926-.067,1.383a14.649,14.649,0,0,1-14.583,13.26Zm6.328-16.01a6.476,6.476,0,0,0-12.8,1.367,5.809,5.809,0,0,0,.1,1.091,6.346,6.346,0,0,0,1.158,2.734,6.476,6.476,0,0,0,11.7-3.825,6.25,6.25,0,0,0-.149-1.359Z" transform="translate(-4.356 -4.361)" fill="none" stroke="#000" stroke-linecap="round" stroke-linejoin="round" stroke-width="2"/>
      <path id="Path_301" data-name="Path 301" d="M32.7,21.4a6.474,6.474,0,0,0-6.6-1.875L18.29,14.692A14.574,14.574,0,0,1,27.9,11.1c.441,0,.882.022,1.315.06Z" transform="translate(-8.526 -6.377)" fill="none" stroke="#3a3434" stroke-linecap="round" stroke-linejoin="round" stroke-width="2"/>
      <path id="Path_302" data-name="Path 302" d="M48.883,27.7c0,.471-.022.926-.067,1.383l-9.353,2.435A6.433,6.433,0,0,0,40.71,27.7a6.25,6.25,0,0,0-.149-1.359v-.008l4.3-8.718A14.554,14.554,0,0,1,48.883,27.7Z" transform="translate(-14.862 -8.327)" fill="none" stroke="#3a3434" stroke-linecap="round" stroke-linejoin="round" stroke-width="2"/>
      <path id="Path_303" data-name="Path 303" d="M40.684,43.4A14.6,14.6,0,0,1,29.77,48.281c-.4,0-.807-.015-1.2-.053L24.548,37.464a6.473,6.473,0,0,0,8.748,1.6Z" transform="translate(-10.399 -14.268)" fill="none" stroke="#3a3434" stroke-linecap="round" stroke-linejoin="round" stroke-width="2"/>
      <path id="Path_304" data-name="Path 304" d="M19.27,30.177a5.809,5.809,0,0,0,.1,1.091L15.22,40.352A14.567,14.567,0,0,1,11.1,30.177a13.728,13.728,0,0,1,.142-2.01L20.89,25.9A6.459,6.459,0,0,0,19.27,30.177Z" transform="translate(-6.375 -10.806)" fill="none" stroke="#3a3434" stroke-linecap="round" stroke-linejoin="round" stroke-width="2"/>
      <path id="Path_305" data-name="Path 305" d="M35.711,29.239a6.477,6.477,0,0,1-11.7,3.825,6.346,6.346,0,0,1-1.158-2.734,5.809,5.809,0,0,1-.1-1.091,6.474,6.474,0,0,1,12.8-1.367v.008A6.25,6.25,0,0,1,35.711,29.239Z" transform="translate(-9.863 -9.868)" fill="none" stroke="#3a3434" stroke-linecap="round" stroke-linejoin="round" stroke-width="2"/>
      <path id="Path_306" data-name="Path 306" d="M26.3,47.061a14.533,14.533,0,0,1-9.324-4.415l4.146-9.084A6.346,6.346,0,0,0,22.283,36.3Z" transform="translate(-8.133 -13.1)" fill="none" stroke="#3a3434" stroke-linecap="round" stroke-linejoin="round" stroke-width="2"/>
      <path id="Path_307" data-name="Path 307" d="M48.089,33.978a14.543,14.543,0,0,1-3.668,8.381l-7.389-4.34a6.451,6.451,0,0,0,1.7-1.606Z" transform="translate(-14.135 -13.224)" fill="none" stroke="#3a3434" stroke-linecap="round" stroke-linejoin="round" stroke-width="2"/>
      <path id="Path_308" data-name="Path 308" d="M43.185,15.689l-4.3,8.718a6.456,6.456,0,0,0-1.524-2.98L33.876,11.184A14.48,14.48,0,0,1,38.1,12.208l1.741.851.008.008A14.242,14.242,0,0,1,43.185,15.689Z" transform="translate(-13.19 -6.403)" fill="none" stroke="#3a3434" stroke-linecap="round" stroke-linejoin="round" stroke-width="2"/>
      <path id="Path_309" data-name="Path 309" d="M24.014,21.061A6.474,6.474,0,0,0,20.951,23l-9.644,2.271a14.138,14.138,0,0,1,.866-3.324v-.007a14.58,14.58,0,0,1,2.795-4.513l.007-.007a14.213,14.213,0,0,1,1.226-1.2Z" transform="translate(-6.436 -7.912)" fill="none" stroke="#3a3434" stroke-linecap="round" stroke-linejoin="round" stroke-width="2"/>
      <path id="Path_310" data-name="Path 310" d="M25.479,43.013a19.364,19.364,0,0,1,0-38.57c-.577-.052-1.161-.083-1.752-.083a19.368,19.368,0,1,0,0,38.735C24.318,43.1,24.9,43.065,25.479,43.013Z" transform="translate(-4.356 -4.361)"/>
      <path id="Path_311" data-name="Path 311" d="M31.4,4.361c-.472,0-.938.023-1.4.056A19.362,19.362,0,0,1,30,43.04c.463.033.93.056,1.4.056a19.368,19.368,0,1,0,0-38.735Z" transform="translate(-12.03 -4.361)" fill="#fff" style="mix-blend-mode: overlay;isolation: isolate"/>
    </g>
  </g>
</svg>
