<svg xmlns="http://www.w3.org/2000/svg" width="44.727" height="40.452" viewBox="0 0 44.727 40.452">
  <g id="Group_60194" data-name="Group 60194" transform="translate(-26.653)">
    <g id="Theather" transform="translate(26.653)">
      <g id="Group_91" data-name="Group 91" transform="translate(0 3.946)">
        <g id="Group_78" data-name="Group 78" transform="translate(2.302)">
          <path id="Path_78" data-name="Path 78" d="M8.631,22.866V17.491a1.316,1.316,0,0,0-.385-.93L6,14.316,7.316,13l2.518,2.518a2.631,2.631,0,0,1,.771,1.861v5.488Z" transform="translate(-5.671 -12.671)" fill="#fff"/>
          <path id="Path_79" data-name="Path 79" d="M10.433,23.024H8.46a.329.329,0,0,1-.329-.329V17.32a.994.994,0,0,0-.289-.7L5.6,14.377a.33.33,0,0,1,0-.466L6.911,12.6a.33.33,0,0,1,.466,0L9.9,15.114a2.939,2.939,0,0,1,.867,2.093V22.7A.329.329,0,0,1,10.433,23.024Zm-1.644-.658H10.1V17.207A2.287,2.287,0,0,0,9.43,15.58L7.144,13.294l-.85.85,2.013,2.013a1.632,1.632,0,0,1,.481,1.162Z" transform="translate(-5.5 -12.5)" fill="#220b25"/>
        </g>
        <g id="Group_81" data-name="Group 81" transform="translate(3.096 1.384)">
          <g id="Group_79" data-name="Group 79">
            <path id="Path_80" data-name="Path 80" d="M8.255,15.891,6.968,14.6l-.261.26L8.72,16.877A1.63,1.63,0,0,0,8.255,15.891Z" transform="translate(-6.707 -14.604)" fill="#bbccdc"/>
          </g>
          <g id="Group_80" data-name="Group 80" transform="translate(3.303 1.898)">
            <path id="Path_81" data-name="Path 81" d="M11.728,17.489a2.319,2.319,0,0,1,.043.439v6.145h.465V18.915A2.28,2.28,0,0,0,11.728,17.489Z" transform="translate(-11.728 -17.489)" fill="#bbccdc"/>
          </g>
        </g>
        <path id="Path_82" data-name="Path 82" d="M19.471,56.39H6.316L5,36H20.786Z" transform="translate(-3.027 -20.543)" fill="#3a3434"/>
        <path id="Path_83" data-name="Path 83" d="M21.417,34.289H3l.358-2.39A1.316,1.316,0,0,1,4.606,31H19.812a1.316,1.316,0,0,1,1.248.9Z" transform="translate(-2.342 -18.831)" fill="#fff"/>
        <g id="Group_82" data-name="Group 82" transform="translate(0 9.538)">
          <path id="Path_84" data-name="Path 84" d="M20.471,29.973H6L6.358,28.9A1.316,1.316,0,0,1,7.606,28H18.864a1.316,1.316,0,0,1,1.248.9Z" transform="translate(-3.369 -27.342)" fill="#fff"/>
          <path id="Path_85" data-name="Path 85" d="M21.368,30.433a.629.629,0,0,0-.026-.111,1.968,1.968,0,0,0-1.763-1.341l-.21-.633A1.971,1.971,0,0,0,17.5,27H6.237a1.971,1.971,0,0,0-1.872,1.349l-.21.633a1.968,1.968,0,0,0-1.763,1.341.629.629,0,0,0-.026.111l-.358,2.39a.658.658,0,0,0,.651.755h.7L4.632,53.352a.658.658,0,0,0,.656.616H18.444a.658.658,0,0,0,.656-.616l1.276-19.775h.7a.658.658,0,0,0,.651-.755ZM5.613,28.765a.655.655,0,0,1,.624-.45H17.5a.655.655,0,0,1,.624.45l.07.208H5.543ZM3.656,30.694a.657.657,0,0,1,.607-.405H19.469a.657.657,0,0,1,.607.405l.235,1.568H3.421ZM17.828,52.652H5.906L4.674,33.578H19.058Z" transform="translate(-2 -27)" fill="#220b25"/>
        </g>
        <g id="Group_83" data-name="Group 83" transform="translate(15.301 16.115)">
          <path id="Path_86" data-name="Path 86" d="M26.405,37,25.263,56.075h.521L27.025,37Z" transform="translate(-25.263 -37)" fill="#006daf"/>
        </g>
        <g id="Group_84" data-name="Group 84" transform="translate(2.67 16.115)">
          <path id="Path_87" data-name="Path 87" d="M20.452,37H6.059l.037.658h0L7.3,56.075H7.82L6.785,39.042A1.316,1.316,0,0,1,8.1,37.658h5.128a1.316,1.316,0,0,1,1.316,1.335l-.283,17.083h4.953l1.2-18.417h0Z" transform="translate(-6.059 -37)" fill="#1c1c1c"/>
        </g>
        <g id="Group_85" data-name="Group 85" transform="translate(6.249 22.364)">
          <circle id="Ellipse_1" data-name="Ellipse 1" cx="3.289" cy="3.289" r="3.289" transform="translate(0.329 0.329)" fill="#fff"/>
          <path id="Path_88" data-name="Path 88" d="M15.118,53.735a3.618,3.618,0,1,1,3.618-3.618A3.622,3.622,0,0,1,15.118,53.735Zm0-6.578a2.96,2.96,0,1,0,2.96,2.96A2.964,2.964,0,0,0,15.118,47.158Z" transform="translate(-11.5 -46.5)" fill="#220b25"/>
        </g>
        <g id="Group_86" data-name="Group 86" transform="translate(10.977 23.282)">
          <path id="Path_89" data-name="Path 89" d="M18.779,47.9l-.09,5.439a2.953,2.953,0,0,0,.09-5.439Z" transform="translate(-18.689 -47.896)" fill="#bbccdc"/>
        </g>
        <g id="Group_87" data-name="Group 87" transform="translate(11.161 13.484)">
          <path id="Path_90" data-name="Path 90" d="M18.969,33.679l.02.637h7.129L25.921,33h-6.3A.657.657,0,0,0,18.969,33.679Z" transform="translate(-18.968 -33)" fill="#bbccdc"/>
        </g>
        <g id="Group_88" data-name="Group 88" transform="translate(4.933 3.289)">
          <path id="Path_91" data-name="Path 91" d="M9.829,18.815a.329.329,0,0,1-.147-.623L11,17.535a.329.329,0,1,1,.295.588l-1.316.658A.327.327,0,0,1,9.829,18.815Z" transform="translate(-9.5 -17.5)" fill="#220b25"/>
        </g>
        <g id="Group_89" data-name="Group 89" transform="translate(4.933 4.604)">
          <path id="Path_92" data-name="Path 92" d="M11.8,20.158H9.829a.329.329,0,0,1,0-.658H11.8a.329.329,0,0,1,0,.658Z" transform="translate(-9.5 -19.5)" fill="#220b25"/>
        </g>
        <g id="Group_90" data-name="Group 90" transform="translate(4.275 1.973)">
          <path id="Path_93" data-name="Path 93" d="M8.829,17.473a.329.329,0,0,1-.233-.562L9.911,15.6a.329.329,0,0,1,.466.466L9.062,17.377A.33.33,0,0,1,8.829,17.473Z" transform="translate(-8.5 -15.5)" fill="#220b25"/>
        </g>
      </g>
      <g id="Group_150" data-name="Group 150" transform="translate(12.497 0)">
        <g id="Group_93" data-name="Group 93" transform="translate(14.142)">
          <g id="Group_92" data-name="Group 92">
            <path id="Path_94" data-name="Path 94" d="M43.73,8.935a.974.974,0,0,0-.072.367.987.987,0,1,0,1.973,0,.974.974,0,0,0-.072-.367.984.984,0,1,0-.914-1.679.984.984,0,1,0-.914,1.679Z" transform="translate(-42.671 -6.671)" fill="#fff"/>
            <path id="Path_95" data-name="Path 95" d="M44.473,10.447a1.317,1.317,0,0,1-1.316-1.316,1.277,1.277,0,0,1,.012-.174,1.313,1.313,0,1,1,1.3-2.278,1.3,1.3,0,0,1,.658-.179,1.313,1.313,0,0,1,.646,2.457,1.275,1.275,0,0,1,.012.174A1.317,1.317,0,0,1,44.473,10.447Zm-.658-3.289a.656.656,0,0,0-.17,1.289.33.33,0,0,1,.219.44.658.658,0,1,0,1.218,0,.33.33,0,0,1,.219-.44.655.655,0,1,0-.608-1.118.329.329,0,0,1-.441,0A.653.653,0,0,0,43.816,7.158Z" transform="translate(-42.5 -6.5)" fill="#220b25"/>
          </g>
        </g>
        <g id="Group_94" data-name="Group 94" transform="translate(12.168 0.658)">
          <circle id="Ellipse_2" data-name="Ellipse 2" cx="1.316" cy="1.316" r="1.316" transform="translate(0.329 0.329)" fill="#fcdab7"/>
          <path id="Path_96" data-name="Path 96" d="M41.144,10.789a1.644,1.644,0,1,1,1.644-1.644A1.646,1.646,0,0,1,41.144,10.789Zm0-2.631a.987.987,0,1,0,.987.987A.988.988,0,0,0,41.144,8.158Z" transform="translate(-39.5 -7.5)" fill="#220b25"/>
        </g>
        <g id="Group_95" data-name="Group 95" transform="translate(24.008 4.604)">
          <circle id="Ellipse_3" data-name="Ellipse 3" cx="1.316" cy="1.316" r="1.316" transform="translate(0.329 0.329)" fill="#fff"/>
          <path id="Path_97" data-name="Path 97" d="M59.144,16.789a1.644,1.644,0,1,1,1.644-1.644A1.646,1.646,0,0,1,59.144,16.789Zm0-2.631a.987.987,0,1,0,.987.987A.988.988,0,0,0,59.144,14.158Z" transform="translate(-57.5 -13.5)" fill="#220b25"/>
        </g>
        <g id="Group_98" data-name="Group 98" transform="translate(16.115 0.658)">
          <g id="Group_96" data-name="Group 96">
            <path id="Path_98" data-name="Path 98" d="M50.6,9.973a1.308,1.308,0,0,0-1.987-1.125.984.984,0,1,0-1.846.589,1.313,1.313,0,1,0,1.437,2.155.98.98,0,0,0,1.723-.478A1.31,1.31,0,0,0,50.6,9.973Z" transform="translate(-45.671 -7.671)" fill="#fff"/>
            <path id="Path_99" data-name="Path 99" d="M48.789,12.1a1.3,1.3,0,0,1-.772-.255,1.626,1.626,0,0,1-.873.255A1.642,1.642,0,0,1,46.2,9.121a1.259,1.259,0,0,1-.037-.305,1.312,1.312,0,0,1,2.488-.586,1.6,1.6,0,0,1,.472-.072,1.64,1.64,0,0,1,.933,2.991A1.306,1.306,0,0,1,48.789,12.1Zm-.752-1.012h.02a.327.327,0,0,1,.232.117.651.651,0,0,0,1.146-.318.331.331,0,0,1,.163-.235.982.982,0,0,0-.48-1.842.968.968,0,0,0-.5.143.325.325,0,0,1-.31.014.33.33,0,0,1-.184-.251.655.655,0,0,0-1.3.093.643.643,0,0,0,.076.3.329.329,0,0,1-.155.451.984.984,0,1,0,1.077,1.615A.329.329,0,0,1,48.037,11.092Z" transform="translate(-45.5 -7.5)" fill="#220b25"/>
          </g>
          <g id="Group_97" data-name="Group 97" transform="translate(1.973 1.973)">
            <path id="Path_100" data-name="Path 100" d="M48.829,11.816a.329.329,0,0,1-.233-.562l.658-.658a.331.331,0,0,1,.233-.1h.658a.329.329,0,1,1,0,.658h-.522l-.561.562A.33.33,0,0,1,48.829,11.816Z" transform="translate(-48.5 -10.5)" fill="#f9a42f"/>
          </g>
        </g>
        <g id="Group_99" data-name="Group 99" transform="translate(10.195 1.316)">
          <path id="Path_101" data-name="Path 101" d="M37.664,11.572c0,.02-.006.038-.006.059a1.316,1.316,0,1,0,2.276-.893A.983.983,0,1,0,38.354,9.73a.974.974,0,0,0-.367-.072.984.984,0,0,0-.323,1.915Z" transform="translate(-36.671 -8.671)" fill="#fcdab7"/>
          <path id="Path_102" data-name="Path 102" d="M38.8,13.1a1.647,1.647,0,0,1-1.637-1.492,1.312,1.312,0,0,1-.665-1.139,1.328,1.328,0,0,1,1.489-1.3,1.312,1.312,0,1,1,2.2,1.417,1.622,1.622,0,0,1,.255.873A1.646,1.646,0,0,1,38.8,13.1Zm-.987-3.289A.655.655,0,0,0,37.6,11.09a.329.329,0,0,1,.22.322c0,.011,0,.051-.005.062a.987.987,0,1,0,1.707-.685.325.325,0,0,1-.087-.243.329.329,0,0,1,.116-.232.646.646,0,0,0,.237-.5A.656.656,0,0,0,38.5,9.644a.329.329,0,0,1-.44.219A.648.648,0,0,0,37.816,9.816Z" transform="translate(-36.5 -8.5)" fill="#220b25"/>
        </g>
        <g id="Group_102" data-name="Group 102" transform="translate(7.564 1.316)">
          <g id="Group_100" data-name="Group 100">
            <path id="Path_103" data-name="Path 103" d="M35.96,14.262a.984.984,0,0,0,.257-1.935.967.967,0,0,0,0-.734.984.984,0,1,0-.624-1.863A.981.981,0,0,0,33.7,9.7a.978.978,0,0,0-.448,1.6.979.979,0,0,0,.474,1.606.973.973,0,0,0-.072.367.983.983,0,0,0,1.644.731A.981.981,0,0,0,35.96,14.262Z" transform="translate(-32.671 -8.671)" fill="#fff"/>
            <path id="Path_104" data-name="Path 104" d="M35.789,14.42a1.3,1.3,0,0,1-.658-.179,1.3,1.3,0,0,1-.658.179A1.317,1.317,0,0,1,33.158,13.1a1.276,1.276,0,0,1,.012-.174,1.314,1.314,0,0,1-.67-1.142,1.3,1.3,0,0,1,.18-.658,1.3,1.3,0,0,1,.6-1.854,1.308,1.308,0,0,1,2.338-.108,1.329,1.329,0,0,1,1.489,1.3,1.314,1.314,0,0,1-.67,1.142,1.279,1.279,0,0,1,0,.347,1.313,1.313,0,0,1-.646,2.457Zm-.658-.914a.328.328,0,0,1,.22.085.655.655,0,1,0,.608-1.118.33.33,0,0,1-.219-.44.636.636,0,0,0,0-.488.33.33,0,0,1,.219-.44.658.658,0,0,0,.487-.631.666.666,0,0,0-.9-.61.329.329,0,0,1-.44-.219.652.652,0,0,0-1.257-.016.329.329,0,0,1-.22.22.649.649,0,0,0-.3,1.063.33.33,0,0,1,0,.441.649.649,0,0,0,.316,1.069.33.33,0,0,1,.219.44.654.654,0,0,0,1.046.73A.328.328,0,0,1,35.131,13.506Z" transform="translate(-32.5 -8.5)" fill="#220b25"/>
          </g>
          <g id="Group_101" data-name="Group 101" transform="translate(1.315 1.973)">
            <path id="Path_105" data-name="Path 105" d="M35.487,13.473a.33.33,0,0,1-.294-.182l-.658-1.316a.329.329,0,0,1,.588-.295L35.781,13a.329.329,0,0,1-.294.476Z" transform="translate(-34.5 -11.499)" fill="#f9a42f"/>
          </g>
        </g>
        <g id="Group_105" data-name="Group 105" transform="translate(19.404 3.289)">
          <g id="Group_103" data-name="Group 103">
            <path id="Path_106" data-name="Path 106" d="M53.96,12.658a1.629,1.629,0,0,0-.47.076,1.313,1.313,0,1,0-1.175,1.9c.011,0,.022,0,.033,0a1.644,1.644,0,1,0,1.611-1.97Z" transform="translate(-50.671 -11.671)" fill="#ffe9cd"/>
            <path id="Path_107" data-name="Path 107" d="M53.789,16.1a1.979,1.979,0,0,1-1.867-1.337,1.641,1.641,0,1,1,1.554-2.581,1.8,1.8,0,0,1,.313-.029,1.973,1.973,0,0,1,0,3.947Zm-1.644-3.947a.987.987,0,1,0,0,1.973.364.364,0,0,1,.355.26,1.315,1.315,0,1,0,1.289-1.576,1.284,1.284,0,0,0-.375.062.328.328,0,0,1-.389-.168A.98.98,0,0,0,52.144,12.158Z" transform="translate(-50.5 -11.5)" fill="#220b25"/>
          </g>
          <g id="Group_104" data-name="Group 104" transform="translate(1.315 1.315)">
            <path id="Path_108" data-name="Path 108" d="M54.144,14.815A.327.327,0,0,1,54,14.781l-1.316-.658a.329.329,0,0,1,.295-.588l1.316.658a.329.329,0,0,1-.147.623Z" transform="translate(-52.5 -13.5)" fill="#f9a42f"/>
          </g>
        </g>
        <g id="Group_108" data-name="Group 108" transform="translate(7.564 4.604)">
          <g id="Group_106" data-name="Group 106">
            <path id="Path_109" data-name="Path 109" d="M35.559,15.354a.974.974,0,0,0,.072-.367.987.987,0,1,0-1.973,0,.974.974,0,0,0,.072.367.984.984,0,1,0,.914,1.679.984.984,0,1,0,.914-1.679Z" transform="translate(-32.671 -13.671)" fill="#ffe9cd"/>
            <path id="Path_110" data-name="Path 110" d="M35.131,17.447a1.3,1.3,0,0,1-.658-.179,1.3,1.3,0,0,1-.658.179,1.313,1.313,0,0,1-.646-2.457,1.276,1.276,0,0,1-.012-.174,1.316,1.316,0,0,1,2.631,0,1.276,1.276,0,0,1-.012.174,1.313,1.313,0,0,1-.646,2.457Zm-.658-.914a.328.328,0,0,1,.22.085A.655.655,0,1,0,35.3,15.5a.33.33,0,0,1-.219-.44.658.658,0,1,0-1.218,0,.33.33,0,0,1-.219.44.655.655,0,1,0,.608,1.118A.328.328,0,0,1,34.473,16.532Z" transform="translate(-32.5 -13.5)" fill="#220b25"/>
          </g>
          <g id="Group_107" data-name="Group 107" transform="translate(1.316 1.973)">
            <path id="Path_111" data-name="Path 111" d="M35.487,17.158h-.658a.329.329,0,1,1,0-.658h.658a.329.329,0,1,1,0,.658Z" transform="translate(-34.5 -16.5)" fill="#f9a42f"/>
          </g>
        </g>
        <g id="Group_112" data-name="Group 112" transform="translate(12.168 3.289)">
          <g id="Group_109" data-name="Group 109">
            <path id="Path_112" data-name="Path 112" d="M45.262,14.3a1.638,1.638,0,0,0-.658-1.309v-.007a.983.983,0,0,0-1.738-.632,1.313,1.313,0,0,0-1.982,1.7,1.312,1.312,0,1,0,1.325,2.2.978.978,0,0,0,1.686-.331A1.643,1.643,0,0,0,45.262,14.3Z" transform="translate(-39.671 -11.671)" fill="#fff"/>
            <path id="Path_113" data-name="Path 113" d="M42.789,16.762a1.3,1.3,0,0,1-.772-.255,1.626,1.626,0,0,1-.873.255,1.641,1.641,0,0,1-.878-3.029,1.641,1.641,0,0,1,2.409-1.979,1.3,1.3,0,0,1,.772-.255,1.317,1.317,0,0,1,1.306,1.16,1.963,1.963,0,0,1-.79,3.371A1.309,1.309,0,0,1,42.789,16.762Zm-.752-1.012h.02a.327.327,0,0,1,.232.117.672.672,0,0,0,1.121-.221.329.329,0,0,1,.258-.224,1.306,1.306,0,0,0,.566-2.338.33.33,0,0,1-.131-.262.654.654,0,0,0-1.157-.428.327.327,0,0,1-.232.117.321.321,0,0,1-.244-.087A.985.985,0,0,0,40.985,13.7a.329.329,0,0,1-.164.495.983.983,0,1,0,.993,1.647A.329.329,0,0,1,42.037,15.75Z" transform="translate(-39.5 -11.5)" fill="#220b25"/>
          </g>
          <g id="Group_110" data-name="Group 110" transform="translate(1.315 1.973)">
            <path id="Path_114" data-name="Path 114" d="M41.829,16.473a.329.329,0,0,1-.147-.623l1.268-.634.62-.62a.329.329,0,1,1,.466.466l-.658.658a.351.351,0,0,1-.086.061l-1.316.658A.327.327,0,0,1,41.829,16.473Z" transform="translate(-41.5 -14.5)" fill="#f9a42f"/>
          </g>
          <g id="Group_111" data-name="Group 111" transform="translate(2.631 2.631)">
            <path id="Path_115" data-name="Path 115" d="M44.487,16.815a.33.33,0,0,1-.233-.1l-.658-.658a.329.329,0,0,1,.466-.466l.658.658a.329.329,0,0,1-.233.562Z" transform="translate(-43.5 -15.5)" fill="#f9a42f"/>
          </g>
        </g>
        <g id="Group_113" data-name="Group 113" transform="translate(17.43 4.604)">
          <path id="Path_116" data-name="Path 116" d="M50.625,15.374c0-.02.006-.038.006-.059a1.316,1.316,0,1,0-2.276.893.983.983,0,1,0,1.581,1.008.974.974,0,0,0,.367.072.984.984,0,0,0,.323-1.915Z" transform="translate(-47.671 -13.671)" fill="#ffe9cd"/>
          <path id="Path_117" data-name="Path 117" d="M48.816,18.1A1.317,1.317,0,0,1,47.5,16.789a1.3,1.3,0,0,1,.255-.772,1.624,1.624,0,0,1-.255-.873,1.644,1.644,0,0,1,3.282-.152,1.312,1.312,0,0,1,.665,1.139,1.331,1.331,0,0,1-1.489,1.3A1.314,1.314,0,0,1,48.816,18.1Zm.329-3.947a.983.983,0,0,0-.72,1.656.327.327,0,0,1-.029.474.648.648,0,0,0-.237.5.656.656,0,0,0,1.289.171.329.329,0,0,1,.44-.219.665.665,0,0,0,.9-.61.657.657,0,0,0-.443-.618.328.328,0,0,1-.22-.322c0-.011,0-.051.005-.062A.985.985,0,0,0,49.144,14.158Z" transform="translate(-47.5 -13.5)" fill="#220b25"/>
        </g>
        <g id="Group_114" data-name="Group 114" transform="translate(24.666 6.578)">
          <path id="Path_118" data-name="Path 118" d="M62.289,18.644a1.644,1.644,0,1,0-3.289,0,1.628,1.628,0,0,0,.185.743.984.984,0,1,0,1.736.873A1.643,1.643,0,0,0,62.289,18.644Z" transform="translate(-58.671 -16.671)" fill="#fff"/>
          <path id="Path_119" data-name="Path 119" d="M59.816,21.1A1.317,1.317,0,0,1,58.5,19.789a1.3,1.3,0,0,1,.143-.593,1.908,1.908,0,0,1-.143-.722,1.973,1.973,0,1,1,2.49,1.9A1.309,1.309,0,0,1,59.816,21.1Zm.658-3.947a1.317,1.317,0,0,0-1.316,1.316,1.292,1.292,0,0,0,.149.593.329.329,0,0,1-.026.341.655.655,0,1,0,1.156.581.329.329,0,0,1,.258-.224,1.313,1.313,0,0,0-.222-2.607Z" transform="translate(-58.5 -16.5)" fill="#220b25"/>
        </g>
        <g id="Group_115" data-name="Group 115" transform="translate(14.142 7.893)">
          <path id="Path_120" data-name="Path 120" d="M46.289,20.644a1.644,1.644,0,0,0-3.289,0,1.628,1.628,0,0,0,.185.743.984.984,0,1,0,1.736.873A1.643,1.643,0,0,0,46.289,20.644Z" transform="translate(-42.671 -18.671)" fill="#fcdab7"/>
          <path id="Path_121" data-name="Path 121" d="M43.816,23.1A1.317,1.317,0,0,1,42.5,21.789a1.3,1.3,0,0,1,.143-.593,1.908,1.908,0,0,1-.143-.722,1.973,1.973,0,1,1,2.49,1.9A1.309,1.309,0,0,1,43.816,23.1Zm.658-3.947a1.317,1.317,0,0,0-1.316,1.316,1.292,1.292,0,0,0,.149.593.329.329,0,0,1-.026.341.655.655,0,1,0,1.156.581.329.329,0,0,1,.258-.224,1.313,1.313,0,0,0-.222-2.607Z" transform="translate(-42.5 -18.5)" fill="#220b25"/>
        </g>
        <g id="Group_116" data-name="Group 116" transform="translate(4.275 4.604)">
          <path id="Path_122" data-name="Path 122" d="M28,16.3a1.644,1.644,0,0,0,3.289,0,1.628,1.628,0,0,0-.185-.743.984.984,0,1,0-1.736-.873A1.643,1.643,0,0,0,28,16.3Z" transform="translate(-27.671 -13.671)" fill="#fff"/>
          <path id="Path_123" data-name="Path 123" d="M29.473,18.1a1.971,1.971,0,0,1-.516-3.874A1.313,1.313,0,1,1,31.3,15.409a1.908,1.908,0,0,1,.143.722A1.976,1.976,0,0,1,29.473,18.1Zm.658-3.947a.653.653,0,0,0-.622.458.329.329,0,0,1-.258.224,1.313,1.313,0,1,0,1.537,1.292,1.292,1.292,0,0,0-.149-.593.329.329,0,0,1,.026-.341.655.655,0,0,0-.534-1.039Z" transform="translate(-27.5 -13.5)" fill="#220b25"/>
        </g>
        <g id="Group_119" data-name="Group 119" transform="translate(14.799 6.578)">
          <g id="Group_117" data-name="Group 117">
            <path id="Path_124" data-name="Path 124" d="M46.96,17.658a1.629,1.629,0,0,0-.47.076,1.313,1.313,0,1,0-1.175,1.9c.011,0,.022,0,.033,0a1.644,1.644,0,1,0,1.611-1.97Z" transform="translate(-43.671 -16.671)" fill="#ffe9cd"/>
            <path id="Path_125" data-name="Path 125" d="M46.789,21.1a1.979,1.979,0,0,1-1.867-1.337,1.641,1.641,0,1,1,1.554-2.581,1.8,1.8,0,0,1,.313-.029,1.973,1.973,0,1,1,0,3.947Zm-1.644-3.947a.987.987,0,1,0,0,1.973.364.364,0,0,1,.355.26,1.315,1.315,0,1,0,1.289-1.576,1.284,1.284,0,0,0-.375.062.329.329,0,0,1-.389-.168A.98.98,0,0,0,45.144,17.158Z" transform="translate(-43.5 -16.5)" fill="#220b25"/>
          </g>
          <g id="Group_118" data-name="Group 118" transform="translate(1.315 1.315)">
            <path id="Path_126" data-name="Path 126" d="M47.144,19.815A.327.327,0,0,1,47,19.781l-1.316-.658a.329.329,0,0,1,.295-.588l1.316.658a.329.329,0,0,1-.147.623Z" transform="translate(-45.5 -18.5)" fill="#f9a42f"/>
          </g>
        </g>
        <g id="Group_122" data-name="Group 122" transform="translate(19.404 6.578)">
          <g id="Group_120" data-name="Group 120">
            <path id="Path_127" data-name="Path 127" d="M56.262,17.987a.984.984,0,0,0-1.935-.257.967.967,0,0,0-.734,0,.984.984,0,1,0-1.863.624.981.981,0,0,0-.026,1.889.978.978,0,0,0,1.6.448.979.979,0,0,0,1.606-.474.974.974,0,0,0,.367.072.983.983,0,0,0,.731-1.644A.981.981,0,0,0,56.262,17.987Z" transform="translate(-50.671 -16.671)" fill="#fff"/>
            <path id="Path_128" data-name="Path 128" d="M53.789,21.1a1.3,1.3,0,0,1-.658-.179,1.305,1.305,0,0,1-1.854-.6,1.308,1.308,0,0,1-.108-2.338,1.276,1.276,0,0,1-.012-.174,1.313,1.313,0,0,1,2.457-.646,1.279,1.279,0,0,1,.347,0,1.313,1.313,0,0,1,2.457.646,1.3,1.3,0,0,1-.18.658,1.3,1.3,0,0,1,.18.658,1.329,1.329,0,0,1-1.489,1.3A1.314,1.314,0,0,1,53.789,21.1Zm-.658-.914a.328.328,0,0,1,.22.085.672.672,0,0,0,1.069-.315.329.329,0,0,1,.44-.219.665.665,0,0,0,.9-.61.654.654,0,0,0-.172-.437.33.33,0,0,1,0-.441.655.655,0,1,0-1.118-.608.329.329,0,0,1-.44.219.646.646,0,0,0-.488,0,.329.329,0,0,1-.44-.219.655.655,0,1,0-1.241.415.33.33,0,0,1-.219.44.652.652,0,0,0-.018,1.257.327.327,0,0,1,.22.22.669.669,0,0,0,1.064.3A.328.328,0,0,1,53.131,20.19Z" transform="translate(-50.5 -16.5)" fill="#220b25"/>
          </g>
          <g id="Group_121" data-name="Group 121" transform="translate(1.973 1.973)">
            <path id="Path_129" data-name="Path 129" d="M53.829,20.815a.329.329,0,0,1-.147-.623L55,19.535a.329.329,0,1,1,.295.588l-1.316.658A.327.327,0,0,1,53.829,20.815Z" transform="translate(-53.5 -19.5)" fill="#f9a42f"/>
          </g>
        </g>
        <g id="Group_125" data-name="Group 125" transform="translate(10.195 6.578)">
          <g id="Group_123" data-name="Group 123">
            <path id="Path_130" data-name="Path 130" d="M37,19.96a.984.984,0,0,0,1.935.257.967.967,0,0,0,.734,0,.984.984,0,1,0,1.863-.624.981.981,0,0,0,.026-1.889.978.978,0,0,0-1.6-.448.979.979,0,0,0-1.606.474.974.974,0,0,0-.367-.072.983.983,0,0,0-.731,1.644A.981.981,0,0,0,37,19.96Z" transform="translate(-36.671 -16.671)" fill="#fff"/>
            <path id="Path_131" data-name="Path 131" d="M40.447,21.1a1.314,1.314,0,0,1-1.142-.67,1.279,1.279,0,0,1-.347,0,1.313,1.313,0,0,1-2.457-.646,1.3,1.3,0,0,1,.18-.658,1.3,1.3,0,0,1-.18-.658,1.33,1.33,0,0,1,1.489-1.3,1.35,1.35,0,0,1,1.8-.491,1.305,1.305,0,0,1,1.854.6,1.308,1.308,0,0,1,.108,2.338,1.276,1.276,0,0,1,.012.174A1.317,1.317,0,0,1,40.447,21.1ZM39.5,19.717a.328.328,0,0,1,.317.243.655.655,0,1,0,1.241-.415.33.33,0,0,1,.219-.44.652.652,0,0,0,.018-1.257.328.328,0,0,1-.22-.22.669.669,0,0,0-1.063-.3.329.329,0,0,1-.441,0,.672.672,0,0,0-1.069.315.329.329,0,0,1-.44.219.666.666,0,0,0-.9.61.654.654,0,0,0,.172.437.33.33,0,0,1,0,.441.655.655,0,1,0,1.118.608.329.329,0,0,1,.44-.219.646.646,0,0,0,.488,0A.317.317,0,0,1,39.5,19.717Z" transform="translate(-36.5 -16.5)" fill="#220b25"/>
          </g>
          <g id="Group_124" data-name="Group 124" transform="translate(1.973 1.315)">
            <path id="Path_132" data-name="Path 132" d="M39.829,19.815a.329.329,0,0,1-.147-.623L41,18.535a.329.329,0,1,1,.295.588l-1.316.658A.327.327,0,0,1,39.829,19.815Z" transform="translate(-39.5 -18.5)" fill="#f9a42f"/>
          </g>
        </g>
        <g id="Group_126" data-name="Group 126" transform="translate(2.302 7.564)">
          <path id="Path_133" data-name="Path 133" d="M28.124,18.5a1.479,1.479,0,0,0-1.354.887.987.987,0,1,0,0,1.187A1.479,1.479,0,1,0,28.124,18.5Z" transform="translate(-24.671 -18.171)" fill="#fff"/>
          <path id="Path_134" data-name="Path 134" d="M27.953,21.618a1.808,1.808,0,0,1-1.429-.7,1.3,1.3,0,0,1-.709.209,1.316,1.316,0,0,1,0-2.631,1.3,1.3,0,0,1,.709.209,1.808,1.808,0,1,1,1.429,2.916ZM26.6,20.073a.256.256,0,0,1,.039,0,.329.329,0,0,1,.262.194,1.151,1.151,0,1,0,0-.922.329.329,0,0,1-.262.194.32.32,0,0,1-.3-.128.652.652,0,0,0-.522-.262.658.658,0,0,0,0,1.316.652.652,0,0,0,.522-.262A.328.328,0,0,1,26.6,20.073Z" transform="translate(-24.5 -18)" fill="#220b25"/>
        </g>
        <g id="Group_129" data-name="Group 129" transform="translate(6.249 7.235)">
          <g id="Group_127" data-name="Group 127">
            <path id="Path_135" data-name="Path 135" d="M35.6,19.973a1.308,1.308,0,0,0-1.987-1.125.984.984,0,1,0-1.846.589,1.313,1.313,0,1,0,1.437,2.155.98.98,0,0,0,1.723-.478A1.31,1.31,0,0,0,35.6,19.973Z" transform="translate(-30.671 -17.671)" fill="#fff"/>
            <path id="Path_136" data-name="Path 136" d="M33.789,22.1a1.3,1.3,0,0,1-.772-.255,1.626,1.626,0,0,1-.873.255,1.642,1.642,0,0,1-.949-2.984,1.259,1.259,0,0,1-.037-.305,1.312,1.312,0,0,1,2.488-.586,1.6,1.6,0,0,1,.472-.072,1.64,1.64,0,0,1,.933,2.991A1.306,1.306,0,0,1,33.789,22.1Zm-.752-1.012h.02a.327.327,0,0,1,.232.117.651.651,0,0,0,1.146-.318.331.331,0,0,1,.163-.235.982.982,0,0,0-.48-1.842.968.968,0,0,0-.5.143.325.325,0,0,1-.31.014.33.33,0,0,1-.184-.251.655.655,0,0,0-1.3.093.643.643,0,0,0,.076.3.329.329,0,0,1-.155.451.984.984,0,1,0,1.077,1.615A.329.329,0,0,1,33.037,21.092Z" transform="translate(-30.5 -17.5)" fill="#220b25"/>
          </g>
          <g id="Group_128" data-name="Group 128" transform="translate(1.973 1.973)">
            <path id="Path_137" data-name="Path 137" d="M33.829,21.816a.329.329,0,0,1-.233-.562l.658-.658a.331.331,0,0,1,.233-.1h.658a.329.329,0,1,1,0,.658h-.522l-.561.562A.33.33,0,0,1,33.829,21.816Z" transform="translate(-33.5 -20.5)" fill="#f9a42f"/>
          </g>
        </g>
        <g id="Group_130" data-name="Group 130" transform="translate(7.235 13.484)">
          <path id="Path_138" data-name="Path 138" d="M37.788,53.31h-4.21L32,27h5.262Z" transform="translate(-32 -27)" fill="#fff"/>
        </g>
        <g id="Group_131" data-name="Group 131" transform="translate(17.233 13.484)">
          <path id="Path_139" data-name="Path 139" d="M51.41,53.31H47.2L47.726,27h5.262Z" transform="translate(-47.2 -27)" fill="#fff"/>
        </g>
        <g id="Group_132" data-name="Group 132" transform="translate(2.7 14.142)">
          <path id="Path_140" data-name="Path 140" d="M42.8,28H25.105l.066.658h0L27.6,52.995h.47L25.894,30.1a1.315,1.315,0,0,1,1.31-1.44H40.709a1.973,1.973,0,0,1,1.971,2.057l-.943,22.28h5.725L49.9,28.658,49.962,28Z" transform="translate(-25.105 -28)" fill="#bbccdc"/>
        </g>
        <g id="Group_133" data-name="Group 133" transform="translate(21.443 13.484)">
          <path id="Path_141" data-name="Path 141" d="M57.81,53.31H53.6L55.179,27h5.262Z" transform="translate(-53.6 -27)" fill="#ea3f39"/>
        </g>
        <g id="Group_134" data-name="Group 134" transform="translate(1.973 13.484)">
          <path id="Path_142" data-name="Path 142" d="M30.841,53.31h-4.21L24,27h5.262Z" transform="translate(-24 -27)" fill="#54aae0"/>
        </g>
        <g id="Group_135" data-name="Group 135" transform="translate(12.497 13.484)">
          <path id="Path_143" data-name="Path 143" d="M44.736,53.31h-4.21L40,27h5.262Z" transform="translate(-40 -27)" fill="#54aae0"/>
        </g>
        <g id="Group_136" data-name="Group 136" transform="translate(0 10.195)">
          <rect id="Rectangle_1" data-name="Rectangle 1" width="28.941" height="2.631" rx="1.316" transform="translate(0.658 0.658)" fill="#fff"/>
          <path id="Path_144" data-name="Path 144" d="M51.257,23.973A1.976,1.976,0,0,0,49.283,22H22.973a1.968,1.968,0,0,0-.606,3.841L24.95,51.665a.658.658,0,0,0,.654.592H46.652a.658.658,0,0,0,.654-.592l2.582-25.823A1.969,1.969,0,0,0,51.257,23.973Zm-5.2,26.968H26.2L23.7,25.947H48.557Zm3.226-26.31H22.973a.658.658,0,1,1,0-1.316h26.31a.658.658,0,1,1,0,1.316Z" transform="translate(-21 -22)" fill="#220b25"/>
        </g>
        <g id="Group_137" data-name="Group 137" transform="translate(10.195 21.048)">
          <circle id="Ellipse_4" data-name="Ellipse 4" cx="4.604" cy="4.604" r="4.604" transform="translate(0.329 0.329)" fill="#ffda62"/>
          <path id="Path_145" data-name="Path 145" d="M41.433,48.366a4.933,4.933,0,1,1,4.933-4.933A4.938,4.938,0,0,1,41.433,48.366Zm0-9.209a4.275,4.275,0,1,0,4.275,4.275A4.28,4.28,0,0,0,41.433,39.158Z" transform="translate(-36.5 -38.5)" fill="#220b25"/>
        </g>
        <g id="Group_138" data-name="Group 138" transform="translate(12.168 24.995)">
          <path id="Path_146" data-name="Path 146" d="M45.091,45.158H39.829a.329.329,0,1,1,0-.658h5.262a.329.329,0,1,1,0,.658Z" transform="translate(-39.5 -44.5)" fill="#220b25"/>
        </g>
        <g id="Group_139" data-name="Group 139" transform="translate(12.826 26.31)">
          <path id="Path_147" data-name="Path 147" d="M44.775,47.158H40.829a.329.329,0,1,1,0-.658h3.947a.329.329,0,1,1,0,.658Z" transform="translate(-40.5 -46.5)" fill="#220b25"/>
        </g>
        <g id="Group_140" data-name="Group 140" transform="translate(14.471 23.35)">
          <circle id="Ellipse_5" data-name="Ellipse 5" cx="0.658" cy="0.658" r="0.658" fill="#220b25"/>
        </g>
        <g id="Group_141" data-name="Group 141" transform="translate(21.482 14.142)">
          <path id="Path_148" data-name="Path 148" d="M53.66,52.995h3.575l2.434-24.337L59.734,28H55.16Z" transform="translate(-53.66 -28)" fill="#54aae0"/>
        </g>
        <g id="Group_142" data-name="Group 142" transform="translate(12.51 14.142)">
          <path id="Path_149" data-name="Path 149" d="M45.256,28H40.02l.013.658h5.209Z" transform="translate(-40.02 -28)" fill="#0f77bf"/>
        </g>
        <g id="Group_143" data-name="Group 143" transform="translate(2.7 14.142)">
          <path id="Path_150" data-name="Path 150" d="M27.2,28.658h2.516L29.68,28H25.105l.066.658L27.6,52.995h.47L25.894,30.1A1.315,1.315,0,0,1,27.2,28.658Z" transform="translate(-25.105 -28)" fill="#0f77bf"/>
        </g>
        <g id="Group_144" data-name="Group 144" transform="translate(24.337 14.142)">
          <path id="Path_151" data-name="Path 151" d="M59.973,28,58,52.995h.72L61.22,28Z" transform="translate(-58 -28)" fill="#0f77bf"/>
        </g>
        <g id="Group_145" data-name="Group 145" transform="translate(1.316 11.511)">
          <path id="Path_152" data-name="Path 152" d="M49.968,24H42.075v.658H23a.658.658,0,0,0,.658.658h26.31a.658.658,0,1,0,0-1.316Z" transform="translate(-23 -24)" fill="#bbccdc"/>
        </g>
        <g id="Group_146" data-name="Group 146" transform="translate(10.195 4.604)">
          <circle id="Ellipse_6" data-name="Ellipse 6" cx="1.316" cy="1.316" r="1.316" transform="translate(0.329 0.329)" fill="#fff"/>
          <path id="Path_153" data-name="Path 153" d="M38.144,16.789a1.644,1.644,0,1,1,1.644-1.644A1.646,1.646,0,0,1,38.144,16.789Zm0-2.631a.987.987,0,1,0,.987.987A.988.988,0,0,0,38.144,14.158Z" transform="translate(-36.5 -13.5)" fill="#220b25"/>
        </g>
        <g id="Group_147" data-name="Group 147" transform="translate(12.931 35.19)">
          <path id="Path_154" data-name="Path 154" d="M44.975,63.947,45.054,60H40.66l.079,3.947Z" transform="translate(-40.66 -60)" fill="#54aae0"/>
        </g>
        <g id="Group_148" data-name="Group 148" transform="translate(17.246 35.19)">
          <path id="Path_155" data-name="Path 155" d="M47.22,63.947h2.486V60H47.3Z" transform="translate(-47.22 -60)" fill="#9eb8d0"/>
        </g>
        <g id="Group_149" data-name="Group 149" transform="translate(10.524 35.19)">
          <path id="Path_156" data-name="Path 156" d="M39.407,60H37v3.947h2.486Z" transform="translate(-37 -60)" fill="#9eb8d0"/>
        </g>
      </g>
      <g id="Group_161" data-name="Group 161" transform="translate(10.524 27.297)">
        <g id="Group_151" data-name="Group 151" transform="translate(0.658 0.658)">
          <path id="Path_157" data-name="Path 157" d="M50.572,60.182h0a2.785,2.785,0,0,0-1.246.294l-.311.155a1.964,1.964,0,0,1-.882.209h-7.6a1.973,1.973,0,0,1-1.713-.995l-1.41-2.468a2.267,2.267,0,0,0-1.968-1.142h0a2.267,2.267,0,0,0-1.968,1.142l-1.41,2.468a1.973,1.973,0,0,1-1.713.995h-7.6a1.964,1.964,0,0,1-.882-.209l-.311-.155a2.785,2.785,0,0,0-1.246-.294h0A1.315,1.315,0,0,1,19,58.866V50.316A1.315,1.315,0,0,1,20.316,49H50.572a1.315,1.315,0,0,1,1.316,1.316v8.551A1.315,1.315,0,0,1,50.572,60.182Z" transform="translate(-19 -49)" fill="#fff"/>
        </g>
        <g id="Group_152" data-name="Group 152" transform="translate(3.289 3.289)">
          <path id="Path_158" data-name="Path 158" d="M31.179,59.578H23.658A.658.658,0,0,1,23,58.92V53.658A.658.658,0,0,1,23.658,53h9.209a.658.658,0,0,1,.658.658v2.449a.656.656,0,0,1-.094.339l-1.688,2.813A.656.656,0,0,1,31.179,59.578Z" transform="translate(-23 -53)" fill="#0f77bf"/>
        </g>
        <g id="Group_153" data-name="Group 153" transform="translate(20.39 3.289)">
          <path id="Path_159" data-name="Path 159" d="M51.346,59.578h7.521a.658.658,0,0,0,.658-.658V53.658A.658.658,0,0,0,58.866,53H49.658a.658.658,0,0,0-.658.658v2.449a.656.656,0,0,0,.094.339l1.688,2.813A.656.656,0,0,0,51.346,59.578Z" transform="translate(-49 -53)" fill="#0f77bf"/>
        </g>
        <g id="Group_154" data-name="Group 154">
          <path id="Path_160" data-name="Path 160" d="M47.791,61.155h-7.6a2.637,2.637,0,0,1-2.284-1.326L36.5,57.361a1.609,1.609,0,0,0-2.794,0l-1.41,2.468a2.637,2.637,0,0,1-2.284,1.326h-7.6a2.645,2.645,0,0,1-1.176-.278l-.311-.155a2.134,2.134,0,0,0-.952-.225A1.976,1.976,0,0,1,18,58.524V49.973A1.976,1.976,0,0,1,19.973,48H50.23A1.976,1.976,0,0,1,52.2,49.973v8.551A1.976,1.976,0,0,1,50.23,60.5a2.139,2.139,0,0,0-.952.225l-.31.155A2.65,2.65,0,0,1,47.791,61.155ZM35.1,55.235a2.929,2.929,0,0,1,2.539,1.473l1.41,2.468a1.319,1.319,0,0,0,1.143.663h7.6a1.326,1.326,0,0,0,.589-.139l.31-.155a3.462,3.462,0,0,1,1.54-.364.658.658,0,0,0,.658-.658V49.973a.658.658,0,0,0-.658-.658H19.973a.658.658,0,0,0-.658.658v8.551a.658.658,0,0,0,.658.658,3.458,3.458,0,0,1,1.54.364l.311.155a1.321,1.321,0,0,0,.588.139h7.6a1.319,1.319,0,0,0,1.143-.663l1.41-2.468A2.929,2.929,0,0,1,35.1,55.235Z" transform="translate(-18 -48)" fill="#220b25"/>
        </g>
        <g id="Group_155" data-name="Group 155" transform="translate(3.947 3.289)">
          <path id="Path_161" data-name="Path 161" d="M24,59.554a.651.651,0,0,0,.118.024h1.835L31.435,53H29.461Z" transform="translate(-24 -53)" fill="#54aae0"/>
        </g>
        <g id="Group_156" data-name="Group 156" transform="translate(3.289 3.289)">
          <path id="Path_162" data-name="Path 162" d="M28.262,53h-4.6a.658.658,0,0,0-.658.658v5.657Z" transform="translate(-23 -53)" fill="#54aae0"/>
        </g>
        <g id="Group_157" data-name="Group 157" transform="translate(21.997 3.289)">
          <path id="Path_163" data-name="Path 163" d="M56.413,53l-4.971,5.966.176.292a.656.656,0,0,0,.564.32h.724L58.387,53Z" transform="translate(-51.442 -53)" fill="#54aae0"/>
        </g>
        <g id="Group_158" data-name="Group 158" transform="translate(20.39 3.289)">
          <path id="Path_164" data-name="Path 164" d="M50.056,58.048,54.262,53h-4.6a.658.658,0,0,0-.658.658v2.449a.656.656,0,0,0,.094.339Z" transform="translate(-49 -53)" fill="#54aae0"/>
        </g>
        <g id="Group_159" data-name="Group 159" transform="translate(2.631 2.631)">
          <path id="Path_165" data-name="Path 165" d="M30.836,59.893H23.316A1.317,1.317,0,0,1,22,58.578V53.316A1.317,1.317,0,0,1,23.316,52h9.209a1.317,1.317,0,0,1,1.316,1.316v2.449a1.32,1.32,0,0,1-.187.677l-1.688,2.813A1.323,1.323,0,0,1,30.836,59.893Zm-7.521-6.578v5.262h7.521l1.687-2.813V53.316Z" transform="translate(-22 -52)" fill="#220b25"/>
        </g>
        <g id="Group_160" data-name="Group 160" transform="translate(19.733 2.631)">
          <path id="Path_166" data-name="Path 166" d="M58.524,59.893H51a1.322,1.322,0,0,1-1.127-.638l-1.688-2.814A1.32,1.32,0,0,1,48,55.764V53.316A1.317,1.317,0,0,1,49.316,52h9.209a1.317,1.317,0,0,1,1.316,1.316v5.262A1.317,1.317,0,0,1,58.524,59.893Zm-9.209-6.578v2.449L51,58.578h7.521V53.316Z" transform="translate(-48 -52)" fill="#220b25"/>
        </g>
      </g>
      <g id="Group_164" data-name="Group 164" transform="translate(10.195 35.519)">
        <g id="Group_162" data-name="Group 162">
          <path id="Path_167" data-name="Path 167" d="M20.96,61.658a1.629,1.629,0,0,0-.47.076,1.313,1.313,0,1,0-1.175,1.9c.011,0,.022,0,.033,0a1.644,1.644,0,1,0,1.611-1.97Z" transform="translate(-17.671 -60.671)" fill="#ffe9cd"/>
          <path id="Path_168" data-name="Path 168" d="M20.789,65.1a1.979,1.979,0,0,1-1.867-1.337,1.641,1.641,0,1,1,1.554-2.581,1.945,1.945,0,0,1,2.286,1.944A1.976,1.976,0,0,1,20.789,65.1Zm-1.644-3.947a.987.987,0,0,0,0,1.973.364.364,0,0,1,.355.26,1.315,1.315,0,1,0,1.289-1.576,1.292,1.292,0,0,0-.376.062.328.328,0,0,1-.389-.168A.98.98,0,0,0,19.144,61.158Z" transform="translate(-17.5 -60.5)" fill="#220b25"/>
        </g>
        <g id="Group_163" data-name="Group 163" transform="translate(1.315 1.315)">
          <path id="Path_169" data-name="Path 169" d="M21.144,63.815A.328.328,0,0,1,21,63.78l-1.316-.658a.329.329,0,1,1,.295-.588l1.316.658a.329.329,0,0,1-.147.623Z" transform="translate(-19.5 -62.499)" fill="#f9a42f"/>
        </g>
      </g>
      <g id="Group_167" data-name="Group 167" transform="translate(4.933 35.519)">
        <g id="Group_165" data-name="Group 165">
          <path id="Path_170" data-name="Path 170" d="M10,63.96a.984.984,0,0,0,1.935.257.967.967,0,0,0,.734,0,.984.984,0,1,0,1.863-.624.981.981,0,0,0,.026-1.889.978.978,0,0,0-1.6-.448.979.979,0,0,0-1.606.474.974.974,0,0,0-.367-.072.983.983,0,0,0-.731,1.644A.981.981,0,0,0,10,63.96Z" transform="translate(-9.671 -60.671)" fill="#fff"/>
          <path id="Path_171" data-name="Path 171" d="M13.447,65.1a1.314,1.314,0,0,1-1.142-.67,1.279,1.279,0,0,1-.347,0A1.313,1.313,0,0,1,9.5,63.789a1.3,1.3,0,0,1,.18-.658,1.3,1.3,0,0,1-.18-.658,1.328,1.328,0,0,1,1.489-1.3,1.305,1.305,0,0,1,1.8-.491,1.305,1.305,0,0,1,1.854.6,1.308,1.308,0,0,1,.108,2.338,1.277,1.277,0,0,1,.012.174A1.317,1.317,0,0,1,13.447,65.1ZM12.5,63.717a.328.328,0,0,1,.317.243.655.655,0,1,0,1.241-.415.33.33,0,0,1,.219-.44.652.652,0,0,0,.018-1.257.328.328,0,0,1-.22-.22.669.669,0,0,0-1.063-.3.329.329,0,0,1-.441,0,.672.672,0,0,0-1.069.315.329.329,0,0,1-.44.219.666.666,0,0,0-.9.61.654.654,0,0,0,.172.437.33.33,0,0,1,0,.441.655.655,0,1,0,1.118.608.329.329,0,0,1,.171-.209.323.323,0,0,1,.269-.011.646.646,0,0,0,.488,0A.317.317,0,0,1,12.5,63.717Z" transform="translate(-9.5 -60.5)" fill="#220b25"/>
        </g>
        <g id="Group_166" data-name="Group 166" transform="translate(1.973 1.315)">
          <path id="Path_172" data-name="Path 172" d="M12.829,63.815a.329.329,0,0,1-.147-.623L14,62.535a.329.329,0,1,1,.295.588l-1.316.658A.328.328,0,0,1,12.829,63.815Z" transform="translate(-12.5 -62.499)" fill="#f9a42f"/>
        </g>
      </g>
      <g id="Group_170" data-name="Group 170" transform="translate(7.564 31.572)">
        <g id="Group_168" data-name="Group 168">
          <path id="Path_173" data-name="Path 173" d="M18.6,56.973a1.308,1.308,0,0,0-1.987-1.125.984.984,0,1,0-1.846.589,1.313,1.313,0,1,0,1.437,2.155.98.98,0,0,0,1.723-.478A1.31,1.31,0,0,0,18.6,56.973Z" transform="translate(-13.671 -54.671)" fill="#fff"/>
          <path id="Path_174" data-name="Path 174" d="M16.789,59.1a1.3,1.3,0,0,1-.772-.255,1.626,1.626,0,0,1-.873.255,1.642,1.642,0,0,1-.949-2.984,1.259,1.259,0,0,1-.037-.305,1.312,1.312,0,0,1,2.488-.586,1.6,1.6,0,0,1,.472-.072,1.64,1.64,0,0,1,.933,2.991A1.306,1.306,0,0,1,16.789,59.1Zm-.752-1.012h.02a.327.327,0,0,1,.232.117.651.651,0,0,0,1.146-.318.331.331,0,0,1,.163-.235.982.982,0,0,0-.48-1.842.968.968,0,0,0-.5.143.325.325,0,0,1-.31.014.33.33,0,0,1-.184-.251.655.655,0,0,0-1.3.093.643.643,0,0,0,.076.3.329.329,0,0,1-.155.451.984.984,0,1,0,1.077,1.615A.329.329,0,0,1,16.037,58.092Z" transform="translate(-13.5 -54.5)" fill="#220b25"/>
        </g>
        <g id="Group_169" data-name="Group 169" transform="translate(1.973 1.973)">
          <path id="Path_175" data-name="Path 175" d="M16.829,58.816a.329.329,0,0,1-.233-.562l.658-.658a.331.331,0,0,1,.233-.1h.658a.329.329,0,1,1,0,.658h-.522l-.561.562A.33.33,0,0,1,16.829,58.816Z" transform="translate(-16.5 -57.5)" fill="#f9a42f"/>
        </g>
      </g>
    </g>
  </g>
</svg>
